<svg width="19" height="22" viewBox="0 0 19 22" fill="none" xmlns="http://www.w3.org/2000/svg">
<path d="M18.0501 8.6101C17.8801 8.6301 17.71 8.6401 17.53 8.6401C15.63 8.6401 13.8701 7.6901 12.8301 6.1001V14.7501C12.8301 18.2801 9.97005 21.1401 6.44005 21.1401C2.91005 21.1401 0.0500488 18.2801 0.0500488 14.7501C0.0500488 11.2201 2.91005 8.3601 6.44005 8.3601C6.57005 8.3601 6.70005 8.3701 6.84005 8.3801V11.5301C6.71005 11.5101 6.58005 11.4901 6.44005 11.4901C4.64005 11.4901 3.18005 12.9501 3.18005 14.7501C3.18005 16.5501 4.64005 18.0101 6.44005 18.0101C8.24005 18.0101 9.83005 16.5901 9.83005 14.7901L9.86005 0.100098H12.8701C13.1501 2.8001 15.3301 4.9101 18.0401 5.1101V8.6101" fill="white"/>
</svg>
