<?xml version="1.0" encoding="UTF-8"?><svg id="Layer_2" xmlns="http://www.w3.org/2000/svg" xmlns:xlink="http://www.w3.org/1999/xlink" viewBox="0 0 112.92 112.92"><defs><style>.cls-1{fill-rule:evenodd;}.cls-1,.cls-2,.cls-3{stroke-width:0px;}.cls-4{isolation:isolate;}.cls-3{fill:none;}.cls-5{clip-path:url(#clippath-1);}.cls-6{clip-path:url(#clippath);}</style><clipPath id="clippath"><path class="cls-2" d="m69,47.65c-.68,0-1.34-.03-1.97-.08-3.53-.31-5.69-1.42-6.07-3.13l-.02-.08c-.02-.08-.04-.18-.05-.25-.02-.17-.05-.37-.05-.53,0-.29,0-.35.01-.53.03-.35.08-.58.08-.58.04-.15.09-.37.15-.55.04-.13.1-.28.15-.38l.04-.08c.05-.11.11-.23.16-.33.15-.25.32-.53.48-.74.22-.28.81-1.02,1.95-1.85.94-.69,1.77-1.17,3.04-1.79,2.12-1.03,5-1.96,7.69-2.48.54-.1,2.16-.42,4.05-.55.32-.02,1.06-.07,1.96-.07,1.06,0,1.79.07,1.89.08h0c.56.06,1.13.13,1.58.21.43.08.98.23,1.37.34.38.11.84.31.97.37.23.1.54.27.79.42.19.12.86.56,1.36,1.25.53.74.69,1.35.78,1.71.22.99-.06,2.56-2.69,4.5-4.07,3-11.59,5.14-17.65,5.14Zm-7.36-5.02s-.04.19-.07.47c-.01.15-.01.18,0,.46,0,.12.02.29.04.44,0,.06.02.13.04.2l.02.08c.3,1.33,2.33,2.29,5.43,2.56,6.15.54,14.73-1.67,19.13-4.92,1.8-1.33,2.66-2.66,2.41-3.74-.09-.35-.21-.83-.66-1.45-.04-.05-.08-.1-.12-.15.37,1.31-.5,2.83-2.46,4.27-4.17,3.08-12.28,5.17-18.09,4.66-3.17-.28-5.16-1.27-5.59-2.79-.02-.07-.04-.14-.05-.21-.01.04-.02.09-.03.13h0Zm18.79-8.2c-5.43,0-12.18,1.91-15.81,4.6-1.69,1.25-2.47,2.49-2.19,3.49.34,1.2,2.14,2.02,4.95,2.27,5.65.5,13.55-1.53,17.59-4.52,1.7-1.25,2.47-2.49,2.19-3.49-.34-1.2-2.14-2.02-4.95-2.27h0c-.57-.05-1.17-.07-1.78-.07Z"/></clipPath><clipPath id="clippath-1"><path class="cls-2" d="m82.48,72.48c-.68,0-1.34-.03-1.97-.08-3.53-.31-5.69-1.42-6.07-3.13l-.02-.08c-.02-.08-.04-.18-.05-.25-.02-.17-.05-.37-.05-.53,0-.29,0-.35.01-.53.03-.35.08-.58.08-.58.04-.15.09-.37.15-.55.04-.13.1-.28.15-.38l.04-.08c.05-.11.11-.23.16-.33.15-.25.32-.53.48-.74.22-.28.81-1.02,1.95-1.85.94-.69,1.77-1.17,3.04-1.79,2.12-1.03,5-1.96,7.69-2.48.54-.1,2.16-.42,4.05-.55.32-.02,1.06-.07,1.96-.07,1.06,0,1.79.07,1.89.08h0c.56.06,1.13.13,1.58.21.43.08.98.23,1.37.34.38.11.84.31.97.37.23.1.54.27.79.42.19.12.86.56,1.36,1.25.53.74.69,1.35.78,1.71.22.99-.06,2.56-2.69,4.5-4.07,3-11.59,5.14-17.65,5.14Zm-7.36-5.02s-.04.19-.07.47c-.01.15-.01.18,0,.46,0,.12.02.29.04.44,0,.06.02.13.04.2l.02.08c.3,1.33,2.33,2.29,5.43,2.56,6.15.54,14.73-1.67,19.13-4.92,1.8-1.33,2.66-2.66,2.41-3.74-.09-.35-.21-.83-.66-1.45-.04-.05-.08-.1-.12-.15.37,1.31-.5,2.83-2.46,4.27-4.17,3.08-12.28,5.17-18.09,4.66-3.17-.28-5.16-1.27-5.59-2.79-.02-.07-.04-.14-.05-.21-.01.04-.02.09-.03.13h0Zm18.79-8.2c-5.43,0-12.18,1.91-15.81,4.6-1.69,1.25-2.47,2.49-2.19,3.49.34,1.2,2.14,2.02,4.95,2.27,5.65.5,13.55-1.53,17.59-4.52,1.7-1.25,2.47-2.49,2.19-3.49-.34-1.2-2.14-2.02-4.95-2.27h0c-.57-.05-1.17-.07-1.78-.07Z"/></clipPath></defs><g id="Layer_2-2"><rect class="cls-3" width="112.92" height="112.92"/><path class="cls-1" d="m20.46,60.73c.08-.18.2-.32.34-.45.28-.26.63-.42,1-.51.45-.11.9-.13,1.36-.11.3.02.6.02.9-.04.15-.03.29-.07.41-.17.16-.13.21-.3.12-.49-.07-.14-.15-.26-.26-.37-.28-.28-.63-.42-1.02-.44-.63-.04-1.22.12-1.75.45-.68.42-1.06,1.03-1.1,1.84,0,.1,0,.2,0,.3h0Zm.63,2.42c-.09-.06-.17-.12-.24-.19-.49-.44-.85-.96-1.03-1.59-.13-.47-.14-.95-.04-1.43.07-.35.19-.68.35-1,.13-.25.31-.47.51-.67.76-.77,1.69-1.07,2.76-.95.66.07,1.22.36,1.7.8.26.23.42.54.47.89.05.37-.09.67-.34.93-.23.24-.52.35-.83.42-.42.09-.85.1-1.28.09-.21,0-.42-.03-.63-.02-.34.03-.67.11-.96.3-.32.21-.51.51-.58.88-.09.42-.04.84.06,1.25.02.09.05.18.07.28Z"/><path class="cls-1" d="m26.02,61.42c-.02.1-.06.2-.1.29-.49,1.12-1.32,1.79-2.54,1.98-.33.05-.67.05-1,0-.19-.03-.34-.14-.46-.27-.14-.15-.22-.33-.27-.52-.09-.37-.08-.75.03-1.11.12-.38.4-.59.79-.65.16-.02.32,0,.48,0,.46,0,.92-.03,1.38-.1.43-.07.83-.2,1.19-.46.2-.14.36-.32.44-.55.05-.14.07-.29.05-.44,0,0,0-.02,0-.03.06.13.09.27.11.41.04.26.03.51-.05.76-.12.34-.36.58-.68.74-.25.13-.53.18-.81.23-.57.11-1.15.16-1.72.07-.28-.04-.46.12-.53.38-.04.17-.05.34-.04.51.01.15.06.29.2.38.06.04.14.07.21.07.59.03,1.15-.07,1.65-.4.25-.16.44-.38.59-.64.01-.02.02-.03.05-.04.39-.09.74-.28,1.01-.59,0,0,0,0,.02-.01Z"/><circle class="cls-2" cx="16.46" cy="71.34" r="1.07"/><circle class="cls-2" cx="15.2" cy="74.34" r="1.07"/><circle class="cls-2" cx="13.94" cy="77.35" r="1.07"/><circle class="cls-2" cx="18.07" cy="75.55" r="1.07"/><circle class="cls-2" cx="16.8" cy="78.55" r="1.07"/><circle class="cls-2" cx="19.67" cy="79.76" r="1.07"/><path class="cls-2" d="m28.85,37.43c-.21.04-.42.05-.63.03-1.47-.1-2.58-1.37-2.48-2.83h0c.1-1.47,1.37-2.58,2.83-2.48,1.47.1,2.58,1.37,2.48,2.83-.08,1.25-1.02,2.24-2.2,2.45Zm-2.53-2.76c-.08,1.14.79,2.13,1.93,2.2,1.14.08,2.13-.79,2.2-1.93.08-1.14-.79-2.13-1.93-2.2-1.14-.08-2.13.79-2.2,1.93h0Z"/><path class="cls-2" d="m27.59,44.62c-.21.04-.42.05-.64.03-1.47-.1-2.58-1.37-2.48-2.83h0c.1-1.47,1.37-2.58,2.83-2.48,1.47.1,2.58,1.37,2.48,2.83-.05.71-.37,1.36-.9,1.83-.37.33-.82.54-1.29.62Zm-2.53-2.76c-.04.55.14,1.09.51,1.5.36.42.87.67,1.42.7.55.04,1.09-.14,1.5-.51.42-.36.67-.87.7-1.42.08-1.14-.79-2.13-1.93-2.2-1.14-.07-2.13.79-2.2,1.93h0Z"/><path class="cls-2" d="m22.34,83.37c-.29.05-.62.07-.98.05-3.18-.14-5.75-.75-5.86-.78-.17-.04-4.24-1.03-5.33-3.47-.43-.97-.35-2.01.25-3.1,1.29-2.45,10.27-23.76,10.79-25,.19-1.07,2.88-16.58,2.89-16.63.17-.99.69-4,3.38-4.78,1.39-.41,2.93-.04,4.03.96.8.73,1.28,1.77,1.34,2.93.02.33,0,.68-.04,1.07-.05.44-.13.87-.21,1.28-.04.23-.09.46-.12.69-.12.74-.26,1.48-.39,2.19-.07.36-.14.73-.2,1.09l-2.08,11.53-1.85,10.96c-.3,1.75-.59,3.51-.88,5.26-.58,3.45-1.18,7.02-1.78,10.53-.05.26-.09.53-.13.81-.27,1.81-.59,4-2.82,4.39Zm5.75-52.79c-.11.02-.22.04-.33.08-1.41.41-2.25,1.67-2.65,3.97,0,.02-2.78,16.01-2.9,16.69v.06s-.03.05-.03.05c-.39.92-9.51,22.58-10.85,25.14-.44.81-.51,1.52-.21,2.19.73,1.64,3.59,2.64,4.62,2.89.03,0,2.6.61,5.67.75,2.08.09,2.39-1.29,2.72-3.56.04-.28.08-.56.13-.84.61-3.5,1.21-7.07,1.78-10.52.29-1.75.59-3.51.88-5.26l1.85-10.97,2.08-11.54c.07-.37.13-.73.2-1.1.13-.71.27-1.45.39-2.17.04-.24.08-.48.13-.72.08-.41.15-.81.19-1.2h0c.04-.33.05-.62.03-.9-.05-.89-.4-1.68-1-2.22-.75-.68-1.76-.98-2.72-.81Z"/><path class="cls-1" d="m51.59,60.73c.02-.1.02-.2,0-.3-.04-.81-.43-1.41-1.1-1.84-.53-.33-1.12-.49-1.75-.45-.39.02-.74.16-1.02.44-.11.11-.2.23-.26.37-.09.19-.05.36.12.49.12.09.27.14.41.17.3.06.6.06.9.04.46-.02.91,0,1.36.11.37.09.71.25,1,.51.14.13.26.28.34.45h0Zm-.55,2.14c.1-.41.15-.83.06-1.25-.08-.37-.27-.67-.58-.88-.29-.19-.61-.28-.96-.3-.21-.02-.42.01-.63.02-.43,0-.86,0-1.28-.09-.31-.07-.6-.18-.83-.42-.25-.26-.39-.56-.34-.93.05-.35.22-.65.47-.89.48-.43,1.04-.72,1.7-.8,1.07-.12,2,.18,2.76.95.2.2.38.42.51.67.16.32.28.65.35,1,.1.48.09.96-.04,1.43-.18.64-.54,1.16-1.03,1.59-.07.07-.15.13-.24.19.03-.1.05-.19.07-.28Z"/><path class="cls-1" d="m46.02,61.42c.02.1.06.2.1.29.49,1.12,1.32,1.79,2.54,1.98.33.05.67.05,1,0,.19-.03.34-.14.46-.27.14-.15.22-.33.27-.52.09-.37.08-.75-.03-1.11-.12-.38-.4-.59-.79-.65-.16-.02-.32,0-.48,0-.46,0-.92-.03-1.38-.1-.43-.07-.83-.2-1.19-.46-.2-.14-.36-.32-.44-.55-.05-.14-.07-.29-.05-.44,0,0,0-.02,0-.03-.06.13-.09.27-.11.41-.04.26-.03.51.05.76.12.34.36.58.68.74.25.13.53.18.81.23.57.11,1.15.16,1.72.07.28-.04.46.12.53.38.04.17.05.34.04.51-.01.15-.06.29-.2.38-.06.04-.14.07-.21.07-.59.03-1.15-.07-1.65-.4-.25-.16-.44-.38-.59-.64-.01-.02-.02-.03-.05-.04-.39-.09-.74-.28-1.01-.59,0,0,0,0-.02-.01Z"/><circle class="cls-2" cx="55.59" cy="71.34" r="1.07"/><circle class="cls-2" cx="56.85" cy="74.34" r="1.07"/><circle class="cls-2" cx="58.11" cy="77.35" r="1.07"/><circle class="cls-2" cx="53.98" cy="75.55" r="1.07"/><circle class="cls-2" cx="55.24" cy="78.55" r="1.07"/><circle class="cls-2" cx="52.37" cy="79.76" r="1.07"/><path class="cls-2" d="m40.99,34.98c-.1-1.47,1.02-2.74,2.48-2.83,1.47-.1,2.74,1.02,2.83,2.48h0c.1,1.47-1.02,2.74-2.48,2.83-.22.01-.43,0-.63-.03-1.18-.21-2.12-1.2-2.2-2.45Zm4.72-.31c-.08-1.14-1.07-2-2.2-1.93-1.14.08-2.01,1.06-1.93,2.2.08,1.14,1.06,2.01,2.2,1.93,1.14-.08,2.01-1.06,1.93-2.2h0Z"/><path class="cls-2" d="m43.17,44c-.54-.47-.86-1.12-.9-1.83-.1-1.47,1.02-2.74,2.48-2.83,1.47-.1,2.74,1.02,2.83,2.48h0c.1,1.47-1.02,2.74-2.48,2.83-.22.01-.43,0-.64-.03-.47-.08-.92-.29-1.29-.62Zm3.82-2.14c-.08-1.14-1.06-2-2.2-1.93-1.14.08-2.01,1.06-1.93,2.2.04.55.29,1.06.7,1.42.42.36.95.55,1.5.51.55-.04,1.06-.29,1.42-.7.36-.42.55-.95.51-1.5h0Z"/><path class="cls-2" d="m46.89,78.97c-.04-.28-.08-.55-.13-.81-.61-3.51-1.21-7.08-1.78-10.53-.29-1.75-.59-3.51-.88-5.26l-1.85-10.96-2.08-11.53c-.07-.36-.13-.73-.2-1.09-.13-.72-.27-1.46-.39-2.19-.04-.23-.08-.46-.12-.69-.08-.42-.16-.84-.21-1.28-.04-.39-.05-.74-.04-1.07.06-1.16.54-2.21,1.34-2.93,1.1-1,2.64-1.37,4.03-.96,2.68.79,3.2,3.79,3.38,4.78,0,.06,2.7,15.56,2.89,16.63.52,1.24,9.5,22.55,10.79,25,.6,1.09.68,2.13.25,3.1-1.09,2.45-5.16,3.43-5.33,3.47-.11.03-2.69.63-5.86.78-.36.02-.69,0-.98-.05-2.23-.39-2.55-2.59-2.82-4.39Zm-5.65-47.59c-.6.54-.95,1.33-1,2.22-.02.27,0,.57.03.9h0c.04.4.12.79.19,1.2.04.24.09.48.13.72.12.72.25,1.46.39,2.17.07.37.14.73.2,1.1l2.08,11.54,1.85,10.97c.3,1.75.59,3.51.88,5.26.58,3.45,1.18,7.02,1.78,10.52.05.28.09.56.13.84.33,2.27.64,3.65,2.72,3.56,3.07-.14,5.64-.74,5.67-.75,1.04-.24,3.89-1.24,4.62-2.89.3-.67.23-1.38-.21-2.19-1.34-2.55-10.46-24.22-10.85-25.14l-.02-.05v-.06c-.13-.68-2.9-16.67-2.91-16.69-.4-2.29-1.24-3.55-2.65-3.97-.11-.03-.22-.06-.33-.08-.95-.17-1.97.13-2.72.81Z"/><path class="cls-2" d="m69.81,49.23c-2.01,0-3.8-.25-5.19-.74l-.1-.03-.13-.05c-.07-.03-.14-.06-.21-.09l-.2-.09c-.05-.03-.1-.04-.14-.06h-.01c-.07-.04-.14-.08-.2-.11-.04-.02-.08-.04-.11-.06-.1-.06-.2-.11-.29-.17-.07-.05-.17-.11-.27-.18l-.11-.08s-.08-.06-.12-.09c-.04-.03-.08-.06-.12-.1l-.21-.18s-.04-.03-.05-.05l-.11-.11c-.06-.06-.12-.13-.18-.2-.52-.6-.88-1.39-1.09-2.34l.71-.15c.18.84.5,1.52.93,2.02.05.06.1.12.16.17l.09.09s.02.02.04.04l.18.16s.07.05.1.08c.04.03.07.06.11.08l.09.07c.09.06.17.11.23.15.08.05.17.1.26.15.03.02.06.03.09.05.07.04.13.07.19.1h.02s.07.04.11.06l.19.08c.07.03.14.06.2.08l.2.07c2.69.96,6.96.94,11.45-.05.12-.03.24-.05.38-.08h.05c.58-.14,1.18-.3,1.78-.47l.17-.05c.23-.07.46-.14.69-.21l.18-.05c.11-.04.24-.08.37-.12.19-.06.37-.12.56-.19.19-.07.48-.17.73-.27.75-.29,1.48-.6,2.15-.94l.09-.04c.38-.19.75-.39,1.12-.6l.11-.06c.19-.11.46-.28.73-.45l.04-.03c.25-.16.46-.31.61-.43.33-.25.58-.45.8-.65h.01c.17-.17.29-.29.44-.43.3-.29.99-.98,1.31-2.05v-.04s.01,0,.01,0c.01-.04.03-.09.04-.13v-.05c.03-.06.04-.12.05-.18v-.06c.03-.07.03-.13.04-.19.02-.14.03-.24.03-.27v-.24s0-.23,0-.23c0-.08,0-.14-.02-.2l-.04-.25-.04-.21-.09-.39.71-.16.13.61h0s.05.33.05.33c0,.06.01.13.02.21v.21s0,.02,0,.02h0s0,.05,0,.06v.25s-.02.17-.04.34c0,.07-.02.14-.03.21v.05s-.02.05-.02.05c-.01.06-.03.13-.05.2l-.02.08s-.03.09-.04.14l-.06-.02.06.02v.03c-.39,1.25-1.2,2.05-1.5,2.36-.12.12-.26.26-.45.43l-.03.03c-.23.2-.5.42-.84.68-.17.13-.39.28-.64.45l-.06.04c-.27.18-.55.35-.76.47l-.11.06c-.37.22-.76.43-1.15.62l-.09.05c-.7.34-1.44.67-2.21.96-.27.1-.56.21-.75.28-.19.07-.38.13-.57.19-.13.05-.27.09-.39.13l-.18.05c-.24.08-.48.15-.7.21l-.18.05c-.61.17-1.22.33-1.81.47h-.05c-.14.04-.27.07-.39.1-2.32.51-4.6.77-6.65.77Z"/><g class="cls-4"><path d="m69,47.65c-.68,0-1.34-.03-1.97-.08-3.53-.31-5.69-1.42-6.07-3.13l-.02-.08c-.02-.08-.04-.18-.05-.25-.02-.17-.05-.37-.05-.53,0-.29,0-.35.01-.53.03-.35.08-.58.08-.58.04-.15.09-.37.15-.55.04-.13.1-.28.15-.38l.04-.08c.05-.11.11-.23.16-.33.15-.25.32-.53.48-.74.22-.28.81-1.02,1.95-1.85.94-.69,1.77-1.17,3.04-1.79,2.12-1.03,5-1.96,7.69-2.48.54-.1,2.16-.42,4.05-.55.32-.02,1.06-.07,1.96-.07,1.06,0,1.79.07,1.89.08h0c.56.06,1.13.13,1.58.21.43.08.98.23,1.37.34.38.11.84.31.97.37.23.1.54.27.79.42.19.12.86.56,1.36,1.25.53.74.69,1.35.78,1.71.22.99-.06,2.56-2.69,4.5-4.07,3-11.59,5.14-17.65,5.14Zm-7.36-5.02s-.04.19-.07.47c-.01.15-.01.18,0,.46,0,.12.02.29.04.44,0,.06.02.13.04.2l.02.08c.3,1.33,2.33,2.29,5.43,2.56,6.15.54,14.73-1.67,19.13-4.92,1.8-1.33,2.66-2.66,2.41-3.74-.09-.35-.21-.83-.66-1.45-.04-.05-.08-.1-.12-.15.37,1.31-.5,2.83-2.46,4.27-4.17,3.08-12.28,5.17-18.09,4.66-3.17-.28-5.16-1.27-5.59-2.79-.02-.07-.04-.14-.05-.21-.01.04-.02.09-.03.13h0Zm18.79-8.2c-5.43,0-12.18,1.91-15.81,4.6-1.69,1.25-2.47,2.49-2.19,3.49.34,1.2,2.14,2.02,4.95,2.27,5.65.5,13.55-1.53,17.59-4.52,1.7-1.25,2.47-2.49,2.19-3.49-.34-1.2-2.14-2.02-4.95-2.27h0c-.57-.05-1.17-.07-1.78-.07Z"/><g class="cls-6"><path class="cls-2" d="m68.53,47.78l-2.13-.28s-.07,0-.11-.01h-.06c-.14-.03-.29-.05-.43-.07-.05,0-.09-.02-.14-.02l-.11-.02c-.1-.02-.21-.04-.31-.06-.05-.01-.1-.02-.15-.03l-.09-.02c-.09-.02-.19-.04-.28-.06-.06-.01-.11-.03-.17-.04h-.05c-.1-.04-.19-.06-.28-.09-.06-.02-.12-.04-.18-.05h-.03c-.09-.04-.17-.06-.25-.09-.07-.02-.13-.05-.2-.07-.08-.03-.16-.06-.23-.09-.06-.03-.12-.05-.18-.08-.07-.03-.15-.07-.21-.1-.06-.03-.11-.06-.17-.09-.07-.04-.13-.07-.2-.11-.05-.03-.11-.06-.16-.09-.06-.04-.12-.08-.18-.12-.05-.03-.09-.07-.14-.1-.06-.04-.11-.08-.16-.13h-.01s-.08-.07-.11-.11c-.05-.05-.1-.09-.14-.14l-.02-.02s-.06-.06-.09-.09c-.04-.05-.08-.1-.12-.15l-.02-.03s-.05-.06-.07-.09c-.04-.05-.07-.1-.1-.16l-.02-.04s-.04-.06-.05-.09c-.03-.06-.06-.13-.09-.19v-.02s-.03-.05-.04-.08c-.04-.1-.07-.21-.09-.31l-.06-.32-.04-.34c0-.07-.01-.14-.01-.19v-.26s0-.08,0-.08c0-.07,0-.14.01-.2v-.1s.02-.11.03-.16v-.03c.19-1.39,1.03-2.67,2.56-3.89l.07-.05c.09-.07.18-.14.27-.21,1.94-1.49,4.88-2.82,8.28-3.75.82-.23,1.66-.42,2.49-.59l.11-.02c.24-.05.48-.09.73-.13l.22-.04.31-.05c.21-.03.43-.07.62-.09l.18-.02h0s.91-.11.91-.11c.11,0,.21-.02.32-.03.23-.02.48-.05.69-.06l.98-.05c.11,0,.22,0,.34,0h.1s.09,0,.13,0h.22s.05,0,.05,0h.03s.08,0,.11,0h.7s0,.01,0,.01h.25s.27.02.27.02c.21.01.43.02.61.04h.01s0,.08,0,.08v-.08s.22.02.22.02c.25.02.44.04.62.07h.07c.27.05.53.09.96.17l.12.03h0c.07.02.14.03.2.05.07.01.13.03.2.05h.03c.09.03.17.05.26.08l.16.05c.18.05.33.1.44.14l.1.03h0s.22.09.22.09c.12.04.25.1.37.16h.03c.64.3,1.16.65,1.6,1.08.45.42.8.93,1.03,1.49l.05.12h0s.03.07.03.07l.12-.38v.75s0,.03,0,.03l.06.22c.02.08.03.15.04.23v.02s0,.01,0,.02v.04s0,0,0,0v.05s0,.03,0,.04c0,0,0,.01,0,.02l.37-.48-.39.93s0,.03,0,.05v.02s0,.04-.01.06c0,.03,0,.04,0,.06h0s0,.05,0,.05c0,.01,0,.03,0,.04,0,.03-.01.05-.02.08,0,0,0,.02,0,.03,0,.01,0,.02,0,.03,0,.03,0,.04-.01.05l-.03.09-.71,2.05v-.67l-1.09,1.88.32-1.11s0,0,0,0l-.05.05s-.05.05-.08.07l-.15.14-2.1,1.87.4-.6c-1.44.92-3.19,1.75-5.21,2.47h0s-.06.02-.08.03l-.06.02c-.18.06-.36.12-.54.18-.08.03-.16.05-.24.08h-.04c-.07.04-.15.06-.22.08h0s-.07.02-.1.03l-.58.17c-.07.02-.14.04-.22.06l-.08.02h0s-.85.23-.85.23h0s-.3.08-.3.08l.55.02-1.37.23.21.02-2.86.43.44.07-3.22.24.38.11-3.13-.05.28.14Zm.44-.85h.07s1.04-.02,1.04-.02l1.24-.08,1.53-.16,2.14-.34h0s.39-.08.39-.08c.06-.01.12-.03.18-.04l.2-.04h0s.1-.02.1-.02c.06-.01.11-.02.17-.04l.53-.12h0s.8-.2.8-.2l.02.07v-.07s.81-.22.81-.22h0s.09-.03.09-.03c.07-.02.14-.04.21-.06l.66-.2h0c.07-.02.15-.05.22-.07h.04c.08-.04.16-.07.24-.09.18-.06.36-.12.53-.18l.13-.04h0c1.95-.69,3.71-1.52,5.08-2.41h0c.07-.04.14-.09.2-.13l.12-.08s.05-.03.08-.05c.14-.1.28-.19.41-.29.04-.03.07-.05.11-.08l.06-.05h0s.03-.02.04-.03l.05-.04c.05-.04.11-.08.16-.13.06-.05.11-.09.17-.14.05-.04.1-.08.15-.13l.2-.18s.04-.04.06-.06l.05-.05s.03-.03.05-.05l.19-.19s.05-.05.07-.07l.05-.05s.04-.05.06-.07l.04-.05s.04-.05.06-.07l.02-.02h.02s0,0,0,0h-.01s.12-.16.12-.16c.02-.02.04-.05.06-.07.02-.03.04-.05.06-.08l.1-.14s.04-.06.06-.09l.06-.09h0s0,0,0,0h.02s0,0,0,0l-.03-.02.09-.17s.02-.03.02-.04l.06-.12h0s.15-.41.15-.41h0s0-.01,0-.02l.02-.09h0v-.04s.01-.02.01-.03l.03-.2h0s0-.14,0-.14v-.09s0-.02,0-.03v-.08c-.01-.05-.02-.1-.04-.15l-.17-.56h0s-.06-.13-.06-.13c-.19-.46-.46-.86-.81-1.2.25.61.35,1.3.06,2.09v.03c-.4.81-1.16,1.64-2.25,2.45-2.58,1.91-6.75,3.5-11.17,4.27-1.04.15-2.08.23-3.05.29-.67.02-1.34.03-1.98.04-.68,0-1.38.02-2.06.04h-.02s-.02,0-.02,0c-3.05-.31-4.96-1.3-5.37-2.79-.02-.07-.04-.14-.05-.21-.03.12-.05.25-.07.38v.02s-.01.09-.02.14v.09s-.02.1-.02.16v.06s0,.23,0,.23c0,.04,0,.1.01.16v.06s.04.28.04.28l.04.22c.01.06.04.13.06.21,0,0,0,.02.01.02,0,.01.01.03.02.05.02.05.04.1.06.14,0,.01.02.03.02.04l.03.05s.04.08.07.11c.01.02.03.04.04.05l.03.03s.06.08.09.12c.02.02.04.04.06.06l.02.02s.07.07.11.11c.03.03.06.05.09.08h.01s.09.08.13.12c.04.03.08.06.12.08.05.03.1.07.15.1.04.03.09.05.13.08.06.03.11.06.17.09.05.03.1.05.15.08.06.03.13.06.19.09.05.02.11.05.16.07.07.03.14.06.21.08.06.02.12.04.18.07.08.03.16.05.24.08h.03c.05.03.11.04.16.06.08.02.17.05.25.07l.06.02s.1.03.15.04c.08.02.17.04.26.06l.1.02s.09.02.14.03c.09.02.19.04.29.05l.11.02s.08.01.12.02c.13.02.27.04.41.06h.07s.04.02.06.02h.04c.07.01.15.02.22.03l2.22.12h.05Zm-.34,0h.02s-.01,0-.02,0h0Zm13.1-12.44c-.71.04-1.43.07-2.13.09-1.21.04-2.45.08-3.67.23-.59.09-1.2.21-1.81.34-.58.13-1.17.27-1.73.43-1.19.33-2.34.72-3.42,1.14l-.25.1c-.81.33-1.57.68-2.27,1.05-.7.38-1.33.77-1.87,1.17-1.69,1.25-2.47,2.48-2.19,3.48.32,1.16,2.04,1.98,4.71,2.25.69-.03,1.38-.03,2.05-.04.64,0,1.31-.02,1.95-.04.94-.06,1.97-.14,2.97-.28,4.3-.75,8.36-2.3,10.85-4.14,1-.74,1.67-1.46,2.01-2.16.3-.83,0-1.53-.38-2.18-.8-.74-2.36-1.24-4.39-1.42-.16.02-.32,0-.46-.02Zm6.93,4.17h0,0Zm0-.02s0,0,0,.01h0Zm0,0s0,0,0,0h0Zm0-.26s0,0,0,.01h0,0Zm.09,0h-.09s.09,0,.09,0Z"/></g></g><path class="cls-2" d="m73.41,54.25s-.06,0-.1,0c-.04,0-.07,0-.11,0h-.07c-.09,0-.17,0-.26-.01h-.08s-.08,0-.12,0c-.15,0-.3-.02-.45-.03-.11-.01-.23-.02-.34-.03h-.03c-.05,0-.09-.02-.13-.02h-.06c-.07-.02-.13-.03-.19-.04-.04,0-.08-.01-.12-.02h-.04c-.07-.02-.14-.03-.2-.04-.04,0-.09-.02-.13-.03h-.02c-.06-.02-.12-.03-.18-.05-.05-.01-.09-.02-.14-.04-.07-.02-.12-.03-.18-.05-.05-.01-.09-.03-.14-.04-.05-.02-.11-.03-.16-.05-.04-.02-.09-.03-.13-.05-.05-.02-.1-.04-.15-.06-.04-.02-.08-.03-.12-.05-.05-.02-.09-.04-.14-.06-.04-.02-.08-.04-.11-.06-.04-.02-.09-.05-.13-.07-.04-.02-.07-.04-.1-.06-.04-.03-.08-.05-.12-.08-.03-.02-.06-.04-.09-.07-.04-.03-.07-.06-.11-.08h-.01s-.05-.05-.07-.07c-.03-.03-.06-.06-.09-.09l-.02-.02s-.04-.04-.06-.06c-.03-.03-.05-.06-.07-.09l-.02-.03s-.03-.04-.05-.06c-.02-.03-.05-.07-.07-.1l-.02-.03s-.03-.04-.04-.06c-.02-.04-.04-.08-.06-.12v-.02s-.03-.04-.03-.06c-.03-.07-.05-.14-.06-.21l-.88-3.76.5.05c2.43.22,5.41-.01,8.4-.67.12-.03.24-.05.38-.08h.05c.58-.14,1.18-.3,1.78-.47l.17-.05c.23-.07.46-.14.69-.21l.18-.05c.11-.04.24-.08.37-.12.19-.06.37-.12.56-.19.19-.07.48-.17.73-.27.75-.29,1.48-.6,2.15-.94l.09-.04c.38-.19.75-.39,1.12-.6l.11-.06c.16-.09.39-.24.63-.39l.44-.28.89,3.97c.01.06.02.12.03.18v.06c0,.06.01.12,0,.18,0,.01,0,.03,0,.04,0,.02,0,.04,0,.05,0,.04,0,.1-.02.15,0,0,0,.03,0,.04v.03c-.02.05-.03.11-.05.16h0s-.03.08-.03.08c-.02.06-.05.13-.08.2h0s0,.01,0,.02c0,.02-.01.03-.02.05-.03.05-.05.11-.08.16,0,.01-.01.03-.02.04,0,.01-.01.02-.02.03-.03.06-.07.12-.12.18,0,0-.01.02-.02.03v.02c-.06.07-.12.14-.18.22,0,0,0,.01-.02.02,0,.01-.02.02-.03.03-.06.07-.12.14-.19.21-.01.02-.02.03-.03.04l-.02.02c-.08.08-.17.17-.27.26,0,0-.01.01-.02.02-.01,0-.02.02-.03.03-.12.11-.25.21-.37.31,0,0,0,0-.02.02-.06.05-.12.09-.19.14-.13.1-.28.2-.43.29-.02.02-.05.03-.07.05l-.14.09c-.21.13-.39.24-.58.34l-.07.04c-.19.1-.38.2-.59.3l-.13.06c-.1.05-.2.1-.31.14-.03.01-.07.03-.1.04-.02,0-.05.02-.07.03-.15.07-.3.13-.45.19-.12.05-.23.09-.35.14-.16.06-.32.12-.48.18-.03.01-.06.02-.1.04-.05.02-.09.04-.14.05-.03,0-.05.02-.08.03l-.05.02c-.09.03-.17.06-.26.09l-.16.05c-.06.02-.11.04-.17.06-.05.01-.1.03-.14.04l-.09.03c-.07.02-.14.04-.21.06l-.06.02s-.06.02-.09.03c-.18.05-.36.1-.54.15l-.11.03c-.14.03-.27.07-.41.1-.08.02-.16.04-.24.05l-.27.06c-.17.04-.34.07-.5.1-.04,0-.07.01-.11.02l-.28.05s-.08.01-.11.02c-.17.03-.33.05-.5.08l-.24.03c-.09.01-.17.02-.26.03-.15.02-.29.03-.44.05h-.06c-.17.02-.34.04-.51.05-.05,0-.1,0-.14,0l-.38.02c-.18,0-.36.02-.54.02h-.05s-.05,0-.08,0h-.1c-.08,0-.17,0-.25,0Zm-5.07-5.07l.66,2.79s.02.08.04.12c0,.02.01.03.02.04.01.03.02.05.03.08l.04.06s.02.04.04.06c0,0,.01.02.02.02l.03.04s.03.04.04.05c.01.01.02.02.03.03l.02.02s.04.04.07.06c.01.01.03.03.04.04h.01s.05.05.08.07c.02.02.04.03.06.05.03.02.06.04.09.06.03.02.05.03.08.05.03.02.07.04.1.06.03.02.06.03.09.05.04.02.08.04.12.05.03.01.07.03.1.04.04.02.08.03.13.05.04.01.08.03.11.04.05.02.09.03.14.05.04.01.08.03.12.04.05.01.1.03.15.04.05.01.09.02.13.03.05.01.11.03.17.04h.02s.08.02.12.03c.06.01.11.02.17.03h.05s.07.02.11.03c.06,0,.12.02.18.03h.07s.07.02.11.02h.03c.11.02.22.03.32.04.14.01.28.02.42.03.03,0,.07,0,.1,0h.09c.08,0,.16,0,.25.01h.08s.06,0,.09,0c.11,0,.22,0,.33,0h.23c.17,0,.34-.01.52-.02l.37-.02s.09,0,.13,0c.16-.01.33-.03.49-.04h.06c.14-.02.28-.04.42-.06.08-.01.16-.02.25-.03l.24-.03c.16-.02.32-.05.48-.08.03,0,.07-.01.1-.02l.38-.07c.16-.03.33-.06.49-.1l.26-.06c.08-.02.16-.03.23-.05.13-.03.26-.06.39-.1l.09-.02c.19-.05.37-.1.54-.15l.15-.04c.07-.02.14-.04.2-.06l.09-.03s.09-.03.13-.04c.05-.02.1-.03.16-.05l.16-.05c.08-.03.17-.05.25-.08l.07-.02s.04-.01.06-.02c.04-.01.08-.03.12-.05.04-.01.07-.03.11-.04.16-.06.31-.11.46-.17.11-.04.23-.09.34-.14.15-.06.29-.12.44-.18.03-.01.06-.02.08-.04.03-.01.05-.02.08-.03.1-.04.2-.09.29-.14l.12-.06c.19-.09.38-.19.56-.29l.07-.04c.17-.1.35-.2.53-.31l.15-.1s.04-.02.06-.04c.14-.09.27-.18.4-.27.06-.04.12-.09.17-.13,0,0,0,0,.02-.01.11-.09.23-.18.34-.28,0,0,.02-.02.03-.02l.02-.02c.09-.08.17-.16.24-.23l.02-.02s.01-.02.02-.03c.05-.06.11-.11.15-.17,0,0,.02-.02.03-.03l.02-.02c.06-.07.11-.13.15-.19h0s0-.02.01-.03c.03-.05.06-.1.09-.14,0,0,.01-.02.02-.02,0-.01.01-.02.02-.03.02-.04.04-.08.06-.12,0-.01.01-.02.02-.03,0,0,0-.01,0-.02.02-.05.04-.1.06-.15v-.02s.03-.08.04-.13v-.02s0-.02,0-.03c0-.03.01-.07.01-.1,0,0,0-.02,0-.02,0,0,0-.01,0-.02,0-.04,0-.08,0-.12v-.03s-.01-.07-.02-.1l-.66-2.96c-.08.05-.16.1-.23.14l-.11.06c-.38.22-.77.43-1.16.62l-.09.05c-.7.34-1.44.67-2.21.96-.27.1-.56.21-.75.28-.19.07-.38.13-.57.19-.13.05-.27.09-.39.13l-.18.05c-.24.08-.48.15-.7.21l-.18.05c-.61.17-1.22.33-1.81.47h-.05c-.14.04-.27.07-.39.1-2.9.64-5.69.88-8.12.72Zm18.31-.49h0s0,0,0,0Zm0-.02s0,0,0,0c0,0,0,0,0,0Zm-.7-.18s0,0,0,0h0Zm0-.31h0s0,0,0,0Z"/><path class="cls-2" d="m83.3,74.06c-2.01,0-3.8-.25-5.19-.74l-.1-.03-.13-.05c-.07-.03-.14-.06-.21-.09l-.2-.09c-.05-.03-.1-.04-.14-.06h-.01c-.07-.04-.14-.08-.2-.11-.04-.02-.08-.04-.11-.06-.1-.06-.2-.11-.29-.17-.07-.05-.17-.11-.27-.18l-.11-.08s-.08-.06-.12-.09c-.04-.03-.08-.06-.12-.1l-.21-.18s-.04-.03-.05-.05l-.11-.11c-.06-.06-.12-.13-.18-.2-.52-.6-.88-1.39-1.09-2.34l.71-.15c.18.84.5,1.52.93,2.02.05.06.1.12.16.17l.09.09s.02.02.04.04l.18.16s.07.05.1.08c.04.03.07.06.11.08l.09.07c.09.06.17.11.23.15.08.05.17.1.26.15.03.02.06.03.09.05.07.04.13.07.19.1h.02s.07.04.11.06l.19.08c.07.03.14.06.2.08l.2.07c2.69.96,6.96.94,11.45-.05.12-.03.24-.05.38-.08h.05c.58-.14,1.18-.3,1.78-.47l.17-.05c.23-.07.46-.14.69-.21l.18-.05c.11-.04.24-.08.37-.12.19-.06.37-.12.56-.19.19-.07.48-.17.73-.27.75-.29,1.48-.6,2.15-.94l.09-.04c.38-.19.75-.39,1.12-.6l.11-.06c.19-.11.46-.28.73-.45l.04-.03c.25-.16.46-.31.61-.43.33-.25.58-.45.8-.65h.01c.17-.17.29-.29.44-.43.3-.29.99-.98,1.31-2.05v-.04s.01,0,.01,0c.01-.04.03-.09.04-.13v-.05c.03-.06.04-.12.05-.18v-.06c.03-.07.03-.13.04-.19.02-.14.03-.24.03-.27v-.24s0-.23,0-.23c0-.08,0-.14-.02-.2l-.04-.25-.04-.21-.09-.39.71-.16.13.61h0s.05.33.05.33c0,.06.01.13.02.21v.21s0,.02,0,.02h0s0,.05,0,.06v.25s-.02.17-.04.34c0,.07-.02.14-.03.21v.05s-.02.05-.02.05c-.01.06-.03.13-.05.2l-.02.08s-.03.09-.04.14l-.06-.02.06.02v.03c-.39,1.25-1.2,2.05-1.5,2.36-.12.12-.26.26-.45.43l-.03.03c-.23.2-.5.42-.84.68-.17.13-.39.28-.64.45l-.06.04c-.27.18-.55.35-.76.47l-.11.06c-.37.22-.76.43-1.15.62l-.09.05c-.7.34-1.44.67-2.21.96-.27.1-.56.21-.75.28-.19.07-.38.13-.57.19-.13.05-.27.09-.39.13l-.18.05c-.24.08-.48.15-.7.21l-.18.05c-.61.17-1.22.33-1.81.47h-.05c-.14.04-.27.07-.39.1-2.32.51-4.6.77-6.65.77Z"/><g class="cls-4"><path d="m82.48,72.48c-.68,0-1.34-.03-1.97-.08-3.53-.31-5.69-1.42-6.07-3.13l-.02-.08c-.02-.08-.04-.18-.05-.25-.02-.17-.05-.37-.05-.53,0-.29,0-.35.01-.53.03-.35.08-.58.08-.58.04-.15.09-.37.15-.55.04-.13.1-.28.15-.38l.04-.08c.05-.11.11-.23.16-.33.15-.25.32-.53.48-.74.22-.28.81-1.02,1.95-1.85.94-.69,1.77-1.17,3.04-1.79,2.12-1.03,5-1.96,7.69-2.48.54-.1,2.16-.42,4.05-.55.32-.02,1.06-.07,1.96-.07,1.06,0,1.79.07,1.89.08h0c.56.06,1.13.13,1.58.21.43.08.98.23,1.37.34.38.11.84.31.97.37.23.1.54.27.79.42.19.12.86.56,1.36,1.25.53.74.69,1.35.78,1.71.22.99-.06,2.56-2.69,4.5-4.07,3-11.59,5.14-17.65,5.14Zm-7.36-5.02s-.04.19-.07.47c-.01.15-.01.18,0,.46,0,.12.02.29.04.44,0,.06.02.13.04.2l.02.08c.3,1.33,2.33,2.29,5.43,2.56,6.15.54,14.73-1.67,19.13-4.92,1.8-1.33,2.66-2.66,2.41-3.74-.09-.35-.21-.83-.66-1.45-.04-.05-.08-.1-.12-.15.37,1.31-.5,2.83-2.46,4.27-4.17,3.08-12.28,5.17-18.09,4.66-3.17-.28-5.16-1.27-5.59-2.79-.02-.07-.04-.14-.05-.21-.01.04-.02.09-.03.13h0Zm18.79-8.2c-5.43,0-12.18,1.91-15.81,4.6-1.69,1.25-2.47,2.49-2.19,3.49.34,1.2,2.14,2.02,4.95,2.27,5.65.5,13.55-1.53,17.59-4.52,1.7-1.25,2.47-2.49,2.19-3.49-.34-1.2-2.14-2.02-4.95-2.27h0c-.57-.05-1.17-.07-1.78-.07Z"/><g class="cls-5"><path class="cls-2" d="m82.02,72.61l-2.13-.28s-.07,0-.11-.01h-.06c-.14-.03-.29-.05-.43-.07-.05,0-.09-.02-.14-.02l-.11-.02c-.1-.02-.21-.04-.31-.06-.05-.01-.1-.02-.15-.03l-.09-.02c-.09-.02-.19-.04-.28-.06-.06-.01-.11-.03-.17-.04h-.05c-.1-.04-.19-.06-.28-.09-.06-.02-.12-.04-.18-.05h-.03c-.09-.04-.17-.06-.25-.09-.07-.02-.13-.05-.2-.07-.08-.03-.16-.06-.23-.09-.06-.03-.12-.05-.18-.08-.07-.03-.15-.07-.21-.1-.06-.03-.11-.06-.17-.09-.07-.04-.13-.07-.2-.11-.05-.03-.11-.06-.16-.09-.06-.04-.12-.08-.18-.12-.05-.03-.09-.07-.14-.1-.06-.04-.11-.08-.16-.13h-.01s-.08-.07-.11-.11c-.05-.05-.1-.09-.14-.14l-.02-.02s-.06-.06-.09-.09c-.04-.05-.08-.1-.12-.15l-.02-.03s-.05-.06-.07-.09c-.04-.05-.07-.1-.1-.16l-.02-.04s-.04-.06-.05-.09c-.03-.06-.06-.13-.09-.19v-.02s-.03-.05-.04-.08c-.04-.1-.07-.21-.09-.31l-.06-.32-.04-.34c0-.07-.01-.14-.01-.19v-.26s0-.08,0-.08c0-.07,0-.14.01-.2v-.1s.02-.11.03-.16v-.03c.19-1.39,1.03-2.67,2.56-3.89l.07-.05c.09-.07.18-.14.27-.21,1.94-1.49,4.88-2.82,8.28-3.75.82-.23,1.66-.42,2.49-.59l.11-.02c.24-.05.48-.09.73-.13l.22-.04.31-.05c.21-.03.43-.07.62-.09l.18-.02h0s.91-.11.91-.11c.11,0,.21-.02.32-.03.23-.02.48-.05.69-.06l.98-.05c.11,0,.22,0,.34,0h.1s.09,0,.13,0h.22s.05,0,.05,0h.03s.08,0,.11,0h.7s0,.01,0,.01h.25s.27.02.27.02c.21.01.43.02.61.04h.01s0,.08,0,.08v-.08s.22.02.22.02c.25.02.44.04.62.07h.07c.27.05.53.09.96.17l.12.03h0c.07.02.14.03.2.05.07.01.13.03.2.05h.03c.09.03.17.05.26.08l.16.05c.18.05.33.1.44.14l.1.03h0s.22.09.22.09c.12.04.25.1.37.16h.03c.64.3,1.16.65,1.6,1.08.45.42.8.93,1.03,1.49l.05.12h0s.03.07.03.07l.12-.38v.75s0,.03,0,.03l.06.22c.02.08.03.15.04.23v.02s0,.01,0,.02v.04s0,0,0,0v.05s0,.03,0,.04c0,0,0,.01,0,.02l.37-.48-.39.93s0,.03,0,.05v.02s0,.04-.01.06c0,.03,0,.04,0,.06h0s0,.05,0,.05c0,.01,0,.03,0,.04,0,.03-.01.05-.02.08,0,0,0,.02,0,.03,0,.01,0,.02,0,.03,0,.03,0,.04-.01.05l-.03.09-.71,2.05v-.67l-1.09,1.88.32-1.11s0,0,0,0l-.05.05s-.05.05-.08.07l-.15.14-2.1,1.87.4-.6c-1.44.92-3.19,1.75-5.21,2.47h0s-.06.02-.08.03l-.06.02c-.18.06-.36.12-.54.18-.08.03-.16.05-.24.08h-.04c-.07.04-.15.06-.22.08h0s-.07.02-.1.03l-.58.17c-.07.02-.14.04-.22.06l-.08.02h0s-.85.23-.85.23h0s-.3.08-.3.08l.55.02-1.37.23.21.02-2.86.43.44.07-3.22.24.38.11-3.13-.05.28.14Zm.44-.85h.07s1.04-.02,1.04-.02l1.24-.08,1.53-.16,2.14-.34h0s.39-.08.39-.08c.06-.01.12-.03.18-.04l.2-.04h0s.1-.02.1-.02c.06-.01.11-.02.17-.04l.53-.12h0s.8-.2.8-.2l.02.07v-.07s.81-.22.81-.22h0s.09-.03.09-.03c.07-.02.14-.04.21-.06l.66-.2h0c.07-.02.15-.05.22-.07h.04c.08-.04.16-.07.24-.09.18-.06.36-.12.53-.18l.13-.04h0c1.95-.69,3.71-1.52,5.08-2.41h0c.07-.04.14-.09.2-.13l.12-.08s.05-.03.08-.05c.14-.1.28-.19.41-.29.04-.03.07-.05.11-.08l.06-.05h0s.03-.02.04-.03l.05-.04c.05-.04.11-.08.16-.13.06-.05.11-.09.17-.14.05-.04.1-.08.15-.13l.2-.18s.04-.04.06-.06l.05-.05s.03-.03.05-.05l.19-.19s.05-.05.07-.07l.05-.05s.04-.05.06-.07l.04-.05s.04-.05.06-.07l.02-.02h.02s0,0,0,0h-.01s.12-.16.12-.16c.02-.02.04-.05.06-.07.02-.03.04-.05.06-.08l.1-.14s.04-.06.06-.09l.06-.09h0s0,0,0,0h.02s0,0,0,0l-.03-.02.09-.17s.02-.03.02-.04l.06-.12h0s.15-.41.15-.41h0s0-.01,0-.02l.02-.09h0v-.04s.01-.02.01-.03l.03-.2h0s0-.14,0-.14v-.09s0-.02,0-.03v-.08c-.01-.05-.02-.1-.04-.15l-.17-.56h0s-.06-.13-.06-.13c-.19-.46-.46-.86-.81-1.2.25.61.35,1.3.06,2.09v.03c-.4.81-1.16,1.64-2.25,2.45-2.58,1.91-6.75,3.5-11.17,4.27-1.04.15-2.08.23-3.05.29-.67.02-1.34.03-1.98.04-.68,0-1.38.02-2.06.04h-.02s-.02,0-.02,0c-3.05-.31-4.96-1.3-5.37-2.79-.02-.07-.04-.14-.05-.21-.03.12-.05.25-.07.38v.02s-.01.09-.02.14v.09s-.02.1-.02.16v.06s0,.23,0,.23c0,.04,0,.1.01.16v.06s.04.28.04.28l.04.22c.01.06.04.13.06.21,0,0,0,.02.01.02,0,.01.01.03.02.05.02.05.04.1.06.14,0,.01.02.03.02.04l.03.05s.04.08.07.11c.01.02.03.04.04.05l.03.03s.06.08.09.12c.02.02.04.04.06.06l.02.02s.07.07.11.11c.03.03.06.05.09.08h.01s.09.08.13.12c.04.03.08.06.12.08.05.03.1.07.15.1.04.03.09.05.13.08.06.03.11.06.17.09.05.03.1.05.15.08.06.03.13.06.19.09.05.02.11.05.16.07.07.03.14.06.21.08.06.02.12.04.18.07.08.03.16.05.24.08h.03c.05.03.11.04.16.06.08.02.17.05.25.07l.06.02s.1.03.15.04c.08.02.17.04.26.06l.1.02s.09.02.14.03c.09.02.19.04.29.05l.11.02s.08.01.12.02c.13.02.27.04.41.06h.07s.04.02.06.02h.04c.07.01.15.02.22.03l2.22.12h.05Zm-.34,0h.02s-.01,0-.02,0h0Zm13.1-12.44c-.71.04-1.43.07-2.13.09-1.21.04-2.45.08-3.67.23-.59.09-1.2.21-1.81.34-.58.13-1.17.27-1.73.43-1.19.33-2.34.72-3.42,1.14l-.25.1c-.81.33-1.57.68-2.27,1.05-.7.38-1.33.77-1.87,1.17-1.69,1.25-2.47,2.48-2.19,3.48.32,1.16,2.04,1.98,4.71,2.25.69-.03,1.38-.03,2.05-.04.64,0,1.31-.02,1.95-.04.94-.06,1.97-.14,2.97-.28,4.3-.75,8.36-2.3,10.85-4.14,1-.74,1.67-1.46,2.01-2.16.3-.83,0-1.53-.38-2.18-.8-.74-2.36-1.24-4.39-1.42-.16.02-.32,0-.46-.02Zm6.93,4.17h0,0Zm0-.02s0,0,0,.01h0Zm0,0s0,0,0,0h0Zm0-.26s0,0,0,.01h0,0Zm.09,0h-.09s.09,0,.09,0Z"/></g></g><path class="cls-2" d="m86.89,79.09s-.06,0-.1,0c-.04,0-.07,0-.11,0h-.07c-.09,0-.17,0-.26-.01h-.08s-.08,0-.12,0c-.15,0-.3-.02-.45-.03-.11-.01-.23-.02-.34-.03h-.03c-.05,0-.09-.02-.13-.02h-.06c-.07-.02-.13-.03-.19-.04-.04,0-.08-.01-.12-.02h-.04c-.07-.02-.14-.03-.2-.04-.04,0-.09-.02-.13-.03h-.02c-.06-.02-.12-.03-.18-.05-.05-.01-.09-.02-.14-.04-.07-.02-.12-.03-.18-.05-.05-.01-.09-.03-.14-.04-.05-.02-.11-.03-.16-.05-.04-.02-.09-.03-.13-.05-.05-.02-.1-.04-.15-.06-.04-.02-.08-.03-.12-.05-.05-.02-.09-.04-.14-.06-.04-.02-.08-.04-.11-.06-.04-.02-.09-.05-.13-.07-.04-.02-.07-.04-.1-.06-.04-.03-.08-.05-.12-.08-.03-.02-.06-.04-.09-.07-.04-.03-.07-.06-.11-.08h-.01s-.05-.05-.07-.07c-.03-.03-.06-.06-.09-.09l-.02-.02s-.04-.04-.06-.06c-.03-.03-.05-.06-.07-.09l-.02-.03s-.03-.04-.05-.06c-.02-.03-.05-.07-.07-.1l-.02-.03s-.03-.04-.04-.06c-.02-.04-.04-.08-.06-.12v-.02s-.03-.04-.03-.06c-.03-.07-.05-.14-.06-.21l-.88-3.76.5.05c2.43.22,5.41-.01,8.4-.67.12-.03.24-.05.38-.08h.05c.58-.14,1.18-.3,1.78-.47l.17-.05c.23-.07.46-.14.69-.21l.18-.05c.11-.04.24-.08.37-.12.19-.06.37-.12.56-.19.19-.07.48-.17.73-.27.75-.29,1.48-.6,2.15-.94l.09-.04c.38-.19.75-.39,1.12-.6l.11-.06c.16-.09.39-.24.63-.39l.44-.28.89,3.97c.01.06.02.12.03.18v.06c0,.06.01.12,0,.18,0,.01,0,.03,0,.04,0,.02,0,.04,0,.05,0,.04,0,.1-.02.15,0,0,0,.03,0,.04v.03c-.02.05-.03.11-.05.16h0s-.03.08-.03.08c-.02.06-.05.13-.08.2h0s0,.01,0,.02c0,.02-.01.03-.02.05-.03.05-.05.11-.08.16,0,.01-.01.03-.02.04,0,.01-.01.02-.02.03-.03.06-.07.12-.12.18,0,0-.01.02-.02.03v.02c-.06.07-.12.14-.18.22,0,0,0,.01-.02.02,0,.01-.02.02-.03.03-.06.07-.12.14-.19.21-.01.02-.02.03-.03.04l-.02.02c-.08.08-.17.17-.27.26,0,0-.01.01-.02.02-.01,0-.02.02-.03.03-.12.11-.25.21-.37.31,0,0,0,0-.02.02-.06.05-.12.09-.19.14-.13.1-.28.2-.43.29-.02.02-.05.03-.07.05l-.14.09c-.21.13-.39.24-.58.34l-.07.04c-.19.1-.38.2-.59.3l-.13.06c-.1.05-.2.1-.31.14-.03.01-.07.03-.1.04-.02,0-.05.02-.07.03-.15.07-.3.13-.45.19-.12.05-.23.09-.35.14-.16.06-.32.12-.48.18-.03.01-.06.02-.1.04-.05.02-.09.04-.14.05-.03,0-.05.02-.08.03l-.05.02c-.09.03-.17.06-.26.09l-.16.05c-.06.02-.11.04-.17.06-.05.01-.1.03-.14.04l-.09.03c-.07.02-.14.04-.21.06l-.06.02s-.06.02-.09.03c-.18.05-.36.1-.54.15l-.11.03c-.14.03-.27.07-.41.1-.08.02-.16.04-.24.05l-.27.06c-.17.04-.34.07-.5.1-.04,0-.07.01-.11.02l-.28.05s-.08.01-.11.02c-.17.03-.33.05-.5.08l-.24.03c-.09.01-.17.02-.26.03-.15.02-.29.03-.44.05h-.06c-.17.02-.34.04-.51.05-.05,0-.1,0-.14,0l-.38.02c-.18,0-.36.02-.54.02h-.05s-.05,0-.08,0h-.1c-.08,0-.17,0-.25,0Zm-5.07-5.07l.66,2.79s.02.08.04.12c0,.02.01.03.02.04.01.03.02.05.03.08l.04.06s.02.04.04.06c0,0,.01.02.02.02l.03.04s.03.04.04.05c.01.01.02.02.03.03l.02.02s.04.04.07.06c.01.01.03.03.04.04h.01s.05.05.08.07c.02.02.04.03.06.05.03.02.06.04.09.06.03.02.05.03.08.05.03.02.07.04.1.06.03.02.06.03.09.05.04.02.08.04.12.05.03.01.07.03.1.04.04.02.08.03.13.05.04.01.08.03.11.04.05.02.09.03.14.05.04.01.08.03.12.04.05.01.1.03.15.04.05.01.09.02.13.03.05.01.11.03.17.04h.02s.08.02.12.03c.06.01.11.02.17.03h.05s.07.02.11.03c.06,0,.12.02.18.03h.07s.07.02.11.02h.03c.11.02.22.03.32.04.14.01.28.02.42.03.03,0,.07,0,.1,0h.09c.08,0,.16,0,.25.01h.08s.06,0,.09,0c.11,0,.22,0,.33,0h.23c.17,0,.34-.01.52-.02l.37-.02s.09,0,.13,0c.16-.01.33-.03.49-.04h.06c.14-.02.28-.04.42-.06.08-.01.16-.02.25-.03l.24-.03c.16-.02.32-.05.48-.08.03,0,.07-.01.1-.02l.38-.07c.16-.03.33-.06.49-.1l.26-.06c.08-.02.16-.03.23-.05.13-.03.26-.06.39-.1l.09-.02c.19-.05.37-.1.54-.15l.15-.04c.07-.02.14-.04.2-.06l.09-.03s.09-.03.13-.04c.05-.02.1-.03.16-.05l.16-.05c.08-.03.17-.05.25-.08l.07-.02s.04-.01.06-.02c.04-.01.08-.03.12-.05.04-.01.07-.03.11-.04.16-.06.31-.11.46-.17.11-.04.23-.09.34-.14.15-.06.29-.12.44-.18.03-.01.06-.02.08-.04.03-.01.05-.02.08-.03.1-.04.2-.09.29-.14l.12-.06c.19-.09.38-.19.56-.29l.07-.04c.17-.1.35-.2.53-.31l.15-.1s.04-.02.06-.04c.14-.09.27-.18.4-.27.06-.04.12-.09.17-.13,0,0,0,0,.02-.01.11-.09.23-.18.34-.28,0,0,.02-.02.03-.02l.02-.02c.09-.08.17-.16.24-.23l.02-.02s.01-.02.02-.03c.05-.06.11-.11.15-.17,0,0,.02-.02.03-.03l.02-.02c.06-.07.11-.13.15-.19h0s0-.02.01-.03c.03-.05.06-.1.09-.14,0,0,.01-.02.02-.02,0-.01.01-.02.02-.03.02-.04.04-.08.06-.12,0-.01.01-.02.02-.03,0,0,0-.01,0-.02.02-.05.04-.1.06-.15v-.02s.03-.08.04-.13v-.02s0-.02,0-.03c0-.03.01-.07.01-.1,0,0,0-.02,0-.02,0,0,0-.01,0-.02,0-.04,0-.08,0-.12v-.03s-.01-.07-.02-.1l-.66-2.96c-.08.05-.16.1-.23.14l-.11.06c-.38.22-.77.43-1.16.62l-.09.05c-.7.34-1.44.67-2.21.96-.27.1-.56.21-.75.28-.19.07-.38.13-.57.19-.13.05-.27.09-.39.13l-.18.05c-.24.08-.48.15-.7.21l-.18.05c-.61.17-1.22.33-1.81.47h-.05c-.14.04-.27.07-.39.1-2.9.64-5.69.88-8.12.72Zm18.31-.49h0s0,0,0,0Zm0-.02s0,0,0,0c0,0,0,0,0,0Zm-.7-.18s0,0,0,0h0Zm0-.31h0s0,0,0,0Z"/></g></svg>