<?xml version="1.0" encoding="UTF-8"?><svg id="Layer_2" xmlns="http://www.w3.org/2000/svg" viewBox="0 0 112.92 112.92"><defs><style>.cls-1{fill-rule:evenodd;}.cls-1,.cls-2,.cls-3{stroke-width:0px;}.cls-3{fill:none;}</style></defs><g id="Layer_2-2"><rect class="cls-3" width="112.92" height="112.92"/><path class="cls-2" d="m46.13,29.59c1.5-.37,3.13-.07,4.25,1.14,1.26,1.36,1.8,3.18,1.39,4.98-.28,1.23-.57,2.46-.85,3.69-.83,3.57-1.97,7.14-2.29,10.8-.32,3.71-.11,7.44-.12,11.16,0,2.28-.06,4.56-.16,6.83-.1,2.13-.07,4.4-.56,6.48-.89,3.74-3.85,7.08-7.5,8.34-.21.07-.42.13-.63.19-1.47.36-3.13.32-4.58.14-3.51-.44-6.38-2.48-7.06-6.1-.03-.76.33-1.78.33-1.78l6.46-17.02,4-10.71s.37-1.02.85-2.83c.48-1.82,1.81-7.7,1.81-7.7.19-.78.38-1.56.56-2.34.34-1.4.5-2.75,1.55-3.83.69-.71,1.6-1.22,2.55-1.45m-.25-1.02c-1.15.28-2.24.9-3.05,1.74-1.1,1.13-1.4,2.45-1.68,3.73-.04.2-.09.39-.14.59l-.28,1.17-.28,1.17h0s0,.01,0,.01c-.01.06-1.33,5.88-1.8,7.66-.44,1.68-.79,2.67-.82,2.74l-4,10.7-6.46,17.01h0s0,.02,0,.02c-.04.12-.44,1.24-.4,2.18v.07s.02.07.02.07c.72,3.82,3.69,6.41,7.96,6.95,1.89.23,3.56.18,4.96-.17.25-.06.49-.13.72-.21,1.95-.67,3.76-1.9,5.23-3.53,1.45-1.62,2.48-3.55,2.95-5.56.41-1.75.48-3.58.54-5.35.02-.46.03-.89.05-1.32.11-2.28.16-4.6.16-6.88,0-1.06-.02-2.14-.03-3.19-.04-2.6-.08-5.28.14-7.88.22-2.58.89-5.19,1.53-7.71.25-.96.5-1.96.73-2.95l.13-.57c.24-1.04.48-2.08.72-3.12.49-2.11-.11-4.27-1.64-5.92-1.3-1.4-3.26-1.94-5.26-1.45h0"/><circle class="cls-2" cx="32.93" cy="71.44" r="1.09"/><circle class="cls-2" cx="31.74" cy="74.51" r="1.09"/><circle class="cls-2" cx="30.56" cy="77.59" r="1.09"/><circle class="cls-2" cx="34.68" cy="75.64" r="1.09"/><circle class="cls-2" cx="33.5" cy="78.72" r="1.09"/><circle class="cls-2" cx="36.44" cy="79.85" r="1.09"/><path class="cls-1" d="m39.9,55.45c.07-.18.18-.34.31-.48.27-.28.6-.46.97-.58.44-.15.9-.2,1.36-.2.31,0,.61-.02.91-.11.15-.04.29-.1.4-.2.16-.14.19-.32.09-.5-.08-.13-.17-.25-.29-.35-.3-.26-.66-.38-1.06-.38-.64,0-1.22.2-1.74.57-.65.47-1,1.11-.99,1.93,0,.1,0,.2.03.3h0Zm.8,2.4c-.1-.05-.18-.11-.26-.17-.52-.41-.92-.91-1.15-1.53-.17-.47-.21-.95-.14-1.44.05-.36.14-.7.28-1.03.11-.26.28-.5.47-.71.72-.83,1.63-1.2,2.72-1.15.67.03,1.25.28,1.77.69.28.22.46.51.54.86.08.37-.04.68-.28.96-.21.26-.5.39-.81.48-.42.12-.85.16-1.29.18-.21.01-.42,0-.64.03-.34.05-.67.16-.94.37-.31.23-.48.55-.53.93-.06.43.02.85.15,1.26.03.09.06.18.09.28Z"/><path class="cls-1" d="m45.56,55.77c-.02.11-.04.2-.08.3-.42,1.16-1.21,1.9-2.42,2.18-.33.08-.67.1-1.01.06-.19-.02-.35-.11-.49-.24-.15-.14-.25-.32-.31-.51-.12-.37-.13-.75-.04-1.13.09-.39.36-.62.75-.71.16-.04.32-.02.49-.04.47-.03.93-.09,1.38-.2.43-.1.83-.26,1.17-.54.19-.16.34-.35.41-.59.04-.15.05-.3.02-.45,0,0,0-.02,0-.03.07.13.11.27.14.41.06.26.07.52,0,.77-.1.35-.32.61-.63.79-.25.15-.52.22-.8.29-.57.15-1.15.24-1.73.19-.28-.02-.46.15-.51.42-.03.17-.03.34,0,.52.02.15.08.29.23.37.07.04.14.06.22.06.6,0,1.15-.15,1.64-.52.24-.18.42-.41.55-.68,0-.02.02-.03.04-.04.39-.12.73-.33.98-.66,0,0,0,0,.02-.01Z"/><path class="cls-2" d="m47.81,37.25c-.43.11-.9.11-1.36,0-1.53-.38-2.47-1.93-2.1-3.47.38-1.53,1.93-2.47,3.47-2.1.74.18,1.37.64,1.77,1.3s.51,1.42.33,2.17c-.26,1.07-1.1,1.85-2.1,2.1Zm-1.18-4.84c-.74.18-1.36.76-1.55,1.55-.28,1.13.42,2.28,1.55,2.56,1.13.28,2.28-.42,2.56-1.55.14-.55.05-1.12-.24-1.6s-.76-.82-1.3-.96c-.34-.08-.69-.08-1.01,0Z"/><path class="cls-2" d="m45.85,45.44c-.44.11-.91.11-1.37,0-1.53-.38-2.47-1.93-2.1-3.47.38-1.53,1.93-2.47,3.47-2.1,1.53.38,2.47,1.93,2.1,3.47h0c-.18.74-.64,1.37-1.3,1.77-.25.15-.52.26-.8.33Zm-1.18-4.84c-.74.18-1.36.76-1.55,1.55-.28,1.13.41,2.28,1.55,2.56.55.14,1.12.05,1.6-.24.48-.29.82-.76.96-1.3h0c.28-1.13-.41-2.28-1.55-2.56-.34-.08-.69-.08-1.01,0Z"/><path class="cls-2" d="m66.79,29.59c.95.23,1.86.74,2.55,1.45,1.05,1.08,1.21,2.43,1.55,3.83.19.78.38,1.56.56,2.34,0,0,1.33,5.88,1.81,7.7s.85,2.83.85,2.83l4,10.71,6.46,17.02s.37,1.02.33,1.78c-.68,3.62-3.54,5.66-7.06,6.1-1.45.18-3.11.22-4.58-.14-.22-.05-.43-.11-.63-.19-3.66-1.26-6.62-4.61-7.5-8.34-.49-2.08-.46-4.35-.56-6.48-.11-2.28-.16-4.55-.16-6.83,0-3.72.2-7.45-.12-11.16-.31-3.67-1.46-7.23-2.29-10.8-.28-1.23-.57-2.46-.85-3.69-.41-1.79.13-3.62,1.39-4.98,1.12-1.21,2.74-1.51,4.25-1.14m.25-1.02h0c-2-.49-3.97.05-5.26,1.45-1.53,1.65-2.13,3.81-1.64,5.92.24,1.04.48,2.08.72,3.12l.13.57c.23.99.48,1.98.73,2.95.65,2.52,1.31,5.13,1.53,7.71.22,2.61.18,5.29.14,7.88-.02,1.04-.03,2.12-.03,3.19,0,2.28.06,4.6.16,6.88.02.43.03.86.05,1.32.06,1.77.12,3.6.54,5.35.48,2.01,1.5,3.93,2.95,5.56,1.47,1.64,3.28,2.86,5.23,3.53.23.08.47.15.72.21,1.4.35,3.07.4,4.96.17,4.27-.53,7.24-3.13,7.96-6.95v-.07s.02-.07.02-.07c.04-.94-.35-2.06-.4-2.18h0s0-.02,0-.02l-6.46-17.01-4-10.7c-.03-.07-.37-1.06-.82-2.74-.47-1.78-1.79-7.6-1.8-7.66h0s0-.01,0-.01l-.28-1.17-.28-1.17c-.05-.2-.09-.39-.14-.59-.29-1.28-.58-2.59-1.68-3.73-.82-.84-1.9-1.46-3.05-1.74"/><circle class="cls-2" cx="79.99" cy="71.44" r="1.09"/><circle class="cls-2" cx="81.18" cy="74.51" r="1.09"/><circle class="cls-2" cx="82.36" cy="77.59" r="1.09"/><circle class="cls-2" cx="78.24" cy="75.64" r="1.09"/><circle class="cls-2" cx="79.42" cy="78.72" r="1.09"/><circle class="cls-2" cx="76.48" cy="79.85" r="1.09"/><path class="cls-1" d="m73.02,55.45c.02-.1.03-.2.03-.3.01-.82-.33-1.46-.99-1.93-.52-.37-1.1-.57-1.74-.57-.4,0-.76.11-1.06.38-.12.1-.21.22-.29.35-.1.18-.07.36.09.5.12.1.26.16.4.2.3.08.6.1.91.11.46,0,.92.06,1.36.2.37.12.7.3.97.58.13.14.24.3.31.48h0Zm-.71,2.12c.13-.41.21-.83.15-1.26-.05-.38-.22-.69-.53-.93-.28-.21-.6-.32-.94-.37-.21-.03-.42-.02-.64-.03-.44-.02-.87-.07-1.29-.18-.31-.09-.59-.22-.81-.48-.23-.28-.36-.59-.28-.96.08-.35.26-.65.54-.86.52-.4,1.1-.66,1.77-.69,1.09-.05,2,.32,2.72,1.15.19.22.35.45.47.71.14.33.24.67.28,1.03.07.49.03.97-.14,1.44-.22.63-.62,1.13-1.15,1.53-.08.06-.16.12-.26.17.03-.1.07-.19.09-.28Z"/><path class="cls-1" d="m67.36,55.77c.02.11.04.2.08.3.42,1.16,1.21,1.9,2.42,2.18.33.08.67.1,1.01.06.19-.02.35-.11.49-.24.15-.14.25-.32.31-.51.12-.37.13-.75.04-1.13-.09-.39-.36-.62-.75-.71-.16-.04-.32-.02-.49-.04-.47-.03-.93-.09-1.38-.2-.43-.1-.83-.26-1.17-.54-.19-.16-.34-.35-.41-.59-.04-.15-.05-.3-.02-.45,0,0,0-.02,0-.03-.07.13-.11.27-.14.41-.06.26-.07.52,0,.77.1.35.32.61.63.79.25.15.52.22.8.29.57.15,1.15.24,1.73.19.28-.02.46.15.51.42.03.17.03.34,0,.52-.02.15-.08.29-.23.37-.07.04-.14.06-.22.06-.6,0-1.15-.15-1.64-.52-.24-.18-.42-.41-.55-.68,0-.02-.02-.03-.04-.04-.39-.12-.73-.33-.98-.66,0,0,0,0-.02-.01Z"/><path class="cls-2" d="m63,35.15c-.18-.74-.07-1.51.33-2.17s1.02-1.12,1.77-1.3c1.53-.38,3.09.56,3.47,2.1.38,1.53-.56,3.09-2.1,3.47-.46.11-.93.11-1.36,0-1-.25-1.84-1.03-2.1-2.1Zm2.27-2.74c-.55.14-1.01.48-1.3.96s-.38,1.05-.24,1.6c.28,1.13,1.43,1.83,2.56,1.55,1.13-.28,1.83-1.43,1.55-2.56-.19-.79-.81-1.37-1.55-1.55-.32-.08-.67-.08-1.01,0Z"/><path class="cls-2" d="m66.26,45.11c-.65-.4-1.12-1.02-1.3-1.77h0c-.38-1.53.56-3.09,2.1-3.47,1.53-.38,3.09.56,3.47,2.1.38,1.53-.56,3.09-2.1,3.47-.46.11-.92.11-1.37,0-.28-.07-.55-.18-.8-.33Zm.98-4.51c-1.13.28-1.83,1.43-1.55,2.56h0c.14.55.48,1.01.96,1.3.48.29,1.05.38,1.6.24,1.13-.28,1.83-1.43,1.55-2.56-.19-.79-.81-1.37-1.55-1.55-.32-.08-.67-.08-1.01,0Z"/></g></svg>