<?xml version="1.0" encoding="UTF-8"?><svg id="Layer_2" xmlns="http://www.w3.org/2000/svg" viewBox="0 0 112.92 112.92"><defs><style>.cls-1{fill-rule:evenodd;}.cls-1,.cls-2,.cls-3{stroke-width:0px;}.cls-3{fill:none;}</style></defs><g id="Layer_2-2"><rect class="cls-3" width="112.92" height="112.92"/><path class="cls-1" d="m40.89,60.73c.08-.18.2-.32.34-.45.28-.26.63-.42,1-.51.45-.11.9-.13,1.36-.11.3.02.6.02.9-.04.15-.03.29-.07.41-.17.16-.13.21-.3.12-.49-.07-.14-.15-.26-.26-.37-.28-.28-.63-.42-1.02-.44-.63-.04-1.22.12-1.75.45-.68.42-1.06,1.03-1.1,1.84,0,.1,0,.2,0,.3h0Zm.63,2.42c-.09-.06-.17-.12-.24-.19-.49-.44-.85-.96-1.03-1.59-.13-.47-.14-.95-.04-1.43.07-.35.19-.68.35-1,.13-.25.31-.47.51-.67.76-.77,1.69-1.07,2.76-.95.66.07,1.22.36,1.7.8.26.23.42.54.47.89.05.37-.09.67-.34.93-.23.24-.52.35-.83.42-.42.09-.85.1-1.28.09-.21,0-.42-.03-.63-.02-.34.03-.67.11-.96.3-.32.21-.51.51-.58.88-.09.42-.04.84.06,1.25.02.09.05.18.07.28Z"/><path class="cls-1" d="m46.46,61.42c-.02.1-.06.2-.1.29-.49,1.12-1.32,1.79-2.54,1.98-.33.05-.67.05-1,0-.19-.03-.34-.14-.46-.27-.14-.15-.22-.33-.27-.52-.09-.37-.08-.75.03-1.11.12-.38.4-.59.79-.65.16-.02.32,0,.48,0,.46,0,.92-.03,1.38-.1.43-.07.83-.2,1.19-.46.2-.14.36-.32.44-.55.05-.14.07-.29.05-.44,0,0,0-.02,0-.03.06.13.09.27.11.41.04.26.03.51-.05.76-.12.34-.36.58-.68.74-.25.13-.53.18-.81.23-.57.11-1.15.16-1.72.07-.28-.04-.46.12-.53.38-.04.17-.05.34-.04.51.01.15.06.29.2.38.06.04.14.07.21.07.59.03,1.15-.07,1.65-.4.25-.16.44-.38.59-.64.01-.02.02-.03.05-.04.39-.09.74-.28,1.01-.59,0,0,0,0,.02-.01Z"/><circle class="cls-2" cx="36.89" cy="71.34" r="1.07"/><circle class="cls-2" cx="35.63" cy="74.34" r="1.07"/><circle class="cls-2" cx="34.37" cy="77.35" r="1.07"/><circle class="cls-2" cx="38.5" cy="75.55" r="1.07"/><circle class="cls-2" cx="37.24" cy="78.55" r="1.07"/><circle class="cls-2" cx="40.11" cy="79.76" r="1.07"/><path class="cls-2" d="m49.29,37.43c-.21.04-.42.05-.63.03-1.47-.1-2.58-1.37-2.48-2.83h0c.1-1.47,1.37-2.58,2.83-2.48,1.47.1,2.58,1.37,2.48,2.83-.08,1.25-1.02,2.24-2.2,2.45Zm-2.53-2.76c-.08,1.14.79,2.13,1.93,2.2,1.14.08,2.13-.79,2.2-1.93.08-1.14-.79-2.13-1.93-2.2-1.14-.08-2.13.79-2.2,1.93h0Z"/><path class="cls-2" d="m48.03,44.62c-.21.04-.42.05-.64.03-1.47-.1-2.58-1.37-2.48-2.83h0c.1-1.47,1.37-2.58,2.83-2.48,1.47.1,2.58,1.37,2.48,2.83-.05.71-.37,1.36-.9,1.83-.37.33-.82.54-1.29.62Zm-2.53-2.76c-.04.55.14,1.09.51,1.5.36.42.87.67,1.42.7.55.04,1.09-.14,1.5-.51.42-.36.67-.87.7-1.42.08-1.14-.79-2.13-1.93-2.2-1.14-.07-2.13.79-2.2,1.93h0Z"/><path class="cls-2" d="m42.77,83.37c-.29.05-.62.07-.98.05-3.18-.14-5.75-.75-5.86-.78-.17-.04-4.24-1.03-5.33-3.47-.43-.97-.35-2.01.25-3.1,1.29-2.45,10.27-23.76,10.79-25,.19-1.07,2.88-16.58,2.89-16.63.17-.99.69-4,3.38-4.78,1.39-.41,2.93-.04,4.03.96.8.73,1.28,1.77,1.34,2.93.02.33,0,.68-.04,1.07-.05.44-.13.87-.21,1.28-.04.23-.09.46-.12.69-.12.74-.26,1.48-.39,2.19-.07.36-.14.73-.2,1.09l-2.08,11.53-1.85,10.96c-.3,1.75-.59,3.51-.88,5.26-.58,3.45-1.18,7.02-1.78,10.53-.05.26-.09.53-.13.81-.27,1.81-.59,4-2.82,4.39Zm5.75-52.79c-.11.02-.22.04-.33.08-1.41.41-2.25,1.67-2.65,3.97,0,.02-2.78,16.01-2.9,16.69v.06s-.03.05-.03.05c-.39.92-9.51,22.58-10.85,25.14-.44.81-.51,1.52-.21,2.19.73,1.64,3.59,2.64,4.62,2.89.03,0,2.6.61,5.67.75,2.08.09,2.39-1.29,2.72-3.56.04-.28.08-.56.13-.84.61-3.5,1.21-7.07,1.78-10.52.29-1.75.59-3.51.88-5.26l1.85-10.97,2.08-11.54c.07-.37.13-.73.2-1.1.13-.71.27-1.45.39-2.17.04-.24.08-.48.13-.72.08-.41.15-.81.19-1.2h0c.04-.33.05-.62.03-.9-.05-.89-.4-1.68-1-2.22-.75-.68-1.76-.98-2.72-.81Z"/><path class="cls-1" d="m72.03,60.73c.02-.1.02-.2,0-.3-.04-.81-.43-1.41-1.1-1.84-.53-.33-1.12-.49-1.75-.45-.39.02-.74.16-1.02.44-.11.11-.2.23-.26.37-.09.19-.05.36.12.49.12.09.27.14.41.17.3.06.6.06.9.04.46-.02.91,0,1.36.11.37.09.71.25,1,.51.14.13.26.28.34.45h0Zm-.55,2.14c.1-.41.15-.83.06-1.25-.08-.37-.27-.67-.58-.88-.29-.19-.61-.28-.96-.3-.21-.02-.42.01-.63.02-.43,0-.86,0-1.28-.09-.31-.07-.6-.18-.83-.42-.25-.26-.39-.56-.34-.93.05-.35.22-.65.47-.89.48-.43,1.04-.72,1.7-.8,1.07-.12,2,.18,2.76.95.2.2.38.42.51.67.16.32.28.65.35,1,.1.48.09.96-.04,1.43-.18.64-.54,1.16-1.03,1.59-.07.07-.15.13-.24.19.03-.1.05-.19.07-.28Z"/><path class="cls-1" d="m66.46,61.42c.02.1.06.2.1.29.49,1.12,1.32,1.79,2.54,1.98.33.05.67.05,1,0,.19-.03.34-.14.46-.27.14-.15.22-.33.27-.52.09-.37.08-.75-.03-1.11-.12-.38-.4-.59-.79-.65-.16-.02-.32,0-.48,0-.46,0-.92-.03-1.38-.1-.43-.07-.83-.2-1.19-.46-.2-.14-.36-.32-.44-.55-.05-.14-.07-.29-.05-.44,0,0,0-.02,0-.03-.06.13-.09.27-.11.41-.04.26-.03.51.05.76.12.34.36.58.68.74.25.13.53.18.81.23.57.11,1.15.16,1.72.07.28-.04.46.12.53.38.04.17.05.34.04.51-.01.15-.06.29-.2.38-.06.04-.14.07-.21.07-.59.03-1.15-.07-1.65-.4-.25-.16-.44-.38-.59-.64-.01-.02-.02-.03-.05-.04-.39-.09-.74-.28-1.01-.59,0,0,0,0-.02-.01Z"/><circle class="cls-2" cx="76.03" cy="71.34" r="1.07"/><circle class="cls-2" cx="77.29" cy="74.34" r="1.07"/><circle class="cls-2" cx="78.55" cy="77.35" r="1.07"/><circle class="cls-2" cx="74.42" cy="75.55" r="1.07"/><circle class="cls-2" cx="75.68" cy="78.55" r="1.07"/><circle class="cls-2" cx="72.81" cy="79.76" r="1.07"/><path class="cls-2" d="m61.43,34.98c-.1-1.47,1.02-2.74,2.48-2.83,1.47-.1,2.74,1.02,2.83,2.48h0c.1,1.47-1.02,2.74-2.48,2.83-.22.01-.43,0-.63-.03-1.18-.21-2.12-1.2-2.2-2.45Zm4.72-.31c-.08-1.14-1.07-2-2.2-1.93-1.14.08-2.01,1.06-1.93,2.2.08,1.14,1.06,2.01,2.2,1.93,1.14-.08,2.01-1.06,1.93-2.2h0Z"/><path class="cls-2" d="m63.6,44c-.54-.47-.86-1.12-.9-1.83-.1-1.47,1.02-2.74,2.48-2.83,1.47-.1,2.74,1.02,2.83,2.48h0c.1,1.47-1.02,2.74-2.48,2.83-.22.01-.43,0-.64-.03-.47-.08-.92-.29-1.29-.62Zm3.82-2.14c-.08-1.14-1.06-2-2.2-1.93-1.14.08-2.01,1.06-1.93,2.2.04.55.29,1.06.7,1.42.42.36.95.55,1.5.51.55-.04,1.06-.29,1.42-.7.36-.42.55-.95.51-1.5h0Z"/><path class="cls-2" d="m67.33,78.97c-.04-.28-.08-.55-.13-.81-.61-3.51-1.21-7.08-1.78-10.53-.29-1.75-.59-3.51-.88-5.26l-1.85-10.96-2.08-11.53c-.07-.36-.13-.73-.2-1.09-.13-.72-.27-1.46-.39-2.19-.04-.23-.08-.46-.12-.69-.08-.42-.16-.84-.21-1.28-.04-.39-.05-.74-.04-1.07.06-1.16.54-2.21,1.34-2.93,1.1-1,2.64-1.37,4.03-.96,2.68.79,3.2,3.79,3.38,4.78,0,.06,2.7,15.56,2.89,16.63.52,1.24,9.5,22.55,10.79,25,.6,1.09.68,2.13.25,3.1-1.09,2.45-5.16,3.43-5.33,3.47-.11.03-2.69.63-5.86.78-.36.02-.69,0-.98-.05-2.23-.39-2.55-2.59-2.82-4.39Zm-5.65-47.59c-.6.54-.95,1.33-1,2.22-.02.27,0,.57.03.9h0c.04.4.12.79.19,1.2.04.24.09.48.13.72.12.72.25,1.46.39,2.17.07.37.14.73.2,1.1l2.08,11.54,1.85,10.97c.3,1.75.59,3.51.88,5.26.58,3.45,1.18,7.02,1.78,10.52.05.28.09.56.13.84.33,2.27.64,3.65,2.72,3.56,3.07-.14,5.64-.74,5.67-.75,1.04-.24,3.89-1.24,4.62-2.89.3-.67.23-1.38-.21-2.19-1.34-2.55-10.46-24.22-10.85-25.14l-.02-.05v-.06c-.13-.68-2.9-16.67-2.91-16.69-.4-2.29-1.24-3.55-2.65-3.97-.11-.03-.22-.06-.33-.08-.95-.17-1.97.13-2.72.81Z"/></g></svg>