<?xml version="1.0" encoding="UTF-8"?><svg id="Layer_2" xmlns="http://www.w3.org/2000/svg" viewBox="0 0 112.92 112.92"><defs><style>.cls-1{fill-rule:evenodd;}.cls-1,.cls-2,.cls-3{stroke-width:0px;}.cls-3{fill:none;}</style></defs><g id="Layer_2-2"><rect class="cls-3" width="112.92" height="112.92"/><path class="cls-1" d="m20.84,60.54c.11-.16.25-.29.4-.4.32-.22.68-.31,1.07-.35.46-.04.91,0,1.36.1.3.06.59.11.9.1.15,0,.3-.03.43-.1.18-.1.25-.27.19-.47-.04-.15-.11-.28-.2-.4-.24-.32-.56-.51-.94-.59-.62-.13-1.22-.07-1.8.17-.73.31-1.21.85-1.38,1.64-.02.1-.04.19-.04.29h0Zm.24,2.49c-.08-.07-.15-.15-.21-.22-.42-.51-.69-1.08-.77-1.73-.06-.49,0-.96.18-1.42.12-.33.29-.64.5-.93.17-.23.38-.42.61-.59.87-.64,1.84-.8,2.88-.51.64.18,1.15.55,1.56,1.05.22.27.33.6.33.95,0,.37-.19.65-.48.87-.26.2-.56.27-.88.29-.43.02-.86-.03-1.28-.11-.21-.04-.41-.1-.62-.11-.34-.03-.68,0-.99.15-.35.16-.58.42-.71.78-.15.4-.17.82-.13,1.25,0,.09.02.19.03.29Z"/><path class="cls-1" d="m26.23,62.08c-.04.1-.09.19-.14.27-.66,1.03-1.59,1.57-2.81,1.57-.34,0-.67-.05-.99-.16-.18-.06-.31-.19-.42-.34-.12-.17-.17-.36-.19-.56-.03-.38.04-.75.21-1.09.18-.36.48-.52.88-.52.16,0,.32.05.48.07.46.07.92.12,1.38.11.43,0,.85-.07,1.25-.27.22-.11.4-.26.52-.48.07-.13.11-.28.11-.43,0,0,0-.02,0-.03.03.14.05.28.05.42,0,.26-.05.51-.17.75-.17.32-.44.51-.78.63-.27.09-.55.1-.83.11-.58.02-1.16-.02-1.71-.19-.27-.08-.48.05-.58.29-.07.16-.1.33-.12.5-.01.15.02.29.14.41.06.05.12.09.2.1.58.13,1.15.11,1.69-.14.27-.12.5-.31.68-.54.01-.02.03-.03.05-.03.4-.03.77-.16,1.09-.43,0,0,0,0,.02,0Z"/><circle class="cls-2" cx="15.24" cy="70.4" r="1.07"/><circle class="cls-2" cx="13.53" cy="73.17" r="1.07"/><circle class="cls-2" cx="11.82" cy="75.95" r="1.07"/><circle class="cls-2" cx="16.18" cy="74.81" r="1.07"/><circle class="cls-2" cx="14.47" cy="77.58" r="1.07"/><circle class="cls-2" cx="17.11" cy="79.21" r="1.07"/><path class="cls-2" d="m32.74,38.82c-.21,0-.42-.02-.63-.07-1.43-.32-2.34-1.75-2.01-3.18h0c.32-1.43,1.75-2.34,3.18-2.01,1.43.32,2.34,1.75,2.01,3.18-.28,1.22-1.35,2.06-2.55,2.08Zm-2.07-3.12c-.25,1.11.45,2.23,1.57,2.48,1.11.25,2.23-.45,2.48-1.57.25-1.11-.45-2.23-1.57-2.48-1.11-.25-2.22.45-2.48,1.57h0Z"/><path class="cls-2" d="m30.38,45.72c-.21,0-.43-.02-.64-.07-1.43-.32-2.34-1.75-2.01-3.18h0c.32-1.43,1.75-2.34,3.18-2.01,1.43.32,2.34,1.75,2.01,3.18-.16.69-.57,1.29-1.18,1.67-.42.26-.89.4-1.37.41Zm-2.07-3.12c-.12.54-.03,1.09.27,1.56.3.47.76.79,1.3.91.54.12,1.09.03,1.56-.27.47-.3.79-.76.91-1.3.25-1.11-.45-2.23-1.57-2.48-1.11-.25-2.22.45-2.48,1.56h0Z"/><path class="cls-2" d="m19.19,83.19c-.3,0-.62-.03-.98-.1-3.12-.63-5.57-1.63-5.67-1.67-.16-.07-4.03-1.67-4.73-4.26-.28-1.02-.03-2.04.72-3.03,1.65-2.22,13.82-21.88,14.53-23.02.35-1.03,5.41-15.93,5.43-15.99.32-.95,1.3-3.84,4.08-4.2,1.43-.19,2.9.42,3.84,1.57.68.84.99,1.95.87,3.11-.03.33-.1.67-.2,1.05-.11.42-.26.84-.4,1.23-.08.22-.16.44-.23.67-.23.71-.48,1.42-.73,2.11-.12.35-.25.7-.37,1.05l-3.84,11.07-3.53,10.54c-.56,1.69-1.13,3.37-1.69,5.06-1.11,3.32-2.25,6.75-3.39,10.13-.09.25-.17.51-.25.79-.54,1.74-1.2,3.86-3.46,3.9Zm13.86-51.26c-.11,0-.22.01-.34.02-1.45.19-2.48,1.3-3.23,3.51,0,.02-5.23,15.39-5.45,16.04l-.02.06-.03.05c-.53.85-12.89,20.84-14.62,23.15-.56.73-.74,1.43-.55,2.13.47,1.74,3.13,3.16,4.12,3.57.03.01,2.47,1.01,5.48,1.62,2.04.41,2.56-.91,3.24-3.1.08-.27.17-.54.26-.81,1.14-3.37,2.29-6.8,3.39-10.12.56-1.69,1.12-3.37,1.69-5.06l3.53-10.55,3.84-11.08c.12-.35.25-.7.37-1.05.24-.68.49-1.39.72-2.09.08-.23.16-.46.24-.69.14-.4.27-.77.38-1.16h0c.09-.32.14-.61.17-.88.09-.89-.14-1.72-.65-2.35-.63-.79-1.59-1.24-2.56-1.22Z"/><path class="cls-1" d="m39.97,60.21c.09-.17.2-.32.35-.45.29-.26.64-.4,1.01-.49.45-.1.9-.11,1.36-.08.3.02.6.03.9-.02.15-.03.29-.07.42-.16.17-.12.21-.3.13-.49-.06-.14-.15-.26-.25-.37-.28-.29-.62-.43-1.01-.46-.63-.05-1.22.09-1.76.41-.69.41-1.08,1.01-1.14,1.81,0,.1,0,.2,0,.3h0Zm.58,2.43c-.09-.06-.17-.13-.24-.19-.48-.45-.83-.97-.99-1.61-.12-.47-.12-.95-.01-1.43.08-.35.2-.68.37-.99.13-.25.32-.47.52-.66.78-.75,1.71-1.04,2.78-.89.66.09,1.21.39,1.68.83.25.24.41.55.46.9.05.37-.1.67-.36.92-.23.23-.52.34-.84.4-.43.08-.85.08-1.28.07-.21,0-.42-.04-.63-.03-.34.02-.67.1-.96.28-.32.2-.52.5-.6.87-.1.42-.05.84.04,1.25.02.09.04.18.07.29Z"/><path class="cls-1" d="m45.52,61.02c-.03.1-.06.2-.1.29-.51,1.11-1.36,1.77-2.58,1.93-.33.04-.67.04-1-.03-.19-.04-.33-.14-.46-.28-.14-.15-.22-.33-.26-.53-.08-.38-.06-.75.06-1.11.13-.38.41-.58.8-.63.16-.02.32,0,.48,0,.46,0,.92,0,1.38-.07.43-.06.84-.18,1.2-.43.2-.14.36-.31.45-.54.05-.14.07-.29.06-.44,0,0,0-.02,0-.03.05.13.08.27.1.41.03.26.02.52-.07.76-.13.34-.37.57-.69.72-.26.12-.53.17-.81.22-.57.1-1.15.13-1.72.04-.28-.05-.47.11-.53.36-.04.17-.06.34-.05.51,0,.15.06.29.19.38.06.04.13.07.21.08.59.05,1.15-.05,1.66-.36.25-.16.45-.37.6-.63.01-.02.02-.03.05-.04.4-.09.74-.26,1.02-.57,0,0,0,0,.02-.01Z"/><circle class="cls-2" cx="35.75" cy="70.73" r="1.07"/><circle class="cls-2" cx="34.43" cy="73.71" r="1.07"/><circle class="cls-2" cx="33.11" cy="76.69" r="1.07"/><circle class="cls-2" cx="37.27" cy="74.98" r="1.07"/><circle class="cls-2" cx="35.95" cy="77.95" r="1.07"/><circle class="cls-2" cx="38.79" cy="79.22" r="1.07"/><path class="cls-2" d="m48.86,37.1c-.21.03-.42.04-.64.02-1.46-.13-2.55-1.42-2.42-2.89h0c.13-1.46,1.42-2.55,2.89-2.42,1.46.13,2.55,1.42,2.42,2.89-.11,1.25-1.07,2.22-2.25,2.4Zm-2.47-2.81c-.1,1.14.75,2.14,1.88,2.24,1.14.1,2.14-.75,2.24-1.88.1-1.14-.75-2.14-1.88-2.24-1.14-.1-2.14.75-2.24,1.88h0Z"/><path class="cls-2" d="m47.44,44.25c-.21.03-.42.04-.64.02-1.46-.13-2.55-1.42-2.42-2.89h0c.13-1.46,1.42-2.55,2.89-2.42,1.46.13,2.55,1.42,2.42,2.89-.06.71-.4,1.35-.94,1.81-.38.32-.83.52-1.3.59Zm-2.47-2.81c-.05.55.12,1.09.48,1.51.36.42.86.68,1.41.73.55.05,1.09-.12,1.51-.48.42-.36.68-.86.73-1.41.1-1.14-.75-2.14-1.88-2.24-1.14-.1-2.14.75-2.24,1.88h0Z"/><path class="cls-2" d="m41.38,82.88c-.29.04-.62.06-.98.03-3.17-.21-5.74-.87-5.85-.9-.17-.04-4.22-1.12-5.26-3.58-.41-.98-.31-2.02.31-3.1,1.34-2.42,10.77-23.54,11.31-24.76.21-1.07,3.23-16.51,3.24-16.57.19-.98.78-3.98,3.48-4.71,1.4-.38,2.93.02,4.01,1.05.78.74,1.24,1.8,1.28,2.96.01.33,0,.68-.06,1.07-.06.43-.15.86-.23,1.28-.05.23-.1.46-.14.69-.13.73-.29,1.47-.44,2.19-.08.36-.15.72-.22,1.09l-2.32,11.49-2.08,10.92c-.33,1.75-.66,3.49-.99,5.24-.65,3.44-1.32,6.99-2.01,10.49-.05.26-.1.53-.14.81-.3,1.8-.67,3.99-2.91,4.33Zm6.86-52.66c-.11.02-.22.04-.33.07-1.42.38-2.28,1.63-2.73,3.91,0,.02-3.12,15.95-3.25,16.63v.06s-.04.05-.04.05c-.41.91-9.98,22.38-11.38,24.9-.46.8-.54,1.51-.26,2.19.7,1.66,3.53,2.72,4.56,2.98.03,0,2.58.67,5.65.87,2.08.14,2.42-1.24,2.8-3.5.05-.28.09-.56.15-.84.68-3.49,1.35-7.05,2-10.48.33-1.75.66-3.49.99-5.24l2.08-10.93,2.32-11.49c.07-.36.15-.73.22-1.09.15-.71.3-1.44.43-2.16.04-.24.09-.48.14-.72.09-.41.17-.8.22-1.2h0c.04-.33.06-.62.05-.9-.03-.89-.37-1.69-.95-2.24-.73-.7-1.74-1.01-2.7-.87Z"/><path class="cls-1" d="m92.08,60.54c0-.1-.02-.2-.04-.29-.17-.79-.64-1.33-1.38-1.64-.58-.25-1.18-.31-1.8-.17-.38.08-.7.27-.94.59-.09.12-.16.26-.2.4-.06.2.01.37.19.47.13.07.28.09.43.1.3.01.6-.04.9-.1.45-.09.9-.14,1.36-.1.38.04.74.13,1.07.35.16.11.3.23.4.4h0Zm-.22,2.2c.03-.42.02-.84-.13-1.25-.13-.35-.37-.62-.71-.78-.32-.15-.65-.18-.99-.15-.21.02-.41.08-.62.11-.42.07-.85.13-1.28.11-.32-.02-.62-.09-.88-.29-.29-.22-.47-.5-.48-.87,0-.35.11-.68.33-.95.41-.5.92-.88,1.56-1.05,1.04-.29,2-.13,2.88.51.23.17.44.36.61.59.21.29.38.6.5.93.17.46.24.93.18,1.42-.08.66-.35,1.23-.77,1.73-.06.08-.13.15-.21.22,0-.1.02-.2.03-.29Z"/><path class="cls-1" d="m86.69,62.08c.04.1.09.19.14.27.66,1.03,1.59,1.57,2.81,1.57.34,0,.67-.05.99-.16.18-.06.31-.19.42-.34.12-.17.17-.36.19-.56.03-.38-.04-.75-.21-1.09-.18-.36-.48-.52-.88-.52-.16,0-.32.05-.48.07-.46.07-.92.12-1.38.11-.43,0-.85-.07-1.25-.27-.22-.11-.4-.26-.52-.48-.07-.13-.11-.28-.11-.43,0,0,0-.02,0-.03-.03.14-.05.28-.05.42,0,.26.05.51.17.75.17.32.44.51.78.63.27.09.55.1.83.11.58.02,1.16-.02,1.71-.19.27-.08.48.05.58.29.07.16.1.33.12.5.01.15-.02.29-.14.41-.06.05-.12.09-.2.1-.58.13-1.15.11-1.69-.14-.27-.12-.5-.31-.68-.54-.01-.02-.03-.03-.05-.03-.4-.03-.77-.16-1.09-.43,0,0,0,0-.02,0Z"/><circle class="cls-2" cx="97.68" cy="70.4" r="1.07"/><circle class="cls-2" cx="99.39" cy="73.17" r="1.07"/><circle class="cls-2" cx="101.1" cy="75.95" r="1.07"/><circle class="cls-2" cx="96.74" cy="74.81" r="1.07"/><circle class="cls-2" cx="98.45" cy="77.58" r="1.07"/><circle class="cls-2" cx="95.8" cy="79.21" r="1.07"/><path class="cls-2" d="m77.63,36.74c-.32-1.43.58-2.86,2.01-3.18,1.43-.32,2.86.58,3.18,2.01h0c.32,1.43-.58,2.86-2.01,3.18-.21.05-.42.07-.63.07-1.2-.02-2.28-.86-2.55-2.08Zm4.62-1.04c-.25-1.11-1.36-1.82-2.48-1.57-1.11.25-1.82,1.36-1.57,2.48.25,1.11,1.36,1.82,2.48,1.57,1.11-.25,1.82-1.36,1.57-2.48h0Z"/><path class="cls-2" d="m81.17,45.31c-.6-.38-1.02-.97-1.18-1.67-.32-1.43.58-2.86,2.01-3.18,1.43-.32,2.86.58,3.18,2.01h0c.32,1.43-.58,2.86-2.01,3.18-.21.05-.43.07-.64.07-.48,0-.95-.15-1.37-.41Zm3.44-2.71c-.25-1.11-1.36-1.82-2.48-1.56-1.11.25-1.82,1.36-1.57,2.48.12.54.45,1,.91,1.3.47.3,1.02.39,1.56.27.54-.12,1-.45,1.3-.91.3-.47.39-1.02.27-1.56h0Z"/><path class="cls-2" d="m90.27,79.29c-.09-.27-.17-.53-.25-.79-1.14-3.37-2.29-6.8-3.39-10.13-.56-1.69-1.12-3.37-1.69-5.06l-3.53-10.54-3.84-11.07c-.12-.35-.24-.7-.37-1.05-.24-.69-.49-1.4-.73-2.11-.07-.22-.15-.44-.23-.67-.14-.4-.29-.81-.4-1.23-.1-.38-.17-.72-.2-1.05-.12-1.16.19-2.26.87-3.11.93-1.16,2.4-1.76,3.84-1.57,2.77.36,3.75,3.25,4.08,4.2.02.05,5.08,14.96,5.43,15.99.71,1.14,12.88,20.8,14.53,23.02.76.98,1,2,.72,3.03-.7,2.59-4.56,4.19-4.73,4.26-.1.04-2.56,1.04-5.67,1.67-.35.07-.68.1-.98.1-2.26-.04-2.92-2.16-3.46-3.9Zm-12.95-46.14c-.51.63-.73,1.46-.65,2.35.03.27.08.56.17.88h0c.1.39.24.76.38,1.16.08.23.16.46.24.69.23.7.48,1.4.72,2.09.12.35.25.7.37,1.05l3.84,11.08,3.53,10.55c.56,1.69,1.13,3.37,1.69,5.06,1.11,3.32,2.25,6.75,3.39,10.12.09.27.18.54.26.81.68,2.19,1.2,3.51,3.24,3.1,3.01-.61,5.46-1.61,5.48-1.62.99-.4,3.65-1.83,4.12-3.57.19-.7.01-1.4-.55-2.13-1.72-2.32-14.09-22.3-14.62-23.15l-.03-.05-.02-.06c-.22-.65-5.44-16.02-5.45-16.04-.75-2.2-1.77-3.32-3.23-3.51-.11-.01-.22-.02-.34-.02-.97-.02-1.92.43-2.56,1.22Z"/><path class="cls-1" d="m72.95,60.21c.01-.1.01-.2,0-.3-.06-.81-.46-1.41-1.14-1.81-.54-.32-1.13-.46-1.76-.41-.39.03-.73.18-1.01.46-.11.11-.19.23-.25.37-.08.19-.04.37.13.49.12.09.27.13.42.16.3.05.6.05.9.02.46-.03.91-.02,1.36.08.37.09.72.23,1.01.49.14.13.26.27.35.45h0Zm-.51,2.15c.09-.42.13-.83.04-1.25-.09-.37-.28-.66-.6-.87-.29-.19-.62-.26-.96-.28-.21-.01-.42.02-.63.03-.43.02-.86.01-1.28-.07-.32-.06-.6-.17-.84-.4-.26-.26-.4-.55-.36-.92.04-.35.2-.66.46-.9.47-.44,1.03-.74,1.68-.83,1.07-.14,2,.14,2.78.89.2.2.39.41.52.66.17.31.29.64.37.99.11.48.11.95-.01,1.43-.17.64-.51,1.17-.99,1.61-.07.07-.15.13-.24.19.02-.1.05-.19.07-.29Z"/><path class="cls-1" d="m67.4,61.02c.03.1.06.2.1.29.51,1.11,1.36,1.77,2.58,1.93.33.04.67.04,1-.03.19-.04.33-.14.46-.28.14-.15.22-.33.26-.53.08-.38.06-.75-.06-1.11-.13-.38-.41-.58-.8-.63-.16-.02-.32,0-.48,0-.46,0-.92,0-1.38-.07-.43-.06-.84-.18-1.2-.43-.2-.14-.36-.31-.45-.54-.05-.14-.07-.29-.06-.44,0,0,0-.02,0-.03-.05.13-.08.27-.1.41-.03.26-.02.52.07.76.13.34.37.57.69.72.26.12.53.17.81.22.57.1,1.15.13,1.72.04.28-.05.47.11.53.36.04.17.06.34.05.51,0,.15-.06.29-.19.38-.06.04-.13.07-.21.08-.59.05-1.15-.05-1.66-.36-.25-.16-.45-.37-.6-.63-.01-.02-.02-.03-.05-.04-.4-.09-.74-.26-1.02-.57,0,0,0,0-.02-.01Z"/><circle class="cls-2" cx="77.17" cy="70.73" r="1.07"/><circle class="cls-2" cx="78.49" cy="73.71" r="1.07"/><circle class="cls-2" cx="79.81" cy="76.69" r="1.07"/><circle class="cls-2" cx="75.65" cy="74.98" r="1.07"/><circle class="cls-2" cx="76.97" cy="77.95" r="1.07"/><circle class="cls-2" cx="74.13" cy="79.22" r="1.07"/><path class="cls-2" d="m61.81,34.7c-.13-1.46.96-2.76,2.42-2.89,1.46-.13,2.76.96,2.89,2.42h0c.13,1.46-.96,2.76-2.42,2.89-.22.02-.43.01-.64-.02-1.19-.18-2.14-1.15-2.25-2.4Zm4.72-.41c-.1-1.14-1.11-1.98-2.24-1.88-1.14.1-1.98,1.11-1.88,2.24.1,1.14,1.11,1.98,2.24,1.88,1.14-.1,1.98-1.11,1.88-2.24h0Z"/><path class="cls-2" d="m64.17,43.66c-.55-.46-.88-1.1-.94-1.81-.13-1.46.96-2.76,2.42-2.89,1.46-.13,2.76.96,2.89,2.42h0c.13,1.46-.96,2.76-2.42,2.89-.22.02-.43.01-.64-.02-.48-.07-.93-.28-1.3-.59Zm3.78-2.22c-.1-1.14-1.11-1.98-2.24-1.88-1.14.1-1.98,1.11-1.88,2.24.05.55.31,1.05.73,1.41.42.36.96.53,1.51.48.55-.05,1.05-.31,1.41-.73.36-.42.52-.96.48-1.51h0Z"/><path class="cls-2" d="m68.63,78.55c-.05-.28-.09-.55-.14-.81-.68-3.49-1.36-7.05-2.01-10.49-.33-1.75-.66-3.49-.99-5.24l-2.08-10.92-2.32-11.49c-.07-.36-.15-.72-.22-1.09-.15-.71-.3-1.45-.44-2.19-.04-.23-.09-.46-.14-.69-.09-.41-.18-.84-.23-1.28-.05-.39-.07-.73-.06-1.07.04-1.17.49-2.22,1.28-2.96,1.08-1.02,2.62-1.42,4.01-1.05,2.7.73,3.28,3.73,3.48,4.71.01.05,3.03,15.5,3.24,16.57.55,1.23,9.98,22.34,11.31,24.76.62,1.08.72,2.12.31,3.1-1.04,2.47-5.08,3.54-5.26,3.58-.11.03-2.67.69-5.85.9-.36.02-.69.01-.98-.03-2.24-.34-2.61-2.53-2.91-4.33Zm-6.65-47.46c-.59.56-.92,1.35-.95,2.24,0,.27,0,.57.05.9h0c.05.4.13.79.22,1.2.05.24.1.48.14.72.13.72.29,1.45.43,2.16.08.36.15.73.22,1.09l2.32,11.49,2.08,10.93c.33,1.75.66,3.49.99,5.24.65,3.44,1.32,6.99,2,10.48.05.28.1.56.15.84.38,2.26.72,3.64,2.8,3.5,3.07-.2,5.63-.86,5.65-.87,1.03-.27,3.86-1.32,4.56-2.98.28-.67.2-1.39-.26-2.19-1.4-2.53-10.97-23.99-11.38-24.9l-.02-.05v-.06c-.14-.68-3.26-16.6-3.26-16.63-.45-2.28-1.31-3.53-2.73-3.91-.11-.03-.22-.05-.33-.07-.96-.15-1.96.17-2.7.87Z"/></g></svg>