<svg version="1.0" xmlns="http://www.w3.org/2000/svg"
 width="60.000000pt" height="60.000000pt" viewBox="0 0 60.000000 60.000000"
 preserveAspectRatio="xMidYMid meet">

<g transform="translate(0.000000,60.000000) scale(0.100000,-0.100000)"
fill="#000000" stroke="none">
<path d="M184 455 c-55 -23 -71 -58 -73 -162 -1 -58 2 -93 8 -93 6 0 13 -11
17 -25 3 -14 13 -25 20 -25 8 0 17 -6 20 -13 6 -17 192 -3 233 17 16 9 47 36
70 62 62 71 58 95 -29 178 -49 46 -79 66 -98 67 -15 1 -52 3 -82 5 -30 1 -69
-3 -86 -11z"/>
</g>
</svg>
