<?xml version="1.0" standalone="no"?>
<!DOCTYPE svg PUBLIC "-//W3C//DTD SVG 20010904//EN"
 "http://www.w3.org/TR/2001/REC-SVG-20010904/DTD/svg10.dtd">
<svg version="1.0" xmlns="http://www.w3.org/2000/svg"
 width="60.000000pt" height="60.000000pt" viewBox="0 0 60.000000 60.000000"
 preserveAspectRatio="xMidYMid meet">

<g transform="translate(0.000000,60.000000) scale(0.100000,-0.100000)"
fill="#000000" stroke="none">
<path d="M204 448 c-77 -81 -73 -74 -79 -170 -5 -82 9 -126 51 -155 23 -16 48
-20 127 -22 62 -1 97 1 97 8 0 6 11 13 25 17 14 3 25 13 25 20 0 8 6 17 13 20
17 6 4 192 -17 232 -8 16 -38 50 -67 76 -73 65 -89 63 -175 -26z"/>
</g>
</svg>
