<?xml version="1.0" encoding="UTF-8"?><svg id="Layer_2" xmlns="http://www.w3.org/2000/svg" viewBox="0 0 106.22 67.56"><defs><style>.cls-1{stroke-width:0px;}</style></defs><g id="Layer_2-2"><path class="cls-1" d="m105.83,67.56l-3.85-2.19C59.04,40.91,27.15,40.32,11.82,40.04c-6.68-.12-9.44-.17-11.02-2.12-.69-.85-.95-1.93-.73-3.04,1.3-6.61,10.34-9.32,20.82-12.45,1.47-.44,2.96-.89,4.45-1.35,6.58-2.05,16.29-7.56,24.08-11.98,5.24-2.97,9.38-5.32,11.77-6.2l.2-.06c18.48-5.25,22.84-2.39,26.99,2.22.28.32.57.64.87.95,2.78,2.87,4.26,7.24,5.58,11.1.59,1.75,1.16,3.4,1.71,4.47,10.95,20.7,9.66,40.74,9.6,41.59l-.32,4.42ZM20.3,34.7c17.02.78,44.82,4.22,80.28,23.51-.26-6.84-1.77-20.43-8.98-34.07-.76-1.47-1.38-3.31-2.05-5.26-1.12-3.3-2.39-7.05-4.3-9.01-.35-.36-.69-.73-1.02-1.1-2.44-2.71-4.75-5.28-21.21-.62-2,.76-6.3,3.2-10.84,5.78-8.03,4.56-18.02,10.23-25.18,12.46-1.51.47-3.03.92-4.51,1.37-6.32,1.89-13.33,3.99-15.94,6.53,1.43.1,3.42.14,5.37.17,2.4.04,5.2.1,8.38.24Z"/></g></svg>