<?xml version="1.0" encoding="UTF-8"?><svg id="Layer_2" xmlns="http://www.w3.org/2000/svg" viewBox="0 0 89.49 64.15"><defs><style>.cls-1{stroke-width:0px;}</style></defs><g id="Layer_2-2"><path class="cls-1" d="m89.45,49.56c-4.15-13.93-8.79-17.78-11.06-20.65-2.27-2.86-4.54-8.5-4.35-12.45.2-3.95-.3-7.11-1.09-8.3-4.07-5.95-6.57-8.17-10-8.17-2.15,0-4.67.87-8.17,2.24-6.72,2.47-18.18,13.34-25.59,19.95-10.37,9.88-20.32,10.67-23.74,12.38C.7,38.13.44,44.39.11,47.16c-.66,3.1,1.84,8.17,1.84,8.17,1.66-.06,3.19-.09,4.62-.09,13.95,0,18.11,2.82,31.1,6.58,6.14,1.78,11.99,2.34,16.84,2.34,6.47,0,11.17-1,12.43-1.45,24.53-10.47,22.49-13.14,22.49-13.14Zm-24.03,9.12c-.81.25-4.86,1.17-10.9,1.17-5.41,0-10.67-.73-15.64-2.17-3.09-.89-5.72-1.75-8.04-2.51-7.56-2.46-13.02-4.24-24.26-4.24-.57,0-1.15,0-1.75.01-.4-1.25-.62-2.39-.51-2.89l.04-.19.02-.19c.03-.25.06-.52.09-.82.27-2.56.67-6.37,3.22-8.56.59-.23,1.57-.52,2.52-.81,4.97-1.48,13.29-3.96,21.88-12.12.92-.82,1.9-1.71,2.93-2.63,6.42-5.8,16.13-14.57,21.23-16.45l.04-.02.04-.02c2.62-1.03,5.1-1.95,6.61-1.95,1.08,0,2.46.48,6.35,6.15.03.09.07.22.11.37-.07,0-.14,0-.22,0-.52.05-1.05.09-1.57.16l-1.53.28c-2,.46-3.94,1.08-5.75,1.92-.91.42-1.83.81-2.68,1.32l-1.3.73-.65.36-.62.41-2.46,1.63-2.32,1.8c-.38.3-.78.59-1.15.91l-1.09.97-2.17,1.94-2.04,2.07c-.67.7-1.38,1.35-2.01,2.09-1.26,1.46-2.57,2.89-3.78,4.38l-3.56,4.55,3.9-4.24c1.33-1.39,2.74-2.69,4.09-4.03.68-.67,1.43-1.26,2.15-1.9l2.17-1.87,2.27-1.72,1.13-.86c.38-.28.79-.52,1.18-.79l2.37-1.55,2.47-1.37.62-.34.64-.29,1.27-.58c.83-.42,1.72-.7,2.58-1.02,1.73-.64,3.52-1.05,5.29-1.31l1.33-.13c.44-.02.87-.02,1.31-.03.17,0,.33.02.49.03,0,.59,0,1.23-.03,1.93-.26,5.12,2.48,11.81,5.27,15.34.38.48.78.95,1.21,1.44,2.17,2.5,5.38,6.2,8.5,15.82-1.77,1.36-6.59,4.39-19.3,9.83Z"/></g></svg>