<?xml version="1.0" encoding="UTF-8"?><svg id="Layer_2" xmlns="http://www.w3.org/2000/svg" viewBox="0 0 226.56 122.46"><defs><style>.cls-1,.cls-2{stroke-width:0px;}.cls-2{fill:none;}</style></defs><g id="Layer_2-2"><rect class="cls-2" width="226.56" height="122.46"/><path class="cls-1" d="m43.4,62.62c.68.62,1.81,1.34,3.67,1.95l-2.62,6.19c-.72-.25-2.46-.89-3.58-1.72-.25-.19-.47-.38-.64-.58l2.6-6.46c.14.18.33.39.57.61Z"/><path class="cls-1" d="m44.79,59.2c.07-.21.46-.31,1.11-.31,2.01,0,6.51.96,11.61,2.56,6.75,2.11,12.01,4.53,11.74,5.4,0,0,0,0,0,0,0,0,0,0,0,.01,0,.02-.02.04-.03.06,0,0,0,0,0,0-.13.16-.5.24-1.07.24-2.01,0-6.51-.96-11.61-2.56-.63-.2-1.25-.4-1.86-.6-4.83-1.61-8.6-3.3-9.62-4.28-.21-.2-.3-.38-.26-.51Z"/><path class="cls-1" d="m44.57,71.63l.34.1,3.23-7.64-.42-.13c-2.26-.68-3.41-1.51-4-2.11l.68-1.69c.25.27.55.48.72.6.59.4,1.46.87,2.58,1.38,2.25,1.03,5.3,2.17,8.6,3.2,5.04,1.57,9.69,2.59,11.84,2.59.17,0,.44,0,.73-.05l-.73,1.98c-2.35-.29-11.55-1.57-17.54-4.72l-.38-.2-3.1,7.72.33.16c.09.04,8.38,3.89,17.79,4.52-.57.74-1.48,1.18-2.45,1.14-9.48-.33-17.07-4.25-20.56-6.4-.77-.47-1.25-1.25-1.37-2.1,1.55.98,3.59,1.61,3.71,1.65Z"/><path class="cls-1" d="m67.85,70.62c.12.01.22.03.31.04-1.2,4.68-1.82,5.73-2,5.95-.17,0-.34-.02-.51-.03-8.35-.48-15.9-3.59-17.55-4.32l2.5-6.23c5.96,2.99,14.65,4.26,17.24,4.59Z"/><path class="cls-1" d="m57.09,85.28l-15.42-6.22.74-1.8c.08.07.17.12.27.16l15.62,6.29.04.02h.04c.11.04,1.1.31,1.87.31.12,0,.22,0,.33-.02-.2.58-.38,1.1-.55,1.58-.63.25-2.03,0-2.95-.32Z"/><path class="cls-1" d="m40.09,82.87l.42-1.02,7.62,3.07.95.38h0l6.92,2.79c.33.11,1.46.47,2.49.47.15,0,.29,0,.43-.03-.35.86-.6,1.35-.75,1.63-.11.2-.34.3-.57.25-3.63-.92-6.74-1.98-9.29-2.99l-.21.58c-.15.41-.54.67-.96.67-.12,0-.23-.02-.35-.06-.53-.19-.8-.78-.61-1.31l.24-.66c-3.28-1.42-5.36-2.66-6.15-3.15-.21-.13-.29-.39-.2-.62Z"/><path class="cls-1" d="m41.37,79.78l15.46,6.24c.33.11,1.46.47,2.48.47.14,0,.28,0,.41-.02-.16.45-.31.85-.45,1.2-.6.29-2.07.03-3.01-.29l-15.46-6.23.56-1.36Z"/><path class="cls-1" d="m42.8,76.34h0c.03-.11.11-.19.23-.19,0,0,.02,0,.03,0,.28.04.56.09.84.13.08.01.16.03.25.04.2.03.39.07.59.1.09.02.17.03.26.05.21.04.41.07.61.11.06.01.12.02.18.03.27.05.53.1.8.16,0,0,0,0,0,0,.26.05.51.11.76.16.05.01.11.02.16.04.21.05.41.09.61.14.05.01.1.02.15.04.23.05.46.11.69.17.01,0,.02,0,.03,0,.25.06.51.13.75.2,0,0,0,0,0,0l.59-1.64c.19-.53.78-.8,1.31-.61.53.19.8.78.61,1.31l-.55,1.52s0,0,0,0c1.07.34,2.09.72,3.07,1.14,0,0,0,0,.01,0,.18.08.36.16.54.24.02,0,.04.02.06.03.17.07.33.15.5.23.02.01.05.02.07.03.17.08.33.16.5.24.02,0,.03.02.05.02.55.27,1.08.55,1.61.85.04.02.08.04.12.07.13.07.26.15.39.23.05.03.11.06.16.1.11.07.23.14.34.21.06.04.12.07.18.11.11.07.22.14.33.21.06.04.12.08.18.11.11.07.23.15.34.23.05.03.1.07.15.1.16.11.33.22.49.33.02.04.04.08.06.11,0,0,0,.01.01.02.02.03.03.07.04.1,0,0,0,0,0,.01,0,.03.01.06.01.08,0,0,0,0,0,0,0,.03,0,.05,0,.07,0,0,0,0,0,0h0s-.01.05-.03.07c0,0,0,0,0,0-.02.04-.06.08-.11.11,0,0,0,0,0,0-.02.01-.05.02-.07.03,0,0,0,0,0,0-.06.02-.12.03-.19.04,0,0-.02,0-.02,0-.03,0-.06,0-.09,0,0,0-.02,0-.03,0-.04,0-.07,0-.11,0-.69,0-1.66-.27-1.66-.27l-15.62-6.29s-.07-.04-.09-.06c0,0,0-.01-.02-.02-.02-.02-.03-.04-.04-.07,0,0,0-.01,0-.02-.01-.03-.02-.06-.02-.09,0,0,0,0,0,0,0-.03,0-.07.01-.1Z"/><path class="cls-1" d="m183.35,62.62c-.68.62-1.81,1.34-3.67,1.95l2.62,6.19c.72-.25,2.46-.89,3.58-1.72.25-.19.47-.38.64-.58l-2.6-6.46c-.14.18-.33.39-.57.61Z"/><path class="cls-1" d="m181.97,59.2c-.07-.21-.46-.31-1.11-.31-2.01,0-6.51.96-11.61,2.56-6.75,2.11-12.01,4.53-11.74,5.4,0,0,0,0,0,0,0,0,0,0,0,.01,0,.02.02.04.03.06,0,0,0,0,0,0,.13.16.5.24,1.07.24,2.01,0,6.51-.96,11.61-2.56.63-.2,1.25-.4,1.86-.6,4.83-1.61,8.6-3.3,9.62-4.28.21-.2.3-.38.26-.51Z"/><path class="cls-1" d="m182.19,71.63l-.34.1-3.23-7.64.42-.13c2.26-.68,3.41-1.51,4-2.11l-.68-1.69c-.25.27-.55.48-.72.6-.59.4-1.46.87-2.58,1.38-2.25,1.03-5.3,2.17-8.6,3.2-5.04,1.57-9.69,2.59-11.84,2.59-.17,0-.44,0-.73-.05l.73,1.98c2.35-.29,11.55-1.57,17.54-4.72l.38-.2,3.1,7.72-.33.16c-.09.04-8.38,3.89-17.79,4.52.57.74,1.48,1.18,2.45,1.14,9.48-.33,17.07-4.25,20.56-6.4.77-.47,1.25-1.25,1.37-2.1-1.55.98-3.59,1.61-3.71,1.65Z"/><path class="cls-1" d="m158.9,70.62c-.12.01-.22.03-.31.04,1.2,4.68,1.82,5.73,2,5.95.17,0,.34-.02.51-.03,8.35-.48,15.9-3.59,17.55-4.32l-2.5-6.23c-5.96,2.99-14.65,4.26-17.24,4.59Z"/><path class="cls-1" d="m171.98,85.92c.38,0,.67-.08.74-.11l3.96-1.04h.01c.31-.09.63-.17.94-.25.06-.02.12-.03.18-.05.28-.07.57-.14.85-.22,0,0,0,0,0,0h0c.41-.1.81-.2,1.21-.3.63-.16,1.25-.31,1.88-.47.28-.07.93-.24,1.4-.68l.44,1.22c.12.32-.05.67-.37.78-.75.25-2.16.72-3.92,1.23l.3.83c.19.53-.08,1.11-.61,1.31-.11.04-.23.06-.35.06-.42,0-.81-.26-.96-.67l-.35-.97c-1.41.37-2.94.74-4.47,1.03-.29.06-.57-.11-.68-.38-.1-.26-.25-.68-.46-1.33.08,0,.17.01.24.01Z"/><path class="cls-1" d="m170.75,82.7s0-.01,0-.02c0-.01,0-.02,0-.03,0,0,0-.01,0-.02,0-.01,0-.02.01-.03,0,0,0-.02.01-.02,0-.01.01-.02.02-.03,0,0,.01-.02.02-.02,0-.01.02-.02.03-.03,0,0,.02-.02.02-.03.01-.01.02-.02.04-.03,0,0,.02-.02.03-.03.01-.01.03-.02.04-.04.01,0,.02-.02.03-.03.02-.01.04-.03.06-.04.02-.01.04-.03.06-.04.02-.01.04-.03.06-.04.02-.01.04-.02.05-.04.02-.01.03-.02.05-.03.02-.01.04-.03.06-.04.02-.01.03-.02.05-.03.02-.01.05-.03.07-.04.02,0,.03-.02.05-.03.03-.01.05-.03.08-.04.02,0,.04-.02.05-.03.03-.02.06-.03.09-.05.02,0,.03-.02.05-.02.03-.02.07-.03.1-.05.01,0,.02-.01.03-.02.24-.11.51-.23.8-.35,0,0,0,0,.01,0,.06-.02.11-.05.17-.07,0,0,.01,0,.02,0,.06-.02.12-.05.18-.07,0,0,.01,0,.02,0,.72-.28,1.57-.56,2.48-.82,0,0,.01,0,.02,0,.16-.05.32-.09.49-.14.16-.04.32-.08.47-.12.02,0,.04-.01.06-.02.15-.04.3-.07.45-.11h0c.1-.02.2-.05.3-.07,0,0,0,0,0,0,.49-.11.96-.21,1.4-.28.02,0,.03,0,.05,0,.07-.01.15-.02.22-.04.02,0,.05,0,.07-.01.07-.01.13-.02.2-.03.03,0,.06,0,.08-.01.06,0,.12-.02.18-.03.03,0,.05,0,.08,0,.1-.01.19-.02.28-.04.04,0,.09-.01.13-.02.04,0,.07,0,.11-.01.04,0,.09,0,.13-.01.03,0,.07,0,.1,0,.05,0,.09,0,.13,0,.03,0,.06,0,.09,0,.05,0,.09,0,.14,0,.02,0,.05,0,.07,0,.07,0,.13,0,.19,0,.56,0,.9.08.95.26,0,.02,0,.05,0,.08h0s-4.59,1.17-4.59,1.17l-1.06.27-.92.25-4.73,1.27h0s0-.03,0-.05Z"/><path class="cls-1" d="m177.73,81.69h0s4.52-1.15,4.52-1.15l.08-.02.51,1.4c-.13.36-.54.62-1.27.8-.62.16-1.25.31-1.87.47-.43.11-.86.21-1.29.32-.63.16-1.27.32-1.9.49l-4.01,1.05s-.57.18-1.03-.03c-.14-.44-.3-.95-.48-1.55l5.62-1.51,1.13-.29Z"/><path class="cls-1" d="m174.9,79.86l-1.35-3.72c-.19-.53.08-1.11.61-1.31.53-.19,1.12.08,1.31.61l1.41,3.88c-.3.07-.61.15-.92.23-.36.1-.71.2-1.06.3Z"/><path class="cls-1" d="m175.54,102.31c-1.76,0-3.5-.28-5.19-.85-5.75-1.93-10.52-6.93-14.18-14.84-1.11-2.44-5.24-12.95-7.94-21.26-.04-.06-.09-.11-.13-.17-.35-.46-.66-.87-1.92-1.23-.93.79-3.37,2.65-6.87,3.66-4.04,1.17-10.25,1.37-17.09-4.2l-8.96.11-8.93-.11c-6.83,5.57-13.05,5.37-17.09,4.2-3.49-1.01-5.94-2.87-6.87-3.66-1.26.36-1.57.77-1.92,1.23-.04.06-.09.11-.13.17-2.7,8.31-6.83,18.82-7.94,21.26-3.66,7.92-8.43,12.92-14.18,14.85-3.04,1.02-6.22,1.13-9.46.31-.07-.02-.14-.03-.18-.05l-.07-.02c-9.62-2.99-11.72-10.54-12.74-14.18-.05-.19-.11-.38-.15-.55-2.24-7.71-1.36-21.31,2.63-40.43,2.96-14.17,6.61-26.27,6.65-26.39l1.81.55c-.14.48-14.44,48-9.28,65.75.05.18.1.37.16.57.99,3.56,2.84,10.18,11.45,12.87.05.01.11.03.18.05,5,1.26,14.44,1.1,21.47-14.11,1.07-2.35,5.28-13.08,7.91-21.22l.06-.17.12-.14c.07-.08.13-.17.19-.25.62-.82,1.31-1.54,3.46-2.05l.51-.12.37.36s2.57,2.45,6.55,3.59c5.28,1.5,10.51.13,15.55-4.08l.27-.22,9.62.11,9.62-.11.27.22c5.03,4.21,10.26,5.58,15.55,4.08,3.98-1.13,6.53-3.56,6.56-3.59l.37-.36.5.12c2.15.51,2.84,1.23,3.46,2.05.06.08.13.17.19.25l.12.14.06.17c2.64,8.13,6.85,18.87,7.92,21.22,7.03,15.21,16.46,15.37,21.46,14.11.07-.02.13-.03.18-.05,8.61-2.69,10.45-9.31,11.45-12.87.06-.2.11-.39.16-.56,5.17-17.76-9.13-65.27-9.28-65.75l1.81-.55c.04.12,3.69,12.22,6.65,26.39,3.99,19.12,4.88,32.73,2.63,40.44-.05.17-.1.35-.15.55-1.01,3.63-3.12,11.19-12.74,14.18l-.07.02s-.11.03-.18.05c-1.44.36-2.86.54-4.27.54Z"/><path class="cls-1" d="m200.32,86.37c-.26,0-.52-.1-.72-.3-.4-.4-.4-1.05,0-1.44,8.59-8.54,2.79-19.01,2.53-19.45-.28-.49-.11-1.11.38-1.39.49-.28,1.11-.11,1.39.38.07.12,6.85,12.26-2.87,21.91-.2.2-.46.3-.72.3Z"/><path class="cls-1" d="m208.42,84.27c-.22,0-.45-.07-.64-.22-.44-.35-.51-1-.16-1.44,4.43-5.52,1.96-11.46,1.85-11.71-.22-.52.01-1.12.53-1.34.52-.22,1.12.01,1.34.53.13.3,3.09,7.3-2.13,13.8-.2.25-.5.38-.8.38Z"/><path class="cls-1" d="m26.24,86.37c.26,0,.52-.1.72-.3.4-.4.4-1.05,0-1.44-8.59-8.54-2.79-19.01-2.53-19.45.28-.49.11-1.11-.38-1.39-.49-.28-1.11-.11-1.39.38-.07.12-6.85,12.26,2.87,21.91.2.2.46.3.72.3Z"/><path class="cls-1" d="m18.15,84.27c.22,0,.45-.07.64-.22.44-.35.51-1,.16-1.44-4.43-5.52-1.96-11.46-1.85-11.71.22-.52-.01-1.12-.53-1.34-.52-.22-1.12.01-1.34.53-.13.3-3.09,7.3,2.13,13.8.2.25.5.38.8.38Z"/></g></svg>