<?xml version="1.0" encoding="UTF-8"?><svg id="Layer_2" xmlns="http://www.w3.org/2000/svg" viewBox="0 0 226.56 90.48"><defs><style>.cls-1,.cls-2{stroke-width:0px;}.cls-2{fill:none;}</style></defs><g id="Layer_2-2"><path class="cls-1" d="m175.54,86.32c-1.76,0-3.5-.28-5.19-.85-5.75-1.93-10.52-6.93-14.18-14.84-1.11-2.44-5.24-12.95-7.94-21.26-.04-.06-.09-.11-.13-.17-.35-.46-.66-.87-1.92-1.23-.93.79-3.37,2.65-6.87,3.66-4.04,1.17-10.25,1.37-17.09-4.2l-8.96.11-8.93-.11c-6.83,5.57-13.05,5.37-17.09,4.2-3.49-1.01-5.94-2.87-6.87-3.66-1.26.36-1.57.77-1.92,1.23-.04.06-.09.11-.13.17-2.7,8.31-6.83,18.82-7.94,21.26-3.66,7.92-8.43,12.92-14.18,14.85-3.04,1.02-6.22,1.13-9.46.31-.07-.02-.14-.03-.18-.05l-.07-.02c-9.62-2.99-11.72-10.54-12.74-14.18-.05-.19-.11-.38-.15-.55-2.24-7.71-1.36-21.31,2.63-40.43,2.96-14.17,6.61-26.27,6.65-26.39l1.81.55c-.14.48-14.44,48-9.28,65.75.05.18.1.37.16.57.99,3.56,2.84,10.18,11.45,12.87.05.01.11.03.18.05,5,1.26,14.44,1.1,21.47-14.11,1.07-2.35,5.28-13.08,7.91-21.22l.06-.17.12-.14c.07-.08.13-.17.19-.25.62-.82,1.31-1.54,3.46-2.05l.51-.12.37.36s2.57,2.45,6.55,3.59c5.28,1.5,10.51.13,15.55-4.08l.27-.22,9.62.11,9.62-.11.27.22c5.03,4.21,10.26,5.58,15.55,4.08,3.98-1.13,6.53-3.56,6.56-3.59l.37-.36.5.12c2.15.51,2.84,1.23,3.46,2.05.06.08.13.17.19.25l.12.14.06.17c2.64,8.13,6.85,18.87,7.92,21.22,7.03,15.21,16.46,15.37,21.46,14.11.07-.02.13-.03.18-.05,8.61-2.69,10.45-9.31,11.45-12.87.06-.2.11-.39.16-.56,5.17-17.76-9.13-65.27-9.28-65.75l1.81-.55c.04.12,3.69,12.22,6.65,26.39,3.99,19.12,4.88,32.73,2.63,40.44-.05.17-.1.35-.15.55-1.01,3.63-3.12,11.19-12.74,14.18l-.07.02s-.11.03-.18.05c-1.44.36-2.86.54-4.27.54Z"/><rect class="cls-2" width="226.56" height="90.48"/></g></svg>