<?xml version="1.0" encoding="UTF-8"?><svg id="Layer_2" xmlns="http://www.w3.org/2000/svg" viewBox="0 0 226.56 90.48"><defs><style>.cls-1,.cls-2{stroke-width:0px;}.cls-2{fill:none;}</style></defs><g id="Layer_2-2"><path class="cls-1" d="m168.49,80.78l-.29-.14c-.26-.13-6.57-3.51-14.99-26.14-.28-.74-.6-1.74-.98-2.89-2.05-6.32-5.85-18.1-13.62-20.37-.31-.09-.58-.21-.87-.35-.93-.43-2.2-1.02-5.9-.46-.73.11-1.37.21-1.98.32-3.66.6-6.08,1-16.59.53-10.5.47-12.93.07-16.59-.53-.61-.1-1.25-.21-1.98-.32-3.7-.56-4.97.03-5.9.46-.29.13-.57.26-.88.35-7.76,2.27-11.56,14.04-13.61,20.37-.37,1.15-.7,2.15-.98,2.9-8.41,22.62-14.72,26-14.98,26.14l-.29.14-10.37-1.73c-1.18.06-8.34-.06-13.14-12l-.03-.08c-.33-1.09-1.65-7.26-2.01-17.63-.3-8.69.05-22.48,3.41-38.86.11-.53.63-.88,1.17-.77.53.11.88.63.77,1.17-6.09,29.7-2.46,52.14-1.46,55.48,4.54,11.23,10.97,10.75,11.24,10.72h.13s.14,0,.14,0l9.8,1.63c1.16-.86,6.65-5.7,13.79-24.91.27-.71.58-1.68.95-2.81,2.16-6.67,6.18-19.09,14.94-21.66.17-.05.37-.14.6-.25,1.09-.5,2.74-1.26,7.02-.62.74.11,1.39.22,2.01.32,3.55.58,5.89.97,16.22.51h.04s.04,0,.04,0c10.34.46,12.68.08,16.22-.51.62-.1,1.27-.21,2.01-.32,4.28-.64,5.93.12,7.02.62.23.11.43.2.6.25,8.77,2.57,12.79,14.99,14.95,21.66.36,1.13.68,2.1.95,2.8,7.13,19.17,12.61,24.04,13.8,24.92l9.93-1.66.14.02c.26.02,6.69.52,11.23-10.72,1-3.33,4.63-25.78-1.46-55.48-.11-.53.23-1.06.77-1.17.53-.11,1.06.23,1.17.77,3.36,16.38,3.71,30.17,3.41,38.86-.36,10.36-1.67,16.54-2.01,17.63l-.03.08c-4.8,11.93-11.96,12.06-13.14,12l-10.37,1.73Z"/><rect class="cls-2" width="226.56" height="90.48"/></g></svg>