<?xml version="1.0" encoding="UTF-8"?><svg id="Layer_2" xmlns="http://www.w3.org/2000/svg" viewBox="0 0 226.56 90.48"><defs><style>.cls-1,.cls-2{stroke-width:0px;}.cls-2{fill:none;}</style></defs><g id="Layer_2-2"><path class="cls-1" d="m188.12,55.7l-1.22-10.85c-.03-.29-.2-.54-.45-.68-.25-.14-.55-.14-.8,0-4.14,2.23-8.42,2.89-10.6,3.08-.23.02-.44.13-.59.32-.15.19-.22.42-.19.66l1.24,11.37c.03.24.14.45.32.6.18.15.41.21.64.18,6.31-.84,9.98-2.97,11.27-3.84.27-.18.41-.5.37-.84Z"/><path class="cls-1" d="m187.95,60.91c0-.12-.02-.25-.03-.39-1.42.77-4,2.02-7.31,3.04-2.72.84-6.23,1.6-10.07,1.6-2.38,0-4.88-.29-7.38-1.04.01.1.03.2.04.29.18,1.28,1.14,2.28,2.37,2.49,11.23,1.95,18.24-1.45,21.04-3.27.9-.59,1.42-1.64,1.34-2.74Z"/><path class="cls-1" d="m173.12,44.52c-.81.11-1.61.2-2.39.28l2.22,19.29c6.95-.58,12.78-3.46,14.87-4.61-.05-.54-.12-1.12-.19-1.74-1.72,1.05-5.35,2.84-11.04,3.59-.08.01-.16.02-.23.02-.4,0-.78-.14-1.1-.4-.38-.31-.62-.75-.67-1.24l-1.24-11.37c-.05-.5.09-.99.39-1.38.31-.39.74-.63,1.23-.67h0c2.11-.18,6.25-.82,10.25-2.97.16-.08.32-.14.49-.17-.14-.95-.25-1.77-.35-2.42-.65.61-1.75,1.19-3.33,1.76-2.35.84-5.51,1.56-8.91,2.03Z"/><path class="cls-1" d="m173,43.57c6.89-.95,12.33-2.89,12.14-4.34-.12-.92-2.48-1.42-5.95-1.42-1.99,0-4.36.17-6.87.51-6.89.95-12.33,2.89-12.14,4.34.12.92,2.48,1.42,5.95,1.42,1.99,0,4.36-.17,6.87-.51Z"/><path class="cls-1" d="m169.8,44.89c-1.29.1-2.53.16-3.68.16-1.8,0-3.33-.13-4.43-.39-.27-.06-.8-.19-1.3-.45.17,1.19.32,2.33.48,3.42.04,0,.08,0,.12,0,.06,0,.12,0,.17,0,.34.04.71.06,1.1.06.62,0,1.17-.05,1.52-.09.06,0,.13-.01.19-.01.84,0,1.54.65,1.63,1.51l1.27,11.39c.05.47-.09.94-.38,1.3-.29.36-.72.57-1.17.6-.19,0-.37.01-.56.01-.72,0-1.34-.07-1.87-.21.04.31.09.61.12.89,3.05.97,6.11,1.23,9.01,1.08l-2.22-19.27Z"/><path class="cls-1" d="m164.68,49.21c-.04-.38-.35-.66-.71-.66-.03,0-.05,0-.08,0-.42.05-.99.1-1.63.1-.38,0-.78-.02-1.19-.06-.03,0-.05,0-.08,0-.42,0-.76.37-.72.81.25,2.66,1,10.04,1.66,11.11.47.77,1.81.93,2.83.93.18,0,.36,0,.51-.01.42-.02.73-.4.68-.83l-1.27-11.39Z"/><path class="cls-1" d="m38.88,55.7l1.22-10.85c.03-.29.2-.54.45-.68.25-.14.55-.14.8,0,4.14,2.23,8.42,2.89,10.6,3.08.23.02.44.13.59.32.15.19.22.42.19.66l-1.24,11.37c-.03.24-.14.45-.32.6-.18.15-.41.21-.64.18-6.31-.84-9.98-2.97-11.27-3.84-.27-.18-.41-.5-.37-.84Z"/><path class="cls-1" d="m39.05,60.91c0-.12.02-.25.03-.39,1.42.77,4,2.02,7.31,3.04,2.72.84,6.23,1.6,10.07,1.6,2.38,0,4.88-.29,7.38-1.04-.01.1-.03.2-.04.29-.18,1.28-1.14,2.28-2.37,2.49-11.23,1.95-18.24-1.45-21.04-3.27-.9-.59-1.42-1.64-1.34-2.74Z"/><path class="cls-1" d="m53.89,44.52c.81.11,1.61.2,2.39.28l-2.22,19.29c-6.95-.58-12.78-3.46-14.87-4.61.05-.54.12-1.12.19-1.74,1.72,1.05,5.35,2.84,11.04,3.59.08.01.16.02.23.02.4,0,.78-.14,1.1-.4.38-.31.62-.75.67-1.24l1.24-11.37c.05-.5-.09-.99-.39-1.38-.31-.39-.74-.63-1.23-.67h0c-2.11-.18-6.25-.82-10.25-2.97-.16-.08-.32-.14-.49-.17.14-.95.25-1.77.35-2.42.65.61,1.75,1.19,3.33,1.76,2.35.84,5.51,1.56,8.91,2.03Z"/><path class="cls-1" d="m54.01,43.57c-6.89-.95-12.33-2.89-12.14-4.34.12-.92,2.48-1.42,5.95-1.42,1.99,0,4.36.17,6.87.51,6.89.95,12.33,2.89,12.14,4.34-.12.92-2.48,1.42-5.95,1.42-1.99,0-4.36-.17-6.87-.51Z"/><path class="cls-1" d="m57.2,44.89c1.29.1,2.53.16,3.68.16,1.8,0,3.33-.13,4.43-.39.27-.06.8-.19,1.3-.45-.17,1.19-.32,2.33-.48,3.42-.04,0-.08,0-.12,0-.06,0-.12,0-.17,0-.34.04-.71.06-1.1.06-.62,0-1.17-.05-1.52-.09-.06,0-.13-.01-.19-.01-.84,0-1.54.65-1.63,1.51l-1.27,11.39c-.05.47.09.94.38,1.3.29.36.72.57,1.17.6.19,0,.37.01.56.01.72,0,1.34-.07,1.87-.21-.04.31-.09.61-.12.89-3.05.97-6.11,1.23-9.01,1.08l2.22-19.27Z"/><path class="cls-1" d="m62.33,49.21c.04-.38.35-.66.71-.66.03,0,.05,0,.08,0,.42.05.99.1,1.63.1.38,0,.78-.02,1.19-.06.03,0,.05,0,.08,0,.42,0,.76.37.72.81-.25,2.66-1,10.04-1.66,11.11-.47.77-1.81.93-2.83.93-.18,0-.36,0-.51-.01-.42-.02-.73-.4-.68-.83l1.27-11.39Z"/><path class="cls-1" d="m168.72,80.78l-.29-.14c-.26-.13-6.57-3.51-14.99-26.14-.28-.74-.6-1.74-.98-2.89-2.05-6.32-5.85-18.1-13.62-20.37-.31-.09-.58-.21-.87-.35-.93-.43-2.2-1.02-5.9-.46-.73.11-1.37.21-1.98.32-3.66.6-6.08,1-16.59.53-10.5.47-12.93.07-16.59-.53-.61-.1-1.25-.21-1.98-.32-3.7-.56-4.97.03-5.9.46-.29.13-.57.26-.88.35-7.76,2.27-11.56,14.04-13.61,20.37-.37,1.15-.7,2.15-.98,2.9-8.41,22.62-14.72,26-14.98,26.14l-.29.14-10.37-1.73c-1.18.06-8.34-.06-13.14-12l-.03-.08c-.33-1.09-1.65-7.26-2.01-17.63-.3-8.69.05-22.48,3.41-38.86.11-.53.63-.88,1.17-.77.53.11.88.63.77,1.17-6.09,29.7-2.46,52.14-1.46,55.48,4.54,11.23,10.97,10.75,11.24,10.72h.13s.14,0,.14,0l9.8,1.63c1.16-.86,6.65-5.7,13.79-24.91.27-.71.58-1.68.95-2.81,2.16-6.67,6.18-19.09,14.94-21.66.17-.05.37-.14.6-.25,1.09-.5,2.74-1.26,7.02-.62.74.11,1.39.22,2.01.32,3.55.58,5.89.97,16.22.51h.04s.04,0,.04,0c10.34.46,12.68.08,16.22-.51.62-.1,1.27-.21,2.01-.32,4.28-.64,5.93.12,7.02.62.23.11.43.2.6.25,8.77,2.57,12.79,14.99,14.95,21.66.36,1.13.68,2.1.95,2.8,7.13,19.17,12.61,24.04,13.8,24.92l9.93-1.66.14.02c.26.02,6.69.52,11.23-10.72,1-3.33,4.63-25.78-1.46-55.48-.11-.53.23-1.06.77-1.17.53-.11,1.06.23,1.17.77,3.36,16.38,3.71,30.17,3.41,38.86-.36,10.36-1.67,16.54-2.01,17.63l-.03.08c-4.8,11.93-11.96,12.06-13.14,12l-10.37,1.73Z"/><path class="cls-1" d="m198.75,68.39c-.27,0-.53-.1-.74-.31-.4-.41-.4-1.06,0-1.47,8.74-8.69,2.83-19.35,2.58-19.8-.28-.5-.11-1.13.39-1.42.5-.28,1.13-.11,1.42.39.07.12,6.97,12.48-2.92,22.3-.2.2-.47.3-.73.3Z"/><path class="cls-1" d="m206.98,66.26c-.23,0-.46-.07-.65-.23-.45-.36-.52-1.01-.16-1.46,4.51-5.62,1.99-11.67,1.88-11.92-.23-.53.02-1.14.54-1.37.53-.23,1.14.01,1.36.54.13.3,3.15,7.43-2.17,14.05-.21.26-.51.39-.81.39Z"/><path class="cls-1" d="m27.82,68.39c.27,0,.53-.1.74-.31.4-.41.4-1.06,0-1.47-8.74-8.69-2.83-19.35-2.58-19.8.28-.5.11-1.13-.39-1.42-.5-.28-1.13-.11-1.42.39-.07.12-6.97,12.48,2.92,22.3.2.2.47.3.73.3Z"/><path class="cls-1" d="m19.58,66.26c.23,0,.46-.07.65-.23.45-.36.52-1.01.16-1.46-4.51-5.62-1.99-11.67-1.88-11.92.23-.53-.02-1.14-.54-1.37-.53-.23-1.14.01-1.36.54-.13.3-3.15,7.43,2.17,14.05.21.26.51.39.81.39Z"/><rect class="cls-2" width="226.56" height="90.48"/></g></svg>