<?xml version="1.0" encoding="UTF-8"?><svg id="Layer_2" xmlns="http://www.w3.org/2000/svg" viewBox="0 0 67.94 67.94"><defs><style>.cls-1{fill:#999;}.cls-1,.cls-2,.cls-3,.cls-4{stroke-width:0px;}.cls-3{fill:none;}.cls-4{fill:#4f4f4f;}</style></defs><g id="Layer_2-2"><path class="cls-2" d="m34.02,67.94c-.71,0-1.42-.02-2.14-.07-9.06-.56-17.35-4.61-23.36-11.41h0C2.51,49.66-.49,40.93.07,31.88.63,22.82,4.68,14.52,11.48,8.52,18.28,2.51,27.01-.49,36.06.07c9.06.56,17.35,4.61,23.36,11.41,6.01,6.8,9.01,15.53,8.45,24.59-.56,9.06-4.61,17.35-11.41,23.36-6.26,5.53-14.16,8.52-22.45,8.52Zm-.09-64.37c-7.41,0-14.48,2.67-20.08,7.62-6.08,5.38-9.71,12.8-10.21,20.9-.5,8.1,2.18,15.92,7.56,22h0c5.38,6.08,12.8,9.71,20.9,10.21,8.1.51,15.92-2.18,22-7.56,6.08-5.38,9.71-12.8,10.21-20.9.5-8.1-2.18-15.92-7.56-22-5.38-6.08-12.8-9.71-20.9-10.21-.64-.04-1.28-.06-1.92-.06Z"/><path class="cls-4" d="m16.37,16.06c.21-.56-.01-1.24-.53-1.55-.4-.24-.89-.23-1.33-.12-.37.09-.73.25-1.06.43-.2.11-.39.25-.56.4,0,0,0,0-.01,0-.35.04-.7.14-1.01.3-.2.11-.4.21-.58.35-.17.14-.35.3-.49.47-.15.18-.27.39-.38.59-.11.21-.17.44-.23.67-.03.17-.02.33.03.49.03.16.09.31.19.45.18.26.53.48.85.52.29.03.59-.01.84-.17.06.14.13.28.21.41.1.14.21.28.34.39.24.2.45.3.74.4.05.02.09.03.14.03.14.02.29.04.43.03.19-.01.38-.05.55-.12.17-.07.34-.15.48-.26.27-.21.41-.37.6-.66.17-.25.26-.55.34-.84.09-.31.12-.61.13-.93.01-.23-.03-.45-.09-.66.17-.18.32-.38.41-.63Z"/><path class="cls-2" d="m57.56,51.96c.05-.82-.04-1.91-.54-2.25-.55-.39-1.28.26-1.72,1.08-.15-.03-.3-.05-.45-.05-.28-.15-.61-.21-.97-.12-.65.16-1.26.99-1.35,1.95-.04.42.05.8.21,1.08-.35.53-.6,1.16-.65,1.85-.07.93.38,1.63,1.04,1.51.42-.08.84-.51,1.1-1.06.11-.1.22-.19.32-.29.21.03.43.05.66,0,.57-.14,1.13-.59,1.57-1.28.45-.7.73-1.57.78-2.42Z"/><path class="cls-2" d="m31.5,62.73c-.14.5-.11,1.04.09,1.51.05.11.1.21.16.31-.05.21-.07.43-.02.65.06.28.16.51.33.74.07.09.14.17.23.25.09.09.19.18.3.25.1.07.21.13.32.19.06.27.24.56.48.7.48.29,1.26.23,1.55-.33.2-.37.3-.76.27-1.16.43.01.87-.05,1.22-.33.36-.28.59-.75.6-1.2,0-.27-.03-.5-.11-.75-.07-.21-.18-.41-.3-.6-.07-.11-.14-.2-.22-.3.05-.06.11-.11.16-.17.17-.2.21-.59.16-.83-.05-.27-.24-.58-.49-.72-.25-.15-.55-.23-.83-.16-.31.08-.51.24-.72.49.25-.29.04-.06-.02,0-.02.02-.04.04-.06.05-.1.05-.2.1-.3.15-.02,0-.03,0-.05.01-.06.01-.15.02-.21.03-.02,0-.04,0-.06,0-.06,0-.12-.01-.19-.02-.03,0-.05,0-.06,0-.06-.01-.12-.02-.19-.04-.08-.01-.16-.03-.24-.03-.29-.01-.58.03-.85.15-.47.22-.82.66-.96,1.15Z"/><path class="cls-1" d="m51.16,22.62c.27,0,.51-.07.72-.24.05.03.1.05.15.08.06.03.12.06.19.09.1.03.23.05.32.06.13.02.28,0,.41-.01.14-.02.26-.08.36-.16.12-.07.22-.16.29-.28.08-.11.13-.23.14-.37.04-.13.04-.26,0-.39-.03-.08-.06-.17-.08-.25-.03-.07-.08-.12-.12-.18-.03-.19-.1-.37-.24-.51-.09-.09-.19-.17-.31-.23-.05-.07-.11-.14-.18-.19-.09-.1-.21-.17-.34-.2-.09-.02-.17-.03-.26-.05-.18-.01-.35.02-.51.1-.08.05-.15.1-.23.15-.12.1-.2.23-.26.37-.25.11-.48.25-.68.42-.11.09-.19.2-.24.33-.07.11-.1.24-.11.38-.01.14,0,.26.06.39.03.13.1.25.19.35.18.19.43.34.7.34Z"/><path class="cls-1" d="m23.2,11.17c-.06.08-.12.17-.15.27-.08.15-.12.31-.12.48,0,.33.11.67.35.9.23.22.55.4.88.39.16,0,.33-.02.48-.06.14-.04.29-.1.42-.16.05-.02.1-.05.15-.09.11-.08.25-.17.36-.28.12-.13.23-.27.32-.42.03,0,.05,0,.08,0,.48-.08.95-.27,1.24-.68.03-.05.06-.11.08-.16.03-.06.05-.12.07-.19.04-.19.05-.39-.01-.58-.06-.19-.15-.35-.29-.5-.1-.11-.22-.2-.34-.27-.33-.17-.67-.23-1.03-.26-.08,0-.18.02-.26.05-.04-.03-.08-.06-.12-.09-.05-.03-.09-.07-.14-.09-.32-.16-.53-.23-.9-.26-.17-.01-.34.02-.49.1-.16.05-.29.13-.41.25-.13.11-.22.24-.27.4-.08.15-.12.31-.12.48,0,.27.08.54.24.76Z"/><path class="cls-4" d="m25.53,18.69s-.02-.03,0,0h0Z"/><path class="cls-4" d="m49.56,16.53c.67.46,1.5.65,2.12.35.17-.08.27-.26.27-.47.21-.21.42-.44.59-.69.26-.38.55-.99.19-1.48-.06-.18-.14-.37-.25-.55-.1-.16-.2-.32-.29-.49-.02-.03-.09-.19-.07-.14-.04-.12-.05-.1-.05-.2,0-.05.05-.12.12-.19.14-.13.3-.23.43-.37.32-.35.5-.91.03-1.4-.73-.78-1.87-.84-2.4-.16-.2.25-.29.59-.27.94-.13,0-.25,0-.37.02-.62.12-1.06.54-1.29,1.12-.22.55-.39,1.28-.2,1.94.19.68.85,1.38,1.43,1.78Z"/><path class="cls-2" d="m13.05,57.14c.41.28.85.53,1.32.7.33,1.44,1.72,2.89,2.71,3.58.97.67,2.06,1.1,3.2,1.38.56.14,1.13.23,1.71.29.07.09.16.17.27.23.59.31,1.18.62,1.77.93.35,1,1.97,1.36,2.38.1.61-1.84.39-4.07-1.35-5.23-.96-.64-1.93-.66-3.02-.42-.86.19-1.59-.33-2.23-.85-.79-.65-1.31-1.59-2.13-2.21-.72-.55-1.69-.64-2.42-.19-.14-.05-.28-.11-.42-.18-.1-.06-.19-.11-.29-.18-.55-.37-1.39-.33-1.79.26-.37.55-.33,1.39.26,1.79Z"/><path class="cls-2" d="m28.87,5.83c.93.83,2.22.94,3.22.18.52-.39.89-.97,1.45-1.32.59-.38,1.29-.19,1.94-.17.6.01,1.39-.08,1.78-.59.53-.68-.39-1.34-.94-1.59-.05-.02-.09-.02-.13-.03-.2-.12-.46-.18-.69-.18-.72.02-1.45.14-2.16.21-.73.07-1.46.14-2.19.22-.66.06-1.39.05-2.01.29-.56.22-.92.73-.99,1.32-.07.64.25,1.25.71,1.67Z"/><path class="cls-2" d="m64.87,38.01c.03-.12.06-.24.1-.35,0-.02.02-.03.02-.05.09-.18.13-.39.08-.59-.05-.18-.19-.37-.35-.46-.08-.04-.17-.07-.26-.09.03-.05.05-.1.08-.15.03-.05.07-.1.1-.16,0-.01.01-.02.02-.03,0,0,.01-.01.02-.02.03-.04.06-.07.1-.11,0,0,.06-.06.09-.08.03-.02.09-.06.09-.07.03-.02.21-.11.08-.05.38-.16.65-.51.54-.94-.1-.36-.56-.69-.94-.54-1.27.52-1.75,1.73-2.05,2.98-.07.29-.14.59-.24.87-.05.15-.07.2-.1.27-.07.14-.14.27-.23.4-.02.02-.05.06-.06.08-.04.05-.09.1-.14.14-.08.07-.15.14-.23.21-.21.12-.42.24-.61.37-.53.37-.91.94-.75,1.61.15.6.65.96.96,1.47.34.55-.13,1.13-.29,1.67-.07.23-.11.47-.13.71-.27.28-.51.6-.61.99-.12.51.05,1.13.48,1.45.5.37,1.11.19,1.52-.21.2-.2.37-.42.62-.55.32-.17.66-.26.93-.52.47-.45.65-1.1.68-1.74.04-.64-.03-1.27.18-1.89.2-.57.51-1.09.77-1.63.44-.92.94-2.67-.47-3Z"/><path class="cls-1" d="m22.26,51.84c.04-.96-.57-1.76-1.38-1.84-.05-.02-.11-.03-.16-.03-.39-.11-.76-.29-1.18-.26-.29.02-.56.11-.78.31-.19.17-.31.42-.34.67-.03.29.06.57.27.77.14.13.32.21.51.24,0,0,0,0,0,0-.04.99.61,1.82,1.45,1.85s1.57-.73,1.61-1.72Z"/><path class="cls-4" d="m14.49,50.14c-.09-.35-.37-.6-.65-.81-.26-.2-.82-.49-.68-.9.1-.3.43-.53.6-.8.21-.35.26-.75.13-1.14-.3-.92-1.22-1.17-1.98-1.58-.2-.11-.4-.24-.54-.43-.13-.18-.14-.39-.24-.58-.2-.4-.62-.56-1.05-.45-.67.17-1,.94-.81,1.57-.11.17-.23.32-.3.44-.22.37-.34.78-.26,1.22.08.43.32.81.59,1.15.28.35.64.67.81,1.09.16.41.15.86.31,1.27.15.38.39.73.7,1,.58.5,1.35.74,2.1.56.68-.16,1.45-.83,1.27-1.61Z"/><path class="cls-4" d="m45.88,57.4c.29-.3.5-.65.58-1.06.06-.33.01-.74-.13-1.05,0,0-.01-.03-.02-.05-.03-.06-.07-.12-.1-.17-.01-.02-.02-.03-.04-.05,0,0-.04-.04-.05-.05-.05-.05-.1-.09-.15-.14-.01,0-.03-.03-.05-.03-.03-.02-.05-.03-.08-.05,0,0-.04-.02-.06-.03-.02,0-.05-.02-.05-.02-.04-.01-.07-.02-.11-.03,0,0,0,0-.01,0,0,0-.02,0-.03,0-.1,0-.19,0-.29,0-.04,0-.08,0-.12,0-.01,0-.01,0-.02,0-.02,0-.04,0-.05,0-.15.02-.29.06-.44.1-.15.05-.3.11-.44.18-.29.14-.47.21-.81.17-.4-.05-.78-.15-1.2-.17-.53-.02-1.07.08-1.55.26-.18.06-.36.14-.53.22-.32.16-.62.34-.94.51-.14.08-.29.15-.44.22-.2.03-.41.02-.61-.06-.33-.12-.51-.35-.9-.36-.74-.02-1.1.67-1.05,1.18.09.9.94,1.4,1.92,1.63.67.23,1.45.3,2.2.35.41.08.82.17,1.2.31.26.1.49.22.71.37.32.22.65.37,1.08.34.86-.07,1.24-.74,1.27-1.36,0-.11-.01-.22,0-.33.07-.03.14-.07.21-.1.29-.15.59-.28.84-.48.1-.08.19-.16.27-.25Z"/><path class="cls-2" d="m6.46,36.92c-.29-.52-.86-.74-1.22-1.2-.61-.78-.53-1.78-.48-2.7.04-.75-.36-1.48-1.17-1.55-.74-.06-1.38.58-1.32,1.32.03.34.27.62.62.62,0,0,0,0,0,0-.33,1.06.1,2.14.72,3.05.34.49.71.96.96,1.5.13.29.27.53.57.67.29.14.63.11.91-.04.61-.33.72-1.1.4-1.67Z"/><path class="cls-1" d="m50.77,48.11c-.05-.3-.26-.6-.6-.55-.33.04-.6.32-.77.58,0,0,0,.01,0,.02-.39.38-.6.87-.92,1.31-.37.5-.94.83-1.54.93-.51.08-1.11-.06-1.54.3-.44.37-.37,1.09.15,1.35.61.31.97-.29,1.51-.42.26-.06.54-.04.79.05.31.12.48.37.73.56.44.34,1.07.18,1.1-.43.04-.64-.12-1.29.15-1.9.27-.63,1.05-1.02.93-1.8Z"/><path class="cls-2" d="m50,60.09c-.05-.07-.11-.11-.13-.2-.01-.1.02-.21.04-.31.08-.37.02-.93-.46-.97-.22-.02-.41.1-.55.26-.15.17-.28.35-.46.49-.34.28-.76.38-1.16.55-.43.19-.75.52-.79,1-.04.43.17.87.54,1.1.28.17.52-.25.27-.43,0,0,0,0,.01,0,.13-.07.18-.2.27-.32.15-.2.41-.31.63-.41.34-.15.72-.34.95-.63.02.15.07.3.2.4.16.12.39.13.55.02.2-.13.22-.38.09-.56Z"/><path class="cls-1" d="m56.71,46.34c-.03-.25-.12-.47-.21-.71-.09-.23-.13-.44-.13-.69,0-.24-.02-.48-.16-.68-.11-.15-.28-.26-.47-.28-.11-.06-.26-.06-.34.08,0,0-.01.02-.02.03-.07.06-.13.14-.17.23-.07.08-.15.15-.23.21-.18.13-.38.24-.52.42-.29.35-.26.89.19,1.09.15.07.35.07.48.17.1.08.12.25.15.37.08.37.28.76.72.72.49-.04.76-.52.71-.97Z"/><path class="cls-4" d="m61.85,24.89c-.04-.09-.09-.16-.14-.23-.07-1.09-.57-2.23-1.1-3.07-.6-.96-1.37-1.73-2.15-2.33-1.04-.79-2.3-1.51-3.2-.47-.38.44-.18,1.26.21,1.69.31.35.68.54,1.04.69.14.06.29.11.43.18.06.03.12.06.17.1-.02,0,.02.03.07.06,0,.01.05.07.08.1,0,.02.02.04.03.06,0,.03.04.18.05.23,0,.05,0,.1.01.15.03.46,0,.92.02,1.38.03.57.12,1.17.34,1.7.26.61.66,1.06,1.11,1.36.98.65,1.94.25,2.8-.18.35-.18.45-.92.23-1.41Z"/><path class="cls-2" d="m21.51,5.96c-.17-.63-.78-1-1.41-.8-.69.22-.96.93-1.35,1.47-.21.3-.45.57-.72.81-.11.1-.23.2-.37.26-.21.09-.4,0-.61-.05-.52-.16-1.3-.16-1.47.5-.2.73.73,1.4,1.26,1.72.3.18.57.35.69.69.11.3.09.62-.06.91-.07.09-.13.18-.16.29-.06.24.05.47.24.61.14.1.31.12.48.09.25-.03.47-.13.68-.27.32-.17.58-.43.76-.77.31-.61.31-1.26.38-1.93.03-.35.1-.71.3-1.01.2-.3.48-.53.73-.79.44-.46.8-1.07.63-1.73Z"/><path class="cls-4" d="m34.82,7.76c-.16-.51-.52-.98-1.11-.95-.72.03-1.01.73-1.08,1.35-.06.5-.16.98-.46,1.4-.33.47-.85.56-1.28.91-1,.81-.49,3,.88,3.06.11,0,.19-.02.26-.06.02,0,.04.01.06.01.42,0,.74-.28,1.01-.58.04-.05.08-.1.13-.15.6-.35,1.13-.8,1.44-1.45.27-.56.35-1.18.34-1.8,0-.56-.03-1.2-.2-1.73Z"/><path class="cls-2" d="m46.52,7.6c-.13-.5-.43-1.23-.04-1.68.43-.49-.29-1.22-.72-.72-.1.12-.19.24-.25.36-.04-.06-.09-.12-.16-.17-.16-.12-.32-.12-.45-.24-.15-.14-.31-.25-.5-.29,0-.22-.15-.46-.37-.49-.68-.09-1.26.2-1.65.75-.12.16-.19.48-.4.54-.22.07-.48-.07-.67-.17-.57-.3-1.15-.55-1.82-.5-.38.03-.79.17-1.05.45,0,0,0,0,0,0-.06.04-.13.09-.18.15-.09.1-.13.18-.18.31,0,.02-.01.04-.02.06-.01.06-.02.12-.02.18,0,.05.01.1.02.14,0,.02-.01.03-.01.06,0,.57.24,1.12.66,1.51.47.43,1.05.54,1.67.53.32,0,.67-.06.98.03.25.08.45.25.63.43.43.43.82.86,1.37,1.13,1.04.51,2.65.67,3.17-.62.23-.57.15-1.18,0-1.77Z"/><path class="cls-1" d="m63.48,31.58c-.15-.21-.3-.41-.42-.63-.14-.26-.24-.54-.34-.82-.08-.24-.15-.48-.23-.71-.08-.22-.24-.48-.51-.4-.11.03-.17.11-.22.2-.08.03-.14.11-.13.22,0,.05.01.11.02.16,0,.03,0,.07,0,.1,0,.11,0,.22.02.34,0,.06-.01.12-.03.17-.06.25-.26.42-.39.63-.26.41-.35.98-.18,1.44.08.2.22.38.44.42.12.03.24,0,.36-.03.08-.02.17-.08.25-.03.11.06.18.27.23.38.09.16.2.33.37.42.39.23.91,0,1.09-.39.25-.51-.02-1.06-.32-1.48Z"/><path class="cls-3" d="m33.97,15.71c-8.04,0-14.9,4.96-17.55,11.91.4.32.62.82.49,1.39-.15.68-.68,1.14-1.3,1.39-.23,1.16-.36,2.35-.36,3.57,0,10.08,8.38,18.26,18.71,18.26s18.71-8.18,18.71-18.26-8.38-18.26-18.71-18.26Z"/><path class="cls-2" d="m14.95,27.18c-.61-.06-1.23-.13-1.73-.52-.24-.19-.46-.47-.51-.78-.02-.12-.02-.24-.01-.36.12-.18.2-.39.2-.59,0-.61-.47-.95-1.02-1.02-1.41-.19-2.78.65-3.53,1.81-.87,1.34-.74,3.05-.11,4.45.31.69.77,1.27,1.27,1.83.39.43.92.93.98,1.55.06.6-.65.86-.99,1.26-.54.64-.71,1.52-.27,2.26.26.42.69.54,1.15.47,1.51-.24,2.77-1.34,3.28-2.76.03-.08.05-.16.08-.25,0-.19-.01-.38-.01-.57,0-2.39.43-4.67,1.23-6.79Z"/><path class="cls-3" d="m33.97,15.71c-8.04,0-14.9,4.96-17.55,11.91-.34.9-.61,1.83-.81,2.78-.23,1.16-.36,2.35-.36,3.57,0,10.08,8.38,18.26,18.71,18.26s18.71-8.18,18.71-18.26-8.38-18.26-18.71-18.26Z"/><path class="cls-1" d="m17.41,22.56c-.12-.16-.28-.25-.45-.34,0-.03.02-.05.02-.08.04-.16,0-.37-.08-.51-.11-.21-.27-.37-.49-.46-.29-.13-.66-.1-.94.04-.24.12-.46.3-.6.53-.07.12-.14.24-.17.37-.02.08-.05.17-.06.26,0,.09,0,.19,0,.28,0,.11.08.24.16.33-.02.03-.04.05-.05.08-.07.12-.05.34,0,.46.06.14.19.28.34.33.15.05.32.06.46,0,.05-.03.09-.05.14-.08.05-.04.09-.09.13-.14,0-.01.02-.02.03-.03,0,0,.02,0,.03.01.13.08.26.17.4.24.09.04.18.06.27.07.27-.45.56-.89.87-1.31,0,0,0-.01-.01-.02Z"/><path class="cls-3" d="m33.97,15.71c-3.81,0-7.36,1.11-10.31,3.02-.03.04-.05.08-.08.12-.02.08-.06.15-.09.23-.1.2-.39.27-.59.21,0,0,0,0-.01,0,0,0-.02,0-.02,0-2.9,2.09-5.16,4.98-6.44,8.34-.34.9-.61,1.83-.81,2.78-.23,1.16-.36,2.35-.36,3.57,0,10.08,8.38,18.26,18.71,18.26s18.71-8.18,18.71-18.26-8.38-18.26-18.71-18.26Z"/><path class="cls-4" d="m24.47,15.92c-.08-.15-.21-.28-.36-.37-.06-.05-.13-.09-.21-.12-.41-.16-.88-.03-1.22.23-.13.1-.23.21-.35.32-.13-.24-.31-.44-.57-.57-.56-.27-1.14-.02-1.59.33-.48.37-.68.96-.53,1.55.13.52.43.95.84,1.29.13.11.27.2.43.28,1.12-.92,2.33-1.74,3.63-2.41.03-.18,0-.37-.08-.54Z"/><path class="cls-3" d="m43.46,18.24c-.22.06-.45.09-.68.07-.16,0-.31-.03-.47-.06-.35.06-.69.07-1.04.05-.11.18-.26.34-.41.44-.11.07-.24.15-.36.18-.13.04-.27.06-.41.08-.12.02-.25.03-.37.02-.29-.02-.54-.06-.8-.23-.22-.15-.43-.4-.54-.7-.08-.23-.16-.45-.2-.7-.04-.26-.07-.52-.07-.79,0-.04,0-.07,0-.11-.05-.11-.08-.23-.11-.35-1.31-.28-2.66-.43-4.05-.43-3.81,0-7.36,1.11-10.31,3.02-.27.18-.54.36-.8.55-2.9,2.09-5.16,4.98-6.44,8.34-.34.9-.61,1.83-.81,2.78-.23,1.16-.36,2.35-.36,3.57,0,10.08,8.38,18.26,18.71,18.26s18.71-8.18,18.71-18.26c0-6.7-3.7-12.56-9.22-15.73Z"/><path class="cls-2" d="m44.73,16c-.08-.39-.29-.71-.49-1.02-.1-.16-.21-.29-.34-.42-.19-.18-.37-.36-.59-.49-.05-.03-.11-.06-.17-.09-.06-.06-.12-.12-.19-.17-.12-.09-.24-.14-.37-.16.06-.54-.04-1.09-.29-1.55-.39-.7-.95-1.1-1.59-1.31-.47-.15-.98-.15-1.47-.13-.62.02-1.17.84-1.09,1.64.05.51.27.9.57,1.15-.29.31-.52.69-.66,1.13,2.37.48,4.58,1.36,6.57,2.57.13-.36.18-.76.1-1.15Z"/><path class="cls-3" d="m52.31,37.61c.24-1.18.37-2.39.37-3.64,0-6.7-3.7-12.56-9.22-15.73-1.67-.96-3.5-1.67-5.44-2.09-1.31-.28-2.66-.43-4.05-.43-3.81,0-7.36,1.11-10.31,3.02-.27.18-.54.36-.8.55-2.9,2.09-5.16,4.98-6.44,8.34-.34.9-.61,1.83-.81,2.78-.23,1.16-.36,2.35-.36,3.57,0,10.08,8.38,18.26,18.71,18.26,8.33,0,15.38-5.31,17.81-12.65-.1-.71.05-1.45.53-1.97Z"/><path class="cls-2" d="m58.81,34.27c-.11-.14-.66-.68-1.04-1.2.04,0,.08-.02.13-.03.12-.05.23-.09.33-.16.2-.15.37-.3.5-.52.09-.15.17-.33.19-.51.02-.12.04-.25.03-.38-.01-.12-.02-.25-.07-.37-.02-.1-.07-.19-.14-.26-.05-.08-.13-.15-.22-.2-.08-.05-.17-.08-.27-.09.46-.9.4-1.98-.07-2.87-.62-1.16-2.39-.13-1.76,1.03.5.93-.52,1.36-1.1,1.85-.86.71-1.26,1.85-1.08,2.95.09.52.33.99.58,1.44.19.33.42.67.29,1.06-.18.54-.62.72-1.11.84-.23,1.56-.66,3.06-1.24,4.48.39.29.87.44,1.43.37,2-.25,3.93-1.97,4.85-3.7.67-1.27.64-2.56-.24-3.73Z"/><path class="cls-3" d="m43.46,18.24c-1.67-.96-3.5-1.67-5.44-2.09-1.31-.28-2.66-.43-4.05-.43-3.81,0-7.36,1.11-10.31,3.02-.27.18-.54.36-.8.55-2.9,2.09-5.16,4.98-6.44,8.34-.34.9-.61,1.83-.81,2.78-.23,1.16-.36,2.35-.36,3.57,0,8,5.28,14.8,12.62,17.26.06-.04.12-.08.16-.12,0,0,.15-.15.12-.11.02-.02.11-.19.09-.13.15-.39.51-.65.94-.54.28.08.53.36.57.66.15.1.26.24.3.42.03.15.03.28.02.42,1.26.26,2.56.4,3.89.4,8.33,0,15.38-5.31,17.81-12.65.21-.64.39-1.3.53-1.97.24-1.18.37-2.39.37-3.64,0-6.7-3.7-12.56-9.22-15.73Z"/><path class="cls-2" d="m25.87,54.3c.4.72,1.34.84,1.81,1.5.09.13.14.25.17.41-.01-.08-.03.13,0,.04,0,.01-.07.2-.04.14-.06.11-.05.09-.16.11-.23.04-.45.12-.65.23-.09.05-.17.12-.23.2-.04.04-.07.08-.1.13-.22.37-.07.82.27,1.05.85.55,1.79.1,2.46-.49.23-.2.42-.43.58-.68.12,0,.24-.03.34-.1.33-.22.58-.52.74-.88.16-.38.32-.79.28-1.21-.05-.46-.23-.85-.53-1.2-1.57-.24-3.08-.66-4.51-1.23-.51.54-.84,1.29-.45,2.01Z"/><path class="cls-3" d="m43.46,18.24c-1.67-.96-3.5-1.67-5.44-2.09-1.31-.28-2.66-.43-4.05-.43-3.81,0-7.36,1.11-10.31,3.02-.27.18-.54.36-.8.55-2.9,2.09-5.16,4.98-6.44,8.34-.34.9-.61,1.83-.81,2.78-.23,1.16-.36,2.35-.36,3.57,0,8,5.28,14.8,12.62,17.26.71.24,1.45.44,2.2.6,1.26.26,2.56.4,3.89.4,8.33,0,15.38-5.31,17.81-12.65.21-.64.39-1.3.53-1.97.24-1.18.37-2.39.37-3.64,0-6.7-3.7-12.56-9.22-15.73Z"/><path class="cls-1" d="m14.82,40.65c-.2-.56-.75-1.03-1.32-1.26-.42-.17-.88-.08-1.26.11-.01,0-.03.02-.04.03-.06.03-.11.06-.16.1-.01,0-.02.02-.03.03-.04.03-.08.06-.11.1-.09.09-.17.19-.21.31-.02.04-.04.08-.06.12-.11.28-.09.59.05.87.15.29.48.49.77.61.17.07.33.07.48.03.04.12.08.25.13.36.3.7.91,1.25,1.69,1.31.39.03.78-.1,1.06-.34.04-.04.08-.07.12-.12-.31-.6-.59-1.23-.84-1.87-.11-.11-.21-.23-.26-.38Z"/><path class="cls-2" d="m36.7,24.52c-1.53-.72-3.11-.77-4.7-.3-2.56.76-4.69,2.21-6.34,4.3-2.09,2.65-2.74,5.63-1.77,8.91.12.4.26.8.47,1.17.08-.82.32-1.57.7-2.29.76-1.46,1.9-2.56,3.25-3.46,1.62-1.09,3.4-1.82,5.26-2.39,1.23-.37,2.43-.8,3.53-1.47.55-.33,1.05-.71,1.4-1.26.48-.74.39-1.51-.23-2.12-.46-.46-.99-.81-1.57-1.09Z"/><path class="cls-3" d="m27.6,41.42c-.22-1.59.11-3.04,1.07-4.34.88-1.18,2.05-1.98,3.38-2.57.81-.37,1.69-.55,2.53-.84,1.73-.59,3.41-1.26,4.98-2.22,1.16-.71,2.14-1.58,2.71-2.86.62-1.41.75-2.8,0-4.19-.71-1.32-1.8-2.3-3.16-2.86-2.55-1.04-5.19-1.38-7.92-.74-4.45,1.06-7.7,3.59-9.65,7.75-.51,1.09-.91,2.22-1.06,3.41-.19,1.49-.18,2.98.04,4.47.3,2.05,1,3.94,2.21,5.63,1.63,2.28,3.8,3.83,6.38,4.87.39.16.79.3,1.24.4-.25-.36-.48-.69-.7-1.02-.98-1.51-1.79-3.09-2.04-4.9Z"/><path class="cls-2" d="m43.46,18.24c-1.67-.96-3.5-1.67-5.44-2.09-1.31-.28-2.66-.43-4.05-.43-3.81,0-7.36,1.11-10.31,3.02-.27.18-.54.36-.8.55-2.9,2.09-5.16,4.98-6.44,8.34-.34.9-.61,1.83-.81,2.78-.23,1.16-.36,2.35-.36,3.57,0,8,5.28,14.8,12.62,17.26.71.24,1.45.44,2.2.6,1.26.26,2.56.4,3.89.4,8.33,0,15.38-5.31,17.81-12.65.21-.64.39-1.3.53-1.97.24-1.18.37-2.39.37-3.64,0-6.7-3.7-12.56-9.22-15.73Zm-14.37,28.71c-2.57-1.03-4.75-2.59-6.38-4.87-1.21-1.69-1.91-3.58-2.21-5.63-.22-1.49-.23-2.98-.04-4.47.15-1.19.55-2.32,1.06-3.41,1.94-4.16,5.2-6.7,9.65-7.75,2.73-.65,5.37-.3,7.92.74,1.36.55,2.45,1.53,3.16,2.86.75,1.39.62,2.79,0,4.19-.57,1.28-1.55,2.15-2.71,2.86-1.56.96-3.25,1.63-4.98,2.22-.84.29-1.72.47-2.53.84-1.33.6-2.5,1.39-3.38,2.57-.96,1.29-1.29,2.75-1.07,4.34.25,1.81,1.06,3.4,2.04,4.9.22.34.45.66.7,1.02-.45-.1-.85-.25-1.24-.4Zm18.47-12.26c-.34,5.16-2.7,9.05-7.27,11.54-1.25.68-2.59,1.16-3.99,1.4-.79.14-1.53-.06-2.24-.42-.77-.39-1.36-.98-1.83-1.7-.89-1.36-1.39-2.87-1.46-4.48-.07-1.69.74-2.92,2.21-3.72.6-.33,1.28-.47,1.92-.7,1.84-.67,3.64-1.43,5.35-2.38,1.6-.89,3.03-2,4.09-3.53.59-.85.96-1.79.96-2.84,0-.64-.14-1.25-.44-1.82-.02-.03-.04-.07-.04-.11.41.45.74.95,1.03,1.48.53.97.87,2,.89,3.12.02,1.54-.6,2.81-1.64,3.91-.83.88-1.85,1.48-2.88,2.08-2.12,1.25-4.35,2.26-6.76,2.76-1.17.24-1.68,1.14-1.56,2.25.08.72.28,1.42.58,2.08.27.59.67,1.06,1.33,1.23.32.08.64.07.95-.02,2.4-.71,4.47-1.93,6-3.96.76-1.01,1.22-2.15,1.43-3.39.02-.1.05-.16.13-.21,1.44-.94,2.55-2.17,3.17-3.79,0-.02.02-.03.05-.07.05.45.06.87.03,1.29Z"/></g></svg>