<?xml version="1.0" encoding="UTF-8"?><svg id="Layer_2" xmlns="http://www.w3.org/2000/svg" viewBox="0 0 67.94 67.94"><defs><style>.cls-1{stroke-width:0px;}</style></defs><g id="Layer_2-2"><path class="cls-1" d="m33.97,67.94C15.24,67.94,0,52.7,0,33.97S15.24,0,33.97,0s33.97,15.24,33.97,33.97-15.24,33.97-33.97,33.97Zm0-64.36C17.21,3.58,3.58,17.21,3.58,33.97s13.63,30.39,30.39,30.39,30.39-13.63,30.39-30.39S50.73,3.58,33.97,3.58Z"/><path class="cls-1" d="m33.87,39.84c-.07-.14-.17-.27-.29-.39.07-.09.13-.17.19-.26.36-.56.14-1.43-.46-1.75-.63-.33-1.36-.14-1.74.45-.08.09-.17.18-.26.26-.05.03-.1.06-.15.09-.23.07-.46.12-.68.19-.54.16-.97.45-1.3.92-.3.43-.41,1.04-.22,1.54.16.42.43.77.76,1.08.59.56,1.31.97,2.13.99.8.02,1.56-.43,1.96-1.12.19-.34.33-.77.3-1.16-.02-.32-.08-.56-.22-.84Z"/><path class="cls-1" d="m35.89,60.14c.06-.16.08-.32.06-.49,0-.17-.03-.32-.11-.47-.14-.29-.43-.57-.74-.66-.31-.09-.67-.1-.96.05-.09.06-.19.12-.28.18-.11.09-.19.2-.26.31-.02.05-.06.09-.09.13-.08-.09-.16-.18-.25-.24-.28-.17-.63-.28-.96-.2-.32.08-.64.25-.82.53-.11.17-.22.35-.33.52-.17.27-.28.63-.2.96.07.31.24.66.53.82.42.23.84.39,1.33.42.35.02.71,0,1.05-.11.22-.07.43-.13.63-.24.2-.11.39-.23.57-.38.18-.15.34-.33.48-.51.15-.19.24-.41.34-.62Z"/><path class="cls-1" d="m31.91,10.15c-.11-.42-.4-.77-.76-1.01.32-.59.44-1.27.23-1.95-.28-.92-1.25-1.51-2.2-1.25-.73.2-1.26.89-1.31,1.63-.23.22-.44.44-.63.7-.45.63-.62,1.47-.39,2.22.49,1.62,2.24,2.36,3.8,1.86.92-.29,1.51-1.24,1.25-2.2Z"/><path class="cls-1" d="m45.12,22.63c-.09-.45-.35-.86-.79-1.16.02-.07.04-.14.06-.21.03-.11.03-.23.02-.35.19-.13.37-.28.5-.47.4-.59.18-1.37-.33-1.81-.83-.71-1.93-.65-2.95-.48-.21.02-.41.05-.6.1-.23-.2-.52-.35-.86-.42-2.19-.46-3.84,1-3.4,2.77.37,1.49,1.99,2.66,3.76,2.6.03.05.06.09.09.13.02.02.03.04.05.06.07.08.15.16.23.23.04.04.08.07.13.1.11.08.23.16.36.22.13.06.27.11.41.16.06.02.11.03.17.04.14.04.27.05.41.03.12.04.25.07.37.09.32.05.57.06.88.02.41-.05.84-.25,1.09-.51.3-.32.48-.72.4-1.15Z"/><path class="cls-1" d="m48.97,9.24c-.17-.54-.79-1.01-1.38-.78-.49.18-.88.47-1.14.93-.06.1-.11.2-.15.31-.18-.11-.37-.18-.59-.17-.1.01-.2.03-.3.04-.19.05-.36.15-.5.29-.15.19-.29.37-.39.59-.04.09-.08.19-.12.28-.34-.04-.68-.02-1.03.03-.26.04-.55.3-.67.52-.14.24-.2.6-.11.86.09.27.26.53.52.67.29.15.55.16.86.11-.38.05-.07.02.01.02.03,0,.06,0,.08,0,.11.03.22.05.32.08.02,0,.03.02.05.02.05.03.12.09.18.12.01.01.03.03.04.04.05.04.09.09.13.14.02.02.03.04.04.05.04.05.08.1.12.15.05.06.1.13.16.19.21.2.46.36.74.45.5.15,1.05.05,1.49-.23.44-.28.77-.7.93-1.2.14-.43.14-.89.11-1.34-.02-.19-.04-.39-.04-.58,0-.05,0-.11,0-.16,0,0,0-.01,0-.02,0-.03.02-.07.03-.1.2-.1.36-.23.48-.43.14-.24.2-.6.11-.86Z"/><path class="cls-1" d="m60,39.21c-.21-.26-.48-.45-.79-.57-.31-.15-.63-.21-.96-.19-.09,0-.18-.01-.27,0,0-.17-.01-.34-.04-.5-.06-.38-.28-.68-.58-.85,0-.24-.01-.48-.06-.72-.12-.57-.6-1.09-1.24-.99-.55.09-1.12.62-.99,1.24.03.13.05.26.06.39,0,0,0,.04,0,.07,0,.02,0,.04,0,.07,0,.12-.03.23-.05.35,0,.05-.02.09-.03.14-.01.04-.03.08-.04.11-.06.17-.14.4-.25.57-.01.01-.02.03-.03.04-.04.06-.07.11-.11.17-.09.12-.18.25-.27.36-.15.19-.32.37-.49.55,0,0,0,0,0,0-.05.04-.09.09-.14.13-.15.14-.3.28-.45.43-.5.51-.85,1.24-.71,1.97.15.77.63,1.33,1.31,1.7.66.35,1.41.35,2.11.14.31-.09.61-.25.89-.42.14.1.28.18.45.24.31.15.63.21.96.19.34.04.67-.02,1-.16.2-.11.4-.22.6-.33.36-.27.63-.61.81-1.03.06-.21.12-.42.18-.63.07-.46.02-.9-.15-1.33l-.12-.31c-.12-.33-.31-.61-.57-.83Z"/><path class="cls-1" d="m10.89,18.8c-.52-.24-1.2-.23-1.83,0-.04-.08-.09-.15-.15-.21-.63-.68-1.72-.47-2.58.22-1.24,1-1.93,2.55-1.72,3.86.06.4.21.75.42,1.06-.3.17-.59.41-.82.74-.59.84-.55,2.07.28,2.41,1.41.57,3.33-.43,4.32-1.93.54.13,1.19.03,1.86-.31,1.34-.69,2.16-2.31,2.04-3.56-.11-1.12-.86-1.84-1.81-2.27Z"/><path class="cls-1" d="m40.78,31.65c.07-.04.14-.08.2-.15.11-.08.19-.19.25-.32.1-.24.14-.53.04-.78-.1-.24-.27-.48-.52-.58-.12-.05-.25-.09-.38-.12-.12-.02-.25-.02-.37-.02-.05,0-.09,0-.14.01-.11.02-.24.04-.35.08-.13.05-.26.12-.37.2-.02,0-.04-.02-.06-.02-.38-.1-.8-.12-1.14.09-.04.03-.08.06-.11.09-.04.04-.08.07-.11.12-.09.13-.16.27-.18.43-.02.16,0,.31.05.47.03.11.09.22.16.32.18.24.42.39.68.54.06.03.14.05.21.05.02.04.04.07.06.11.02.04.05.08.07.12.19.23.32.34.57.49.12.07.26.1.39.09.13.02.26,0,.39-.05.13-.04.24-.11.33-.21.11-.08.19-.19.25-.32.08-.2.12-.43.08-.64Z"/><path class="cls-1" d="m31.68,51.35s0,.03,0,0h0Z"/><path class="cls-1" d="m31.13,52.63c-.09-.48-.4-.93-.84-1.26-.07-.05-.16-.08-.26-.1-.04-.19-.17-.36-.37-.47,0,0,0,0,0-.01-.12-.16-.4-.27-.63-.2-.09.03-.17.06-.24.09-.41.05-.81.22-1.1.42-.09.06-.16.12-.24.19-.04.03-.07.06-.11.09-.02.01-.04.03-.06.04,0,0-.04.03-.06.04-.01,0-.03.01-.04.02-.03,0-.13.02-.05.01-.16,0-.32,0-.48.04-.35.06-.63.28-.72.55-.04.14-.03.3.02.44.02.07.04.13.08.2.22.34.7.53,1.16.55.17,0,.35,0,.52-.01-.07.23-.07.46.06.7.26.5.92.67,1.55.7.67.03,1.25-.24,1.56-.71.27-.41.33-.86.25-1.32Z"/><path class="cls-1" d="m49.64,30.79s-.01,0-.02-.01c0,0,0,0,0,0,0,0,0,0,.01,0Z"/><path class="cls-1" d="m51.58,30.9c-.08-.08-.19-.12-.31-.14-.18-.12-.4-.19-.62-.17-.09,0-.19.02-.28.05-.09.03-.17.06-.25.1-.08.04-.16.08-.24.13-.06-.03-.12-.06-.19-.08,0,0-.03,0-.04-.01.01,0,.02.01.02.02-.01,0-.02-.01-.03-.02,0,0,0,0,0,0,0,0,0,0,0,0,0,0,0,0,0,0,0,0-.01,0-.02-.01,0,0,0,0,0,0,0,0,.02,0,.02.01-.02-.02-.03-.03-.05-.05-.02-.03-.04-.06-.06-.09-.05-.08-.08-.16-.12-.24-.01-.03-.03-.06-.04-.1-.05-.13-.11-.27-.17-.4-.1-.2-.22-.39-.37-.55-.04-.04-.08-.07-.12-.1-.14-.16-.3-.31-.49-.43-.53-.31-1.19-.32-1.73-.04-.33.17-.54.46-.68.8-.13.33-.11.69-.05,1.03.1.61.44,1.14.95,1.48,0,0,0,0,0,0,.02.02.03.03.05.05.06.05.13.08.2.1.15.1.32.18.52.17.01,0,.02,0,.03,0,.18.03.37.04.55.02.04.04.08.08.13.12,0,.11.04.23.14.3.38.31.82.47,1.31.5.4.03.82-.04,1.19-.19.46-.18.84-.48,1.02-.95.17-.44.08-.97-.25-1.31Z"/><path class="cls-1" d="m10.39,37.64c-.19-.6-.65-1.13-1.28-1.27-.17-.04-.36.02-.48.13-.28.02-.57.04-.85.1-.42.09-1.01.29-1.05.75-.07.14-.13.28-.16.44-.03.14-.06.29-.1.43,0,.02-.06.15-.04.12-.05.09-.03.08-.09.14-.03.03-.11.04-.2.04-.18,0-.36-.02-.54,0-.45.04-.91.27-.89.79.03.81.8,1.43,1.59,1.31.29-.04.57-.19.78-.4.09.07.17.13.27.18.51.25,1.09.23,1.6.01.5-.21,1.07-.53,1.35-1.01.29-.49.26-1.22.1-1.74Z"/><path class="cls-1" d="m52.58,18.9s-.04.06,0,0c0,0,0,0,0,0,0,0,0,0,0,0h0Z"/><path class="cls-1" d="m53.8,18.07c-.15-.15-.33-.18-.5-.12-.06-.1-.12-.19-.18-.28-.17-.22-.44-.33-.7-.18-.22.13-.35.48-.18.7.09.12.17.23.24.36,0,.02.09.19.06.12.01.03.02.07.03.1,0,0,.01.06.02.08,0,.02,0,.04,0,.05,0,0,0,0,0,0,0,0,0,0,0,0,0,0,0,0,0,0,0,0,0,0,0,0,0,0,0,0,0,.01,0,0,0,0,0,.01,0,0,0,0,0,0-.1.1-.21.18-.31.29-.49.5-.69,1.23-.37,1.87.15.29.43.54.75.63.41.11.86-.08.99-.5.05-.18.03-.34-.03-.5.02,0,.04,0,.06,0,.14,0,.27.01.41-.02.39-.08.64-.45.61-.84-.06-.67-.4-1.31-.87-1.79Z"/><path class="cls-1" d="m63.8,25.91c-.23-.21-.44-.4-.64-.61.77-.53.68-1.78.38-2.54-.25-.65-.66-1.14-1.19-1.51.02-.3-.11-.53-.3-.69.17-.22.25-.51.13-.83-.26-.68-.52-1.36-.78-2.03-.2-.52-.69-.87-1.26-.71-.49.14-.91.74-.71,1.26.03.09.07.17.1.26-.35.25-.72.5-.95.86-.32.49-.26,1.13-.17,1.68.06.36.19.73.36,1.06.1.24.38.65.38.87,0-.03,0-.02-.03.04-.11.23-.35.42-.49.64-.46.76-.6,1.68-.44,2.55.29,1.59,1.89,3.05,3.56,2.79.22-.03.44-.1.63-.2.05-.03.34-.2.46-.33.01,0,.03,0,.04,0,.2,0,.4,0,.6-.06,1.19-.35,1.11-1.77.33-2.48Z"/><path class="cls-1" d="m19.16,58.43c-.15-1.23-1.05-2.17-2.3-2.27-.65-.05-1.31.14-1.96.03-.69-.11-1.09-.71-1.57-1.16-.44-.41-1.09-.86-1.73-.74-.85.16-.6,1.26-.35,1.81.02.05.05.07.08.11.07.23.22.44.4.59.55.46,1.17.86,1.76,1.28.59.43,1.19.86,1.78,1.29.53.39,1.07.88,1.7,1.11.56.21,1.17.07,1.61-.34.47-.43.64-1.1.57-1.72Z"/><path class="cls-1" d="m56.62,53.46c.48-.25.28-1.15-.38-1.12-1.42.07-2.76.88-3.55,2.05-.13.14-.24.28-.35.43-.28.38-.63.84-.68,1.32-.02.17.01.33.07.47-.26.28-.68.46-.97.64-.83.5-1.83.95-2.36,1.8-.14.22-.19.51-.01.73.63.77,1.61.48,2.37.1.8-.4,1.57-.88,2.28-1.43,1.45-1.12,2.64-2.51,3.55-4.1.07-.12.06-.29,0-.44.07-.14.08-.31.03-.45Z"/><path class="cls-1" d="m22.98,6.15c-.13-.61-.7-.88-1.28-.85-.28.01-.55.07-.83,0-.35-.09-.67-.24-1.04-.23-.65.03-1.22.4-1.66.85-.45.46-.81.97-1.38,1.3-.52.3-1.1.48-1.66.71-.95.41-2.51,1.4-1.61,2.59.42.56,1.15.66,1.78.82.73.18,1.47.41,2.21.5.64.08,1.31-.1,1.63-.71.29-.55.15-1.15.25-1.74.11-.63.85-.76,1.32-1.06.2-.13.39-.28.56-.44.39-.03.78-.11,1.11-.34.43-.3.71-.87.6-1.4Z"/><path class="cls-1" d="m30.78,25.47s-.06-.02-.09-.03c0-.15,0-.29-.02-.44-.03-.26-.21-.53-.51-.51-.55.03-.72.45-.83.91-.06.04-.1.09-.14.15-.91.07-1.62.72-1.62,1.52,0,.31.11.6.3.84.04.08.09.16.16.22.08.07.17.12.26.16.3.19.67.31,1.07.31.51,0,.97-.19,1.3-.49.33-.18.6-.45.75-.83.26-.68-.04-1.43-.63-1.82Z"/><circle class="cls-1" cx="7.92" cy="38.57" r="2.3"/><path class="cls-1" d="m20.43,29.75c-.33-.31-.73-.48-1.18-.5,0,0,0,0,0,0-.03-.09-.07-.18-.1-.27-.04-.1-.08-.22-.14-.32-.09-.15-.24-.33-.33-.44-.15-.18-.35-.32-.54-.44-.2-.13-.41-.2-.65-.21-.23-.05-.46-.04-.69.03-.23.05-.42.16-.59.31-.19.12-.34.29-.45.49-.06.14-.12.28-.18.42-.03.12-.04.24-.05.36-.07.11-.12.23-.17.35-.34.44-.55.98-.55,1.58,0,1.44,1.17,2.61,2.61,2.61.84,0,1.57-.4,2.05-1.02.14-.02.27-.06.4-.13.22-.07.4-.19.56-.36.17-.16.29-.34.36-.56.11-.21.16-.43.15-.67-.02-.45-.17-.92-.51-1.23Z"/><path class="cls-1" d="m46.04,41.19c-.09-.32-.31-.63-.61-.79-.04-.02-.09-.03-.14-.05-.08-.18-.25-.34-.46-.32-.01,0-.02,0-.04,0-.08-.02-.16-.02-.25,0-.41,0-.81-.09-1.21.04-.27.09-.52.25-.68.49,0,.01-.01.02-.02.03-.45.31-.75.88-.75,1.53,0,.99.69,1.79,1.53,1.79.56,0,1.05-.36,1.31-.88.26-.05.49-.17.7-.35.1-.09.2-.2.27-.32.08-.04.16-.1.21-.18.18-.29.22-.67.13-1Z"/><path class="cls-1" d="m24.24,20.26c-.4-.41-1.32-.8-1.46-1.41-.05-.24.06-.49.09-.72s.02-.5-.03-.74c-.12-.5-.6-.89-1.12-.83-.05,0-.1.02-.16.03-.04,0-.08,0-.13.01-.13.02-.26.1-.35.19-.04.04-.07.08-.1.13-.15.16-.26.35-.31.57-.05.25,0,.5-.05.74-.07.3-.41.51-.58.77-.19.3-.31.64-.28,1,.03.28.15.54.36.73.21.19.47.25.72.35.12.05.21.15.28.24.15.19.27.4.44.57.4.4,1.01.51,1.56.52.55.01,1.12-.2,1.4-.7.28-.5.11-1.07-.27-1.46Z"/><path class="cls-1" d="m21.46,43.87c-.42-.49-.35-.95-.42-1.56-.07-.64-.36-1.22-.95-1.52-.61-.31-1.34-.17-1.72.42-.22.33-.3.73-.31,1.12-.01.38-.06.86.2,1.17.03.03.06.06.07.1.09.19-.16.5-.26.66-.14.23-.31.43-.5.61-.28.26-.62.45-.98.55-.53.14-1.1.04-1.64.19-.51.14-.98.45-1.22.93-.28.56-.2,1.27-.02,1.84.29.97,1.29,2.51,2.5,1.75.81-.51.72-1.68,1.48-2.24.35-.26.72-.04,1.07.12.58.29,1.17.54,1.83.58,1.06.06,2.2-.58,2.4-1.68.24-1.3-.78-2.14-1.53-3.02Z"/><path class="cls-1" d="m44.71,51.84c.95-.53,2.11-1.08,2.19-2.33.07-1.17-1.12-2.15-2.23-1.57-.4.21-.68.55-1.03.83-.18.14-.25.2-.48.3-.07.03-.14.06-.2.07-.51-.08-1.02-.2-1.55-.18-.64.02-1.32.15-1.88.47-.57.33-.9.86-1.12,1.47-.19.53-.32,1.14-.06,1.67.15.3.42.53.73.66.29.11.6.07.9.15.28.08.18.24-.03.37-.55.32-1.13.68-1.2,1.39-.15,1.5,1.64,1.52,2.64,1.28.62-.15,1.17-.44,1.57-.95.43-.55.58-1.23.7-1.89.02-.11.04-.22.06-.34.1-.59.45-1.11.97-1.4,0,0,0,0,0,0Z"/></g></svg>