<?xml version="1.0" encoding="UTF-8"?><svg id="Layer_2" xmlns="http://www.w3.org/2000/svg" viewBox="0 0 106.22 67.56"><defs><style>.cls-1{stroke-width:0px;}</style></defs><g id="Layer_2-2"><path class="cls-1" d="m54.35,18.63c1.43-2.32,1.6-5.01.65-7.04l4.36,2.32c.34.16.66.36.96.59h.02s0,.01,0,.01c1.91,1.53,2.68,4.5,1.69,7.37-1.2,3.5-4.55,5.53-7.47,4.53-.08-.03-.16-.07-.24-.1h0s-.01,0-.01,0c-.51-.3-.79-.44-1.31-.8l-6.02-3.29c.51.12,1.04.16,1.57.14,2.18-.12,4.43-1.46,5.82-3.71Z"/><path class="cls-1" d="m43.2,16.83c.09.67.3,1.27.6,1.8.34.6.81,1.09,1.38,1.45.6.37,1.27.57,1.96.6,1.93.09,4.04-1.09,5.33-3.16.87-1.4,1.2-2.95,1.03-4.33-.17-1.41-.84-2.64-1.99-3.35-.6-.37-1.27-.56-1.96-.6-.14,0-.27,0-.41,0-.02,0-.03,0-.05,0-1.59.09-3.25,1-4.43,2.53-.15.2-.3.41-.44.63-.86,1.39-1.22,2.96-1.02,4.42Z"/><path class="cls-1" d="m43.2,16.83c.02.17.05.34.09.5.03.13.07.26.11.38,0,.02.01.05.02.08.1.3.23.58.38.84h0c.34.6.81,1.09,1.38,1.45.6.37,1.27.57,1.96.6,1.93.09,4.04-1.09,5.33-3.16.87-1.4,1.2-2.95,1.03-4.33h0c-.08-.7-.29-1.35-.62-1.92,0,0,0,0,0-.01-.08-.13-.16-.25-.25-.37,0-.01-.02-.03-.03-.04-.08-.11-.17-.21-.27-.31-.02-.02-.03-.04-.05-.06-.09-.1-.19-.18-.29-.27-.02-.02-.04-.04-.07-.06-.13-.1-.26-.2-.41-.29-.6-.37-1.27-.56-1.96-.6-.15,0-.31,0-.46,0-1.8.1-3.69,1.25-4.87,3.16-.86,1.39-1.22,2.96-1.02,4.42Z"/><path class="cls-1" d="m43.42,17.78c.1.3.23.58.38.84h0c-.15-.26-.28-.54-.38-.84Z"/><path class="cls-1" d="m53.5,13.18c-.08-.7-.29-1.35-.62-1.92.33.57.54,1.22.62,1.92h0Z"/><path class="cls-1" d="m43.4,17.71c-.04-.13-.08-.25-.11-.38.03.13.07.26.11.38Z"/><path class="cls-1" d="m52.63,10.87c.09.12.17.24.25.37-.08-.13-.16-.25-.25-.37Z"/><path class="cls-1" d="m51.52,9.83c.14.09.28.19.41.29-.13-.1-.26-.2-.41-.29Z"/><path class="cls-1" d="m51.99,10.19c.1.09.2.18.29.27-.09-.1-.19-.18-.29-.27Z"/><path class="cls-1" d="m52.34,10.52c.09.1.18.2.27.31-.08-.11-.17-.21-.27-.31Z"/><path class="cls-1" d="m96.55,21.56c-.55-1.07-1.12-2.72-1.71-4.47-1.31-3.86-2.8-8.23-5.58-11.1-.3-.31-.59-.63-.87-.95-4.15-4.61-8.51-7.47-26.99-2.22l-.2.06c-1.56.57-3.88,1.78-6.75,3.37,2.99,1.21,5.01,2.16,6.37,2.92.88-.45,1.64-.8,2.2-1.01,16.47-4.66,18.77-2.1,21.21.62.33.37.66.74,1.02,1.1,1.91,1.97,3.18,5.71,4.3,9.01.66,1.95,1.29,3.79,2.05,5.26,7.22,13.64,8.72,27.23,8.98,34.07-35.47-19.29-63.27-22.73-80.28-23.51-3.17-.14-5.97-.2-8.38-.24-1.95-.04-3.94-.07-5.37-.17,2.6-2.54,9.62-4.64,15.94-6.53,1.48-.44,3-.9,4.51-1.37,4.06-1.26,9.03-3.64,14.03-6.28-.47-.85-.8-1.81-.94-2.86-.13-.99-.09-2.01.1-3.01-5.35,2.89-10.71,5.54-14.84,6.83-1.5.47-2.99.91-4.45,1.35C10.42,25.55,1.37,28.26.08,34.87c-.22,1.11.04,2.19.73,3.04,1.57,1.95,4.34,2,11.02,2.12,15.33.28,47.22.87,90.17,25.34l3.85,2.19.32-4.42c.06-.84,1.35-20.89-9.6-41.59Z"/></g></svg>