<?xml version="1.0" encoding="UTF-8"?><svg id="Layer_2" xmlns="http://www.w3.org/2000/svg" viewBox="0 0 117 68.04"><defs><style>.cls-1{stroke-width:0px;}</style></defs><g id="Layer_2-2"><path class="cls-1" d="m103.71,68.04c-.26,0-.46-.03-.6-.08l-.16-.06-.07-.16c-.07-.16-.22-.76-.62-2.47-.98-4.11-3.01-12.66-4.52-15.54l-.19-.46c-1.12-2.8-3.75-9.37-8.25-11.28-.09-.03-.23-.08-.4-.14-.82-.3-2.19-.8-5-.75-2.29.12-25.15.76-25.38.77-.25,0-23.11-.65-25.42-.77-2.8-.05-4.17.45-4.99.75-.17.06-.31.11-.44.15-4.45,1.9-7.08,8.46-8.2,11.26l-.17.42c-1.52,2.92-3.56,11.47-4.54,15.58-.4,1.7-.55,2.3-.62,2.46l-.07.16-.16.06c-.87.34-3.97-.41-8.69-1.72-.54-.15-.98-.27-1.27-.35l-.07-.02c-2.95-1.32-3.87-4.75-3.87-5.85l.02-.13c.33-1.02,1.52-2.14,5.31-1.66,1.52.19,2.89-.78,3.2-2.26.57-2.75,1.38-5.44,2.03-7.59.39-1.31.74-2.43.93-3.27,2.62-9.94,5.88-16.37,7.44-19.46.22-.44.41-.81.56-1.12,4.46-8.63,10.92-15.23,10.98-15.29l.05-.04c4.33-3.3,2.55-8.39,2.47-8.6L32.77,0h3.31s.04.39.04.39c0,.06.67,6.05,5.01,6.13,4.72.09,17.25-.01,17.37-.02.13,0,12.66.11,17.38.02,4.34-.08,5-6.07,5.01-6.13l.04-.39h3.31s-.21.58-.21.58c-.08.21-1.86,5.3,2.47,8.6l.05.04c.06.07,6.52,6.66,10.98,15.28.16.32.35.7.57,1.13,1.56,3.09,4.82,9.52,7.44,19.45.2.85.54,1.98.93,3.29.65,2.16,1.46,4.85,2.03,7.6.3,1.47,1.66,2.44,3.18,2.25h0c3.79-.48,4.99.64,5.32,1.66l.02.13c0,1.1-.92,4.53-3.87,5.85l-.07.02c-.28.07-.72.2-1.27.35-3.95,1.1-6.77,1.8-8.09,1.8Zm-.1-.85c1.19.1,6.07-1.26,7.96-1.78.52-.15.96-.27,1.24-.34,2.62-1.19,3.29-4.27,3.33-4.98-.5-1.29-2.95-1.19-4.37-1.01h0c-1.93.25-3.74-1.04-4.12-2.93-.56-2.71-1.36-5.38-2.01-7.53-.4-1.32-.74-2.47-.94-3.33-2.59-9.83-5.82-16.21-7.37-19.27-.22-.44-.42-.82-.57-1.14-4.26-8.25-10.4-14.63-10.8-15.04-3.92-3.01-3.28-7.42-2.89-8.98h-1.37c-.24,1.44-1.4,6.43-5.79,6.52-4.73.09-17.27-.01-17.4-.02-.12,0-12.65.11-17.39.02-4.39-.08-5.55-5.07-5.79-6.52h-1.37c.38,1.57,1.02,5.98-2.89,8.98-.4.41-6.53,6.79-10.8,15.05-.15.31-.34.68-.56,1.13-1.55,3.06-4.78,9.44-7.37,19.28-.2.85-.54,1.99-.94,3.31-.65,2.14-1.45,4.8-2.01,7.52-.4,1.92-2.18,3.19-4.14,2.94-1.42-.18-3.86-.28-4.36,1.01.04.71.71,3.79,3.33,4.98.29.08.72.2,1.24.34,1.9.53,6.76,1.88,7.96,1.78.1-.37.29-1.2.52-2.12.99-4.14,3.04-12.77,4.59-15.74l.15-.38c1.16-2.9,3.88-9.7,8.71-11.75.16-.05.29-.1.44-.15.87-.32,2.34-.85,5.31-.8,2.31.12,25.16.76,25.39.77.21,0,23.05-.65,25.35-.77,2.99-.05,4.45.48,5.33.8.15.05.28.1.4.14,4.87,2.07,7.59,8.86,8.75,11.77l.17.42c1.54,2.93,3.59,11.55,4.57,15.7.22.93.42,1.75.52,2.13ZM60.95,30.07h-5.04c-.88,0-1.59-.71-1.59-1.59s.71-1.59,1.59-1.59h5.04c.88,0,1.59.71,1.59,1.59s-.71,1.59-1.59,1.59Zm-5.04-2.32c-.4,0-.73.33-.73.73s.33.73.73.73h5.04c.4,0,.73-.33.73-.73s-.33-.73-.73-.73h-5.04Zm24.2,1.01c-4.9,0-8.89-3.99-8.89-8.89s3.99-8.89,8.89-8.89,8.89,3.99,8.89,8.89-3.99,8.89-8.89,8.89Zm0-16.92c-4.43,0-8.03,3.6-8.03,8.03s3.6,8.03,8.03,8.03,8.03-3.6,8.03-8.03-3.6-8.03-8.03-8.03Zm-43.23,16.92c-4.9,0-8.89-3.99-8.89-8.89s3.99-8.89,8.89-8.89,8.89,3.99,8.89,8.89-3.99,8.89-8.89,8.89Zm0-16.92c-4.43,0-8.03,3.6-8.03,8.03s3.6,8.03,8.03,8.03,8.03-3.6,8.03-8.03-3.6-8.03-8.03-8.03Zm21.62,11.49s-.02,0-.03,0c-.35,0-.57-.04-1.82-.63-.07-.02-.92-.14-1.78-.17-.69-.02-1.32-.47-1.42-1.03-.05-.24-.06-.85.85-1.24.87-.38,1.95-.8,2.45-1l.02-2.79c.02-.06.12-.37.46-.55.28-.16.63-.17,1.03-.05.94.29,1.89.63,2.39,1.34l.04.08s.04.09.06.13c.17.36.25.59.24,2.19.7.09,1.91.38,1.95,1.3.02.11.03.27-.05.46-.22.49-.93.89-2.19,1.22-.09.03-.22.08-.36.14-1.18.46-1.6.59-1.83.59Zm-.89-6.63v3.16s-.28.1-.28.1c-.02,0-1.54.59-2.69,1.09-.24.11-.36.23-.35.29.02.13.29.33.6.34.81.02,1.82.14,2.08.23,1.19.56,1.32.56,1.47.56h.07c.17-.02,1.11-.38,1.51-.53.16-.06.3-.12.4-.15h.04c1.23-.34,1.55-.64,1.62-.73v-.08c0-.26-.84-.51-1.55-.54l-.41-.02v-.42c.03-1.84-.04-1.99-.14-2.2-.02-.04-.04-.08-.06-.12-.38-.51-1.34-.8-1.91-.98-.15-.05-.33-.07-.4,0Z"/></g></svg>