<?xml version="1.0" encoding="UTF-8"?><svg id="Layer_2" xmlns="http://www.w3.org/2000/svg" viewBox="0 0 116.14 67.18"><defs><style>.cls-1{stroke-width:0px;}</style></defs><g id="Layer_2-2"><path class="cls-1" d="m111.28,58.22c-1.71.22-3.3-.9-3.65-2.59-.9-4.4-2.44-8.63-2.96-10.87-2.97-11.28-6.75-17.97-7.97-20.5-4.48-8.66-10.9-15.18-10.9-15.18-4.65-3.54-2.61-9.09-2.61-9.09h-2.31s-.64,6.42-5.43,6.52c-4.78.09-17.38-.02-17.38-.02,0,0-12.6.11-17.38.02-4.78-.09-5.43-6.52-5.43-6.52h-2.31s2.03,5.55-2.61,9.09c0,0-6.42,6.52-10.9,15.18-1.23,2.53-5,9.21-7.97,20.5-.52,2.24-2.05,6.45-2.95,10.85-.35,1.7-1.95,2.82-3.67,2.6-2-.25-4.34-.18-4.84,1.37,0,.8.74,4.17,3.62,5.46,1.66.43,8.58,2.51,9.69,2.08.25-.55,3.13-14.17,5.15-18.03,1.04-2.58,3.74-9.85,8.65-11.94.8-.25,2.15-.98,5.58-.92,2.33.12,25.39.77,25.39.77,0,0,23.06-.64,25.39-.77,3.43-.06,4.78.67,5.58.92,4.91,2.08,7.6,9.36,8.65,11.94,2.02,3.86,4.91,17.48,5.15,18.03,1.1.43,8.03-1.66,9.69-2.08,2.88-1.29,3.62-4.66,3.62-5.46-.51-1.55-2.85-1.62-4.86-1.36ZM36.46,27.9c-4.67,0-8.46-3.79-8.46-8.46s3.79-8.46,8.46-8.46,8.46,3.79,8.46,8.46-3.79,8.46-8.46,8.46Zm24.06,1.31h-5.04c-.64,0-1.16-.52-1.16-1.16s.52-1.16,1.16-1.16h5.04c.64,0,1.16.52,1.16,1.16s-.52,1.16-1.16,1.16Zm-.38-7.46c-.44.16-1.82.72-2.07.71-.25-.01-.31.05-1.66-.59-.17-.06-1.1-.18-1.95-.21-.85-.02-1.59-.94-.41-1.45,1.17-.51,2.7-1.09,2.7-1.09v-.21s0-2.76,0-2.76c0,0,.15-.55.95-.31.8.25,1.73.56,2.16,1.17.18.43.29.3.26,2.54,0,0,1.97.09,1.96.98,0,0,.31.61-1.94,1.21Zm19.55,6.15c-4.67,0-8.46-3.79-8.46-8.46s3.79-8.46,8.46-8.46,8.46,3.79,8.46,8.46-3.79,8.46-8.46,8.46Z"/></g></svg>