<svg version="1.0" xmlns="http://www.w3.org/2000/svg"
 width="200.000000pt" height="400.000000pt" viewBox="0 0 200.000000 400.000000"
 preserveAspectRatio="xMidYMid meet">

<g transform="translate(0.000000,400.000000) scale(0.100000,-0.100000)"
fill="#000000" stroke="none">
<path d="M1450 3989 c-65 -9 -263 -41 -372 -60 -152 -25 -302 -84 -359 -141
-29 -30 -171 -277 -214 -373 -86 -195 -184 -469 -229 -640 -39 -151 -77 -318
-90 -405 -8 -52 -28 -174 -45 -271 -102 -592 -104 -1287 -6 -1676 46 -181 136
-326 244 -395 54 -34 132 -39 167 -10 46 37 88 161 164 492 44 189 58 238 127
460 143 459 305 830 534 1228 116 200 226 354 335 467 171 178 219 280 212
452 -7 150 -121 727 -157 788 -9 16 -36 43 -58 59 -35 24 -53 29 -115 32 -40
1 -102 -2 -138 -7z m-185 -448 c44 -25 58 -76 49 -183 l-7 -88 -66 -70 c-84
-89 -108 -92 -181 -24 -80 75 -92 102 -98 214 -4 96 -4 97 25 130 21 24 42 35
74 41 63 11 169 1 204 -20z m338 -321 c34 -27 51 -103 45 -204 -3 -74 -5 -80
-37 -108 l-34 -31 -100 7 c-111 8 -129 15 -210 81 -79 64 -76 106 15 191 66
61 77 68 127 75 100 14 167 10 194 -11z m-770 1 c76 -8 81 -10 126 -55 26 -25
51 -46 56 -46 18 0 55 -44 55 -65 0 -24 -121 -148 -155 -158 -11 -4 -58 -11
-105 -16 -66 -7 -92 -6 -117 4 -20 9 -33 10 -33 4 0 -27 -18 6 -30 54 -17 72
-9 206 14 242 29 45 55 50 189 36z m388 -300 c32 -33 64 -72 69 -87 6 -16 14
-71 17 -124 l5 -95 -31 -30 c-30 -28 -37 -30 -129 -33 -171 -7 -210 27 -198
177 4 46 14 97 21 112 22 41 136 139 163 139 15 0 44 -21 83 -59z"/>
<path d="M1035 3530 c-19 -7 -54 -40 -43 -40 3 0 19 7 36 16 24 11 55 15 122
12 90 -3 117 4 59 16 -44 8 -150 6 -174 -4z"/>
<path d="M1423 3211 c-29 -4 -58 -12 -65 -19 -10 -10 -6 -10 19 -2 17 7 70 10
118 8 70 -2 82 -1 68 10 -18 13 -53 13 -140 3z"/>
</g>
</svg>
