<?xml version="1.0" encoding="UTF-8"?><svg id="Layer_2" xmlns="http://www.w3.org/2000/svg" viewBox="0 0 226.56 122.46"><defs><style>.cls-1,.cls-2{stroke-width:0px;}.cls-2{fill:none;}</style></defs><g id="Layer_2-2"><rect class="cls-2" width="226.56" height="122.46"/><path class="cls-1" d="m175.08,102.58c-1.96,0-8.68-2.32-24.16-27.32-.29-.41-.57-.83-.86-1.26-2.19-3.23-4.45-6.57-9.13-7.94-.1-.03-.2-.06-.32-.09-1.87-.52-6.24-1.75-27.3-1.3h-.02s-.02,0-.02,0c-21.06-.45-25.43.78-27.3,1.3-.11.03-.22.06-.32.09-4.68,1.37-6.94,4.71-9.13,7.94-.29.43-.58.85-.86,1.26-17.09,27.6-23.51,27.56-24.62,27.27h-.02c-4.7-1.33-7.38-2.98-11.27-5.97l-.05-.04c-6.59-5.8-6.99-17.97-6.52-29.1.44-10.29,3.79-24.3,11.21-46.83.18-.53.75-.82,1.28-.65.53.18.82.75.65,1.28-7.36,22.34-10.68,36.19-11.11,46.28-.45,10.64-.12,22.22,5.81,27.47,3.65,2.79,6.16,4.35,10.47,5.58.47-.02,6.64-.83,22.46-26.38l.03-.05c.29-.41.57-.83.86-1.26,2.28-3.37,4.87-7.18,10.26-8.75h.02c.09-.03.2-.06.3-.09,1.95-.55,6.53-1.83,27.87-1.38,21.34-.45,25.91.83,27.87,1.38.11.03.21.06.3.08h.02c5.39,1.58,7.97,5.39,10.26,8.76.29.43.58.85.86,1.26l.03.05c15.59,25.17,21.81,26.32,22.44,26.37l-.06.03s.01,0,.02,0l.04-.02s.02,0,.02,0c4.31-1.23,6.83-2.78,10.47-5.58,5.92-5.25,6.26-16.83,5.81-27.47-.43-10.1-3.75-23.94-11.11-46.28-.18-.53.11-1.11.65-1.28.53-.18,1.11.11,1.28.65,7.42,22.53,10.78,36.54,11.21,46.83.47,11.14.07,23.3-6.52,29.1l-.05.04c-3.89,2.99-6.57,4.64-11.27,5.96h-.02c-.1.03-.26.06-.46.06Zm-123.57-2.03s.02,0,.04,0c0,0-.02,0-.04,0Zm123.56,0s-.03,0-.04,0c.01,0,.02,0,.04,0Z"/></g></svg>