<?xml version="1.0" encoding="UTF-8"?><svg id="Layer_2" xmlns="http://www.w3.org/2000/svg" viewBox="0 0 226.56 90.48"><defs><style>.cls-1,.cls-2{stroke-width:0px;}.cls-2{fill:none;}</style></defs><g id="Layer_2-2"><path class="cls-1" d="m43.25,46.24c.68.62,1.8,1.34,3.66,1.95l-2.61,6.17c-.72-.24-2.45-.88-3.57-1.71-.25-.19-.47-.38-.64-.58l2.59-6.43c.14.18.33.39.57.61Z"/><path class="cls-1" d="m44.63,42.83c.07-.21.46-.31,1.11-.31,2,0,6.48.96,11.56,2.54,6.73,2.1,11.96,4.51,11.69,5.38h0s0,0,0,.01c0,.02-.02.04-.03.06,0,0,0,0,0,0-.13.16-.5.24-1.06.24-2,0-6.48-.96-11.56-2.54-.63-.2-1.25-.4-1.85-.6-4.81-1.61-8.56-3.29-9.58-4.27-.21-.2-.3-.38-.26-.51Z"/><path class="cls-1" d="m44.41,55.2l.33.1,3.21-7.61-.41-.12c-2.25-.68-3.4-1.5-3.98-2.1l.68-1.68c.25.27.55.48.72.59.59.4,1.45.87,2.57,1.38,2.24,1.03,5.28,2.16,8.56,3.19,5.02,1.57,9.65,2.58,11.79,2.58.17,0,.44,0,.72-.05l-.73,1.98c-2.34-.29-11.5-1.57-17.47-4.7l-.38-.2-3.09,7.69.33.16c.09.04,8.34,3.87,17.72,4.5-.57.73-1.47,1.17-2.44,1.14-9.45-.33-17-4.23-20.47-6.38-.76-.47-1.24-1.25-1.36-2.09,1.54.98,3.58,1.6,3.69,1.64Z"/><path class="cls-1" d="m67.6,54.2c.11.01.22.03.31.04-1.2,4.67-1.81,5.7-1.99,5.93-.17,0-.34-.02-.51-.03-8.32-.48-15.83-3.58-17.48-4.3l2.49-6.21c5.94,2.98,14.59,4.24,17.17,4.57Z"/><path class="cls-1" d="m56.88,68.8l-15.36-6.19.74-1.79c.08.06.17.12.27.16l15.56,6.26.04.02h.04c.11.04,1.09.31,1.87.31.12,0,.22,0,.33-.02-.19.57-.37,1.09-.54,1.57-.63.25-2.02,0-2.94-.32Z"/><path class="cls-1" d="m39.95,66.4l.42-1.01,7.59,3.06.95.38h0l6.89,2.78c.32.11,1.45.46,2.47.46.15,0,.29,0,.43-.03-.35.86-.59,1.35-.75,1.62-.11.2-.34.3-.56.24-3.62-.92-6.71-1.97-9.25-2.98l-.21.57c-.15.41-.54.67-.96.67-.11,0-.23-.02-.35-.06-.53-.19-.8-.77-.61-1.3l.24-.66c-3.27-1.42-5.34-2.65-6.12-3.14-.21-.13-.29-.39-.2-.62Z"/><path class="cls-1" d="m41.22,63.32l15.4,6.21c.32.11,1.45.46,2.47.46.14,0,.28,0,.41-.02-.16.45-.31.84-.45,1.2-.59.29-2.06.03-3-.29l-15.39-6.21.56-1.35Z"/><path class="cls-1" d="m42.66,59.9h0c.03-.11.11-.19.23-.19,0,0,.02,0,.03,0,.28.04.56.09.83.13.08.01.16.03.25.04.2.03.39.07.58.1.09.02.17.03.26.05.21.04.41.07.61.11.06.01.12.02.18.03.27.05.53.1.79.16,0,0,0,0,0,0,.25.05.51.11.75.16.05.01.11.02.16.04.2.05.41.09.61.14.05.01.1.02.15.04.23.05.46.11.69.17.01,0,.02,0,.03,0,.25.06.5.13.75.2,0,0,0,0,0,0l.59-1.63c.19-.53.77-.8,1.3-.61.53.19.8.77.61,1.3l-.55,1.51s0,0,0,0c1.07.34,2.08.72,3.05,1.13,0,0,0,0,.01,0,.18.08.36.16.54.24.02,0,.04.02.06.03.17.07.33.15.5.23.02.01.05.02.07.03.17.08.33.16.5.24.02,0,.03.02.05.02.54.27,1.08.55,1.6.85.04.02.08.04.12.07.13.07.26.15.39.22.05.03.11.06.16.1.11.07.23.14.34.21.06.04.12.07.18.11.11.07.22.14.33.21.06.04.12.07.18.11.11.07.23.15.34.22.05.03.1.07.15.1.16.11.33.22.49.33.02.04.04.08.06.11,0,0,0,.01.01.02.02.03.03.07.04.1,0,0,0,0,0,.01,0,.03.01.06.01.08,0,0,0,0,0,0,0,.03,0,.05,0,.07,0,0,0,0,0,0h0s-.01.05-.03.07c0,0,0,0,0,0-.02.04-.06.08-.11.11,0,0,0,0,0,0-.02.01-.05.02-.07.03,0,0,0,0,0,0-.06.02-.12.03-.19.04,0,0-.02,0-.02,0-.03,0-.06,0-.08,0,0,0-.02,0-.03,0-.04,0-.07,0-.11,0-.69,0-1.66-.27-1.66-.27l-15.56-6.26s-.07-.04-.09-.06c0,0,0-.01-.02-.02-.02-.02-.03-.04-.04-.07,0,0,0-.01,0-.02-.01-.03-.02-.06-.02-.09,0,0,0,0,0,0,0-.03,0-.07.01-.1Z"/><path class="cls-1" d="m183.5,46.24c-.68.62-1.8,1.34-3.66,1.95l2.61,6.17c.72-.24,2.45-.88,3.57-1.71.25-.19.47-.38.64-.58l-2.59-6.43c-.14.18-.33.39-.57.61Z"/><path class="cls-1" d="m182.12,42.83c-.07-.21-.46-.31-1.11-.31-2,0-6.48.96-11.56,2.54-6.73,2.1-11.96,4.51-11.69,5.38h0s0,0,0,.01c0,.02.02.04.03.06,0,0,0,0,0,0,.13.16.5.24,1.06.24,2,0,6.48-.96,11.56-2.54.63-.2,1.25-.4,1.85-.6,4.81-1.61,8.56-3.29,9.58-4.27.21-.2.3-.38.26-.51Z"/><path class="cls-1" d="m182.34,55.2l-.33.1-3.21-7.61.41-.12c2.25-.68,3.4-1.5,3.98-2.1l-.68-1.68c-.25.27-.55.48-.72.59-.59.4-1.45.87-2.57,1.38-2.24,1.03-5.28,2.16-8.56,3.19-5.02,1.57-9.65,2.58-11.79,2.58-.17,0-.44,0-.72-.05l.73,1.98c2.34-.29,11.5-1.57,17.47-4.7l.38-.2,3.09,7.69-.33.16c-.09.04-8.34,3.87-17.72,4.5.57.73,1.47,1.17,2.44,1.14,9.45-.33,17-4.23,20.47-6.38.76-.47,1.24-1.25,1.36-2.09-1.54.98-3.58,1.6-3.69,1.64Z"/><path class="cls-1" d="m159.15,54.2c-.11.01-.22.03-.31.04,1.2,4.67,1.81,5.7,1.99,5.93.17,0,.34-.02.51-.03,8.32-.48,15.83-3.58,17.48-4.3l-2.49-6.21c-5.94,2.98-14.59,4.24-17.17,4.57Z"/><path class="cls-1" d="m172.17,69.44c.37,0,.67-.08.74-.11l3.94-1.03h.01c.31-.08.62-.17.94-.25.06-.02.12-.03.18-.05.28-.07.57-.14.85-.21,0,0,0,0,0,0h0c.41-.1.81-.2,1.21-.3.62-.16,1.25-.31,1.87-.47.28-.07.93-.24,1.4-.68l.44,1.21c.12.32-.05.67-.37.78-.74.25-2.15.72-3.9,1.23l.3.82c.19.53-.08,1.11-.61,1.3-.11.04-.23.06-.35.06-.42,0-.81-.26-.96-.67l-.35-.97c-1.4.37-2.92.73-4.45,1.03-.29.06-.57-.11-.67-.38-.1-.26-.25-.68-.46-1.33.08,0,.16.01.24.01Z"/><path class="cls-1" d="m170.95,66.23s0-.01,0-.02c0-.01,0-.02,0-.03,0,0,0-.01,0-.02,0-.01,0-.02.01-.03,0,0,0-.02.01-.02,0-.01.01-.02.02-.03,0,0,.01-.02.02-.02,0-.01.02-.02.03-.03,0,0,.02-.02.02-.03.01-.01.02-.02.04-.03,0,0,.02-.02.03-.03.01-.01.03-.02.04-.04.01,0,.02-.02.03-.03.02-.01.04-.03.06-.04.02-.01.04-.03.06-.04.02-.01.04-.03.06-.04.02-.01.04-.02.05-.03.02-.01.03-.02.05-.03.02-.01.04-.03.06-.04.02-.01.03-.02.05-.03.02-.01.05-.03.07-.04.02,0,.03-.02.05-.03.03-.01.05-.03.08-.04.02,0,.04-.02.05-.03.03-.02.06-.03.09-.05.02,0,.03-.02.05-.02.03-.02.07-.03.1-.05.01,0,.02-.01.03-.02.24-.11.5-.23.8-.35,0,0,0,0,.01,0,.06-.02.11-.05.17-.07,0,0,.01,0,.02,0,.06-.02.12-.05.18-.07,0,0,.01,0,.02,0,.72-.28,1.56-.56,2.47-.81,0,0,.01,0,.02,0,.16-.05.32-.09.49-.13.16-.04.31-.08.47-.12.02,0,.04-.01.06-.02.15-.04.3-.07.45-.11h0c.1-.02.2-.05.3-.07,0,0,0,0,0,0,.49-.11.96-.21,1.4-.28.02,0,.03,0,.05,0,.07-.01.14-.02.22-.04.02,0,.05,0,.07-.01.07-.01.13-.02.2-.03.03,0,.06,0,.08-.01.06,0,.12-.02.18-.03.03,0,.05,0,.08,0,.1-.01.19-.02.28-.04.04,0,.09-.01.13-.01.04,0,.07,0,.11-.01.04,0,.09,0,.13-.01.03,0,.07,0,.1,0,.04,0,.09,0,.13,0,.03,0,.06,0,.09,0,.05,0,.09,0,.14,0,.02,0,.05,0,.07,0,.07,0,.13,0,.19,0,.55,0,.9.08.94.25,0,.02,0,.05,0,.08h0s-4.57,1.16-4.57,1.16l-1.06.27-.92.25-4.71,1.26h0s0-.03,0-.05Z"/><path class="cls-1" d="m177.91,65.23h0s4.5-1.14,4.5-1.14l.08-.02.51,1.4c-.13.36-.54.62-1.27.8-.62.16-1.24.31-1.87.47-.42.11-.86.21-1.29.32-.63.16-1.27.32-1.9.49l-3.99,1.05s-.57.18-1.03-.03c-.14-.44-.3-.95-.48-1.54l5.6-1.5,1.13-.29Z"/><path class="cls-1" d="m175.08,63.4l-1.34-3.71c-.19-.53.08-1.11.61-1.3.53-.19,1.11.08,1.3.61l1.4,3.87c-.3.07-.6.15-.91.23-.36.1-.71.2-1.06.3Z"/><path class="cls-1" d="m175.08,86.59c-1.96,0-8.68-2.32-24.16-27.32-.29-.41-.57-.83-.86-1.26-2.19-3.23-4.45-6.57-9.13-7.94-.1-.03-.2-.06-.32-.09-1.87-.52-6.24-1.75-27.3-1.3h-.02s-.02,0-.02,0c-21.06-.45-25.43.78-27.3,1.3-.11.03-.22.06-.32.09-4.68,1.37-6.94,4.71-9.13,7.94-.29.43-.58.85-.86,1.26-17.09,27.6-23.51,27.56-24.62,27.27h-.02c-4.7-1.33-7.38-2.98-11.27-5.97l-.05-.04c-6.59-5.8-6.99-17.97-6.52-29.1.44-10.29,3.79-24.3,11.21-46.83.18-.53.75-.82,1.28-.65.53.18.82.75.65,1.28-7.36,22.34-10.68,36.19-11.11,46.28-.45,10.64-.12,22.22,5.81,27.47,3.65,2.79,6.16,4.35,10.47,5.58.47-.02,6.64-.83,22.46-26.38l.03-.05c.29-.41.57-.83.86-1.26,2.28-3.37,4.87-7.18,10.26-8.75h.02c.09-.03.2-.06.3-.09,1.95-.55,6.53-1.83,27.87-1.38,21.34-.45,25.91.83,27.87,1.38.11.03.21.06.3.08h.02c5.39,1.58,7.97,5.39,10.26,8.76.29.43.58.85.86,1.26l.03.05c15.59,25.17,21.81,26.32,22.44,26.37l-.06.03s.01,0,.02,0l.04-.02s.02,0,.02,0c4.31-1.23,6.83-2.78,10.47-5.58,5.92-5.25,6.26-16.83,5.81-27.47-.43-10.1-3.75-23.94-11.11-46.28-.18-.53.11-1.11.65-1.28.53-.18,1.11.11,1.28.65,7.42,22.53,10.78,36.54,11.21,46.83.47,11.14.07,23.3-6.52,29.1l-.05.04c-3.89,2.99-6.57,4.64-11.27,5.96h-.02c-.1.03-.26.06-.46.06Zm-123.57-2.03s.02,0,.04,0c0,0-.02,0-.04,0Zm123.56,0s-.03,0-.04,0c.01,0,.02,0,.04,0Z"/><path class="cls-1" d="m199.96,66.39c-.26,0-.52-.1-.72-.3-.4-.4-.39-1.04,0-1.44,8.56-8.5,2.77-18.93,2.52-19.37-.28-.49-.11-1.11.38-1.39.49-.28,1.11-.11,1.39.38.07.12,6.82,12.21-2.85,21.82-.2.2-.46.3-.72.3Z"/><path class="cls-1" d="m208.02,64.3c-.22,0-.45-.07-.64-.22-.44-.35-.51-.99-.16-1.43,4.41-5.5,1.95-11.41,1.84-11.66-.22-.51.01-1.11.53-1.34.51-.22,1.11.01,1.34.53.13.29,3.08,7.27-2.12,13.75-.2.25-.5.38-.79.38Z"/><path class="cls-1" d="m26.6,66.39c.26,0,.52-.1.72-.3.4-.4.39-1.04,0-1.44-8.56-8.5-2.77-18.93-2.52-19.37.28-.49.11-1.11-.38-1.39-.49-.28-1.11-.11-1.39.38-.07.12-6.82,12.21,2.85,21.82.2.2.46.3.72.3Z"/><path class="cls-1" d="m18.55,64.3c.22,0,.45-.07.64-.22.44-.35.51-.99.16-1.43-4.41-5.5-1.95-11.41-1.84-11.66.22-.51-.01-1.11-.53-1.34-.51-.22-1.11.01-1.34.53-.13.29-3.08,7.27,2.12,13.75.2.25.5.38.79.38Z"/><rect class="cls-2" width="226.56" height="90.48"/></g></svg>